<?xml version="1.0" encoding="UTF-8"?>
<svg width="11px" height="24px" viewBox="0 0 11 24" version="1.1" xmlns="http://www.w3.org/2000/svg" xmlns:xlink="http://www.w3.org/1999/xlink">
    <!-- Generator: Sketch 50.2 (55047) - http://www.bohemiancoding.com/sketch -->
    <title>GNT</title>
    <desc>Created with Sketch.</desc>
    <defs></defs>
    <g id="Page-1" stroke="none" stroke-width="1" fill="none" fill-rule="evenodd">
        <g id="Artboard" transform="translate(-409.000000, -317.000000)">
            <g id="GNT" transform="translate(398.000000, 313.000000)">
                <path d="M31.8520995,15.96281 C31.8520995,24.7554866 24.7242189,31.883208 15.9317015,31.883208 C7.13902488,31.883208 0.0113034826,24.7554866 0.0113034826,15.96281 C0.0113034826,7.17013333 7.13902488,0.0424119403 15.9317015,0.0424119403 C24.7242189,0.0424119403 31.8520995,7.17013333 31.8520995,15.96281" id="Fill-130"></path>
                <path d="M12.2588975,22.9267423 C12.2647881,24.971399 13.919395,26.6231403 15.9549771,26.6162945 C17.9934249,26.609608 19.6397532,24.9632796 19.637206,22.9343841 C19.6346587,20.8820856 17.9790965,19.2268418 15.9422408,19.2351204 C13.8329473,19.2437174 12.2533254,20.9580259 12.2588975,22.9267423 M12.2588975,10.6008517 C12.2633552,12.64121 13.910002,14.284195 15.9447881,14.291996 C18.0446886,14.3001154 19.6424597,12.5649512 19.6383204,10.612792 C19.6338627,8.5550806 17.9986786,6.91623483 15.9505194,6.91161791 C13.8752955,6.90684179 12.256191,8.5993393 12.2588975,10.6008517 M15.5206687,18.411399 L15.5206687,15.0985234 C14.3161313,14.9695682 13.3136239,14.4492896 12.5219025,13.5378468 C11.9863403,12.921409 11.6462806,12.2038766 11.5018826,11.3989413 C11.1627781,9.50903085 12.0183403,7.72928955 13.4514945,6.82835423 C15.2923701,5.6712597 17.0974249,5.83444378 18.8521711,7.10361791 C19.7133055,6.2391403 20.5855841,5.36367761 21.4731463,4.47261294 C21.6594149,4.67798607 21.8396338,4.87683184 22.0274945,5.08411542 C21.1720915,5.93585672 20.2961512,6.80797612 19.4267383,7.67356816 C19.5634945,7.87432438 19.7007284,8.05693134 19.8183801,8.25147861 C20.2932856,9.03651343 20.5086886,9.89143881 20.4657035,10.8068617 C20.3773453,12.6880159 19.1248876,14.3268617 17.3281114,14.9036577 C17.0472756,14.9937672 16.7487682,15.0303841 16.4571065,15.0838766 C16.3913552,15.0959761 16.3720915,15.1147622 16.3720915,15.1800358 C16.374002,16.2318965 16.3736836,17.2839164 16.3725692,18.3359363 C16.3725692,18.3921353 16.3789373,18.4233393 16.4483502,18.4309811 C17.4499025,18.5398766 18.3154945,18.946006 19.047992,19.6353592 C19.6913353,20.2406527 20.1232557,20.9718766 20.3361114,21.8299861 C20.8371264,23.8485333 19.9180418,25.9326726 18.0922905,26.9144836 C17.3499224,27.3137672 16.5534249,27.4876179 15.7134647,27.4473393 C13.7289871,27.3521353 12.0216836,25.9382448 11.5577632,24.0144239 C11.0717134,21.9989015 11.9861811,19.9279761 13.8065194,18.9329512 C14.3186786,18.6529114 14.8671363,18.4827224 15.4501413,18.4290706 C15.4644697,18.4276378 15.4789572,18.4263642 15.4929672,18.4234985 C15.5012458,18.4219065 15.5087284,18.4168119 15.5206687,18.411399" id="Fill-132" fill="#FFFFFF"></path>
            </g>
        </g>
    </g>
</svg>