<svg xmlns="http://www.w3.org/2000/svg" width="97" height="27" viewBox="0 0 97 27">
    <g fill="#000" fill-rule="nonzero">
        <path d="M20.624 0H2.736C1.228 0 0 1.232 0 2.746v17.946c0 1.513 1.228 2.745 2.736 2.745h15.138l-.708-2.45 1.71 1.58 1.614 1.486 2.884 2.505V2.746C23.36 1.232 22.132 0 20.624 0zM15.47 17.344s-.48-.576-.88-1.072c1.748-.495 2.415-1.58 2.415-1.58-.547.362-1.068.616-1.535.79-.667.281-1.308.455-1.935.576-1.282.241-2.457.174-3.458-.013-.76-.148-1.415-.349-1.962-.576-.307-.12-.64-.268-.974-.456-.04-.026-.08-.04-.12-.067-.027-.013-.04-.026-.054-.026-.24-.134-.374-.228-.374-.228s.641 1.058 2.336 1.567c-.4.509-.894 1.098-.894 1.098-2.95-.094-4.071-2.022-4.071-2.022 0-4.273 1.922-7.741 1.922-7.741C7.809 6.16 9.624 6.2 9.624 6.2l.134.16C7.355 7.046 6.26 8.104 6.26 8.104s.293-.161.787-.375c1.428-.63 2.563-.79 3.03-.844.08-.014.147-.027.227-.027.814-.107 1.736-.134 2.697-.027 1.268.148 2.63.523 4.018 1.273 0 0-1.055-1.005-3.324-1.688l.187-.214s1.828-.04 3.737 1.393c0 0 1.922 3.468 1.922 7.74 0-.013-1.12 1.916-4.07 2.01zM35.628 5.732h-4.432v4.996l2.95 2.665V8.545h1.575c1.001 0 1.495.482 1.495 1.259v3.71c0 .776-.467 1.298-1.495 1.298h-4.538v2.826h4.431c2.376.014 4.606-1.178 4.606-3.91V9.737c.013-2.786-2.216-4.005-4.592-4.005zm23.226 7.996V9.629c0-1.473 2.643-1.808 3.444-.334l2.443-.991c-.96-2.117-2.71-2.733-4.165-2.733-2.376 0-4.725 1.38-4.725 4.058v4.099c0 2.705 2.35 4.058 4.672 4.058 1.495 0 3.284-.737 4.272-2.666l-2.617-1.205c-.64 1.647-3.324 1.246-3.324-.187zm-8.076-3.536c-.92-.2-1.535-.536-1.575-1.112.054-1.38 2.176-1.433 3.418-.107l1.962-1.513c-1.228-1.5-2.616-1.902-4.045-1.902-2.176 0-4.285 1.232-4.285 3.563 0 2.263 1.736 3.482 3.644 3.776.975.134 2.056.523 2.03 1.192-.08 1.273-2.697 1.206-3.885-.24l-1.896 1.78c1.108 1.433 2.617 2.157 4.032 2.157 2.176 0 4.592-1.26 4.685-3.563.134-2.906-1.975-3.643-4.085-4.031zm-8.943 7.433h2.99V5.732h-2.99v11.893zM92.253 5.732h-4.432v4.996l2.95 2.665V8.545h1.576c1 0 1.495.482 1.495 1.259v3.71c0 .776-.468 1.298-1.495 1.298h-4.54v2.826h4.446c2.376.014 4.605-1.178 4.605-3.91V9.737c0-2.786-2.229-4.005-4.605-4.005zm-21.745-.16c-2.456 0-4.9 1.339-4.9 4.084v4.058c0 2.719 2.457 4.085 4.927 4.085 2.456 0 4.899-1.366 4.899-4.085V9.656c0-2.732-2.47-4.085-4.926-4.085zm1.922 8.142c0 .857-.961 1.3-1.909 1.3-.96 0-1.922-.416-1.922-1.3V9.656c0-.87.934-1.339 1.869-1.339.974 0 1.962.415 1.962 1.34v4.057zm13.736-4.058c-.067-2.786-1.962-3.91-4.405-3.91h-4.739v11.892h3.03v-3.776h.534l2.75 3.776h3.738l-3.23-4.084c1.428-.456 2.322-1.701 2.322-3.898zm-72.03 1.487c.748 0 1.362.656 1.362 1.473 0 .817-.6 1.473-1.362 1.473-.747 0-1.361-.656-1.361-1.473 0-.817.6-1.473 1.361-1.473zm-4.872 0c.76 0 1.375.656 1.362 1.473 0 .817-.601 1.473-1.362 1.473-.748 0-1.362-.656-1.362-1.473 0-.817.601-1.473 1.362-1.473zm72.55-2.598c1.883 0 1.883 2.718 0 2.718h-1.762V8.545h1.762z" transform="translate(-20.000000, -336.000000) translate(20.000000, 336.000000)"/>
    </g>
</svg>
