<svg xmlns="http://www.w3.org/2000/svg" width="18" height="15" viewBox="0 0 18 15">
    <g fill="#1DA1F2" fill-rule="evenodd">
        <path d="M136.325 6.128c.695-.438 1.229-1.134 1.479-1.962-.65.407-1.37.701-2.137.86-.613-.69-1.488-1.12-2.457-1.12-1.858 0-3.364 1.589-3.364 3.549 0 .278.028.549.086.808-2.796-.148-5.275-1.56-6.936-3.709-.29.526-.455 1.136-.455 1.786 0 1.23.594 2.317 1.497 2.955-.552-.019-1.07-.18-1.525-.444v.044c0 1.72 1.159 3.155 2.7 3.48-.283.083-.58.124-.887.124-.217 0-.429-.02-.633-.063.428 1.41 1.67 2.438 3.144 2.465-1.153.953-2.604 1.52-4.18 1.52-.271 0-.54-.016-.803-.05 1.49 1.007 3.258 1.595 5.159 1.595 6.19 0 9.574-5.409 9.574-10.1 0-.153-.002-.307-.009-.458.658-.5 1.23-1.126 1.68-1.838-.604.282-1.253.473-1.933.558z" transform="translate(-141.000000, -339.000000) translate(20.000000, 336.000000)"/>
    </g>
</svg>
