<svg xmlns="http://www.w3.org/2000/svg" width="79" height="36" viewBox="0 0 79 36">
    <g fill="none" fill-rule="evenodd">
        <path d="M0 0H79V36H0z" transform="translate(-148.000000, -52.000000) translate(148.000000, 52.000000)"/>
        <g fill="#E7E7E7">
            <path d="M40.356 4.751c1.414 0 2.122.917 2.318 1.27h.079v-1.1H43.8v5.58c0 .21.13.314.34.314h.315v.917h-.668c-.564 0-.983-.42-.996-1.008v-.066h-.078c-.17.275-.8 1.244-2.28 1.244-1.95 0-3.326-1.48-3.326-3.562 0-2.096 1.31-3.589 3.248-3.589zm-22.33-2.187c1.663 0 2.802 1.087 2.802 2.75 0 1.65-1.191 2.79-2.802 2.79H16.06v3.628H15V2.564h3.026zm6.561 2.357v6.811h-1.035V5.799H22.27V4.92h2.318zm4.807-3.012v8.932h1.375v.891h-3.785v-.89h1.375V2.8h-1.375v-.89h2.41zm5.225 0v8.932h1.376v.891h-3.786v-.89h1.376V2.8h-1.376v-.89h2.41zm15.337 2.842v1.035h-.615c-1.245 0-1.755 1.008-1.755 2.305v3.641H46.55v-6.81h1.022V6.06h.078c.197-.576.865-1.31 1.86-1.31h.445zm-9.482.943c-1.336 0-2.305 1.1-2.305 2.659 0 1.585 1.008 2.62 2.318 2.62 1.428 0 2.305-1.192 2.305-2.62 0-1.69-1.048-2.659-2.318-2.659zm-22.54-2.187H16.06V7.16h1.873c1.1 0 1.807-.786 1.807-1.847 0-1.047-.707-1.807-1.807-1.807zm6.13-1.323c.445 0 .759.328.759.747 0 .432-.314.76-.76.76-.432 0-.746-.328-.746-.76 0-.42.314-.747.746-.747zM6.975 0l2.616 2.616v8.718H2.616v2.616L0 11.334V8.72h6.975V0zM3.488 1.744V5.23H0V1.744h3.487z" transform="translate(-148.000000, -52.000000) translate(148.000000, 52.000000) translate(15.000000, 11.000000)"/>
        </g>
    </g>
</svg>
