<svg xmlns="http://www.w3.org/2000/svg" width="79" height="36" viewBox="0 0 79 36">
    <g fill="none" fill-rule="evenodd">
        <path d="M0 0H79V36H0z" transform="translate(-148.000000, -52.000000) translate(148.000000, 52.000000)"/>
        <g>
            <path fill="#000000" d="M40.16 4.751c1.443 0 2.164.917 2.365 1.27h.08v-1.1h1.07v5.58c0 .21.133.314.347.314h.32v.917h-.681c-.575 0-1.003-.42-1.016-1.008v-.066h-.08c-.174.275-.815 1.244-2.326 1.244-1.991 0-3.394-1.48-3.394-3.562 0-2.096 1.336-3.589 3.314-3.589zM17.372 2.564c1.697 0 2.86 1.087 2.86 2.75 0 1.65-1.216 2.79-2.86 2.79h-2.005v3.628h-1.082V2.564h3.087zm6.695 2.357v6.811h-1.055V5.799h-1.31V4.92h2.365zm4.905-3.012v8.932h1.403v.891h-3.862v-.89h1.403V2.8h-1.403v-.89h2.46zm5.332 0v8.932h1.404v.891h-3.863v-.89h1.404V2.8h-1.404v-.89h2.46zm15.65 2.842v1.035h-.628c-1.27 0-1.79 1.008-1.79 2.305v3.641H46.48v-6.81h1.042V6.06h.08c.2-.576.882-1.31 1.898-1.31h.454zm-9.676.943c-1.363 0-2.352 1.1-2.352 2.659 0 1.585 1.03 2.62 2.366 2.62 1.457 0 2.352-1.192 2.352-2.62 0-1.69-1.07-2.659-2.366-2.659zm-23-2.187h-1.91V7.16h1.91c1.123 0 1.845-.786 1.845-1.847 0-1.047-.722-1.807-1.845-1.807zm6.255-1.323c.454 0 .775.328.775.747 0 .432-.32.76-.775.76-.441 0-.762-.328-.762-.76 0-.42.32-.747.762-.747z" transform="translate(-148.000000, -52.000000) translate(148.000000, 52.000000) translate(15.000000, 11.000000)"/>
            <path fill="#7501D9" d="M7.117 0l2.67 2.616v8.718H2.668v2.616L0 11.334V8.72h7.117V0zM3.56 1.744V5.23H0V1.744h3.559z" transform="translate(-148.000000, -52.000000) translate(148.000000, 52.000000) translate(15.000000, 11.000000)"/>
        </g>
    </g>
</svg>
