<?xml version="1.0" encoding="UTF-8"?>
<svg width="20px" height="17px" viewBox="0 0 20 17" version="1.1" xmlns="http://www.w3.org/2000/svg" xmlns:xlink="http://www.w3.org/1999/xlink">
    <!-- Generator: Sketch 50.2 (55047) - http://www.bohemiancoding.com/sketch -->
    <title>BAT</title>
    <desc>Created with Sketch.</desc>
    <defs></defs>
    <g id="Page-1" stroke="none" stroke-width="1" fill="none" fill-rule="evenodd">
        <g id="Artboard" transform="translate(-449.000000, -319.000000)">
            <g id="BAT" transform="translate(443.000000, 313.000000)">
                <path d="M31.8993672,15.9710567 C31.8993672,24.7637333 24.7716458,31.8914547 15.9789692,31.8914547 C7.18645174,31.8914547 0.0585711443,24.7637333 0.0585711443,15.9710567 C0.0585711443,7.1783801 7.18645174,0.0506587065 15.9789692,0.0506587065 C24.7716458,0.0506587065 31.8993672,7.1783801 31.8993672,15.9710567" id="Fill-256"></path>
                <path d="M30.4005413,15.9718368 C30.4005413,19.1909413 29.3450189,22.1648716 27.5603423,24.5656677 C24.9334766,28.1015881 20.7225313,30.3925333 15.9782527,30.3925333 C15.0580537,30.3925333 14.1585512,30.3065632 13.2861134,30.140991 C6.60750647,28.8800955 1.55755622,23.0150209 1.55755622,15.9718368 C1.55755622,8.00686169 8.01327761,1.54954826 15.9782527,1.54954826 C23.9432279,1.54954826 30.4005413,8.00686169 30.4005413,15.9718368" id="Fill-258"></path>
                <polygon id="Fill-260" fill="#FFFFFF" points="16.011001 12.7069134 12.0544637 19.4705353 12.1549214 19.4705353 6.19225473 22.8474109 6.12873234 22.8474109 16.011001 5.95284378"></polygon>
                <polygon id="Fill-262" fill="#FFFFFF" points="25.8927602 22.8474587 6.19222289 22.8474587 12.1550488 19.4705831 19.9370985 19.4705831 25.8892577 22.8417274"></polygon>
                <polygon id="Fill-264" fill="#FFFFFF" points="19.9371622 19.4705831 19.9669333 19.4705831 16.0110328 12.7069612 16.0110328 5.95289154 25.8893214 22.8417274"></polygon>
                <polygon id="Fill-266" points="16.011001 12.7069134 12.0546229 19.4705353 19.9673791 19.4705353"></polygon>
            </g>
        </g>
    </g>
</svg>