<?xml version="1.0" encoding="UTF-8"?>
<svg width="13px" height="22px" viewBox="0 0 13 22" version="1.1" xmlns="http://www.w3.org/2000/svg" xmlns:xlink="http://www.w3.org/1999/xlink">
    <!-- Generator: Sketch 50.2 (55047) - http://www.bohemiancoding.com/sketch -->
    <title>PPT</title>
    <desc>Created with Sketch.</desc>
    <defs></defs>
    <g id="Page-1" stroke="none" stroke-width="1" fill="none" fill-rule="evenodd">
        <g id="Artboard" transform="translate(-319.000000, -318.000000)">
            <g id="PPT" transform="translate(309.000000, 313.000000)">
                <path d="M31.8978229,16.0669771 C31.8978229,24.0128478 26.0773254,30.5991164 18.4673751,31.7931463 C17.6570269,31.9205095 16.82439,31.9873751 15.9774249,31.9873751 C15.3055841,31.9873751 14.6448876,31.9459821 13.9953353,31.8647881 C6.13861891,30.8904597 0.0570268657,24.1879721 0.0570268657,16.0669771 C0.0570268657,7.27414129 7.18458905,0.146579104 15.9774249,0.146579104 C24.7702607,0.146579104 31.8978229,7.27414129 31.8978229,16.0669771" id="Fill-33"></path>
                <g id="Group-2" transform="translate(10.000000, 5.000000)" fill="#FFFFFF">
                    <path d="M8.23032587,16.2417418 C7.64694279,16.326061 7.56933085,16.2754695 7.55639552,15.6839382 C7.50077363,13.1634444 7.44515174,10.6429506 7.39211692,8.12245675 C7.38823632,7.98365447 7.39987811,7.8461494 7.40375871,7.71642764 C8.21739055,7.57503092 8.47221642,7.76961356 8.49032587,8.52978308 C8.5433607,10.866072 8.59380846,13.2023609 8.64296269,15.5386499 C8.64943035,15.8499821 8.68047512,16.1768809 8.23032587,16.2417418 M12.0604751,7.93825185 C12.0268433,6.92642211 11.4977886,6.3802935 10.5004751,6.23889678 C9.87440547,6.14938876 9.23669403,6.09620284 8.60545025,6.09750006 C7.09460448,6.10398614 5.58375871,6.1519832 4.07291294,6.18441364 C3.9513209,6.18700807 3.83102239,6.20776355 3.71719154,6.21943851 C3.83231592,11.4601977 3.94614677,16.6724181 4.05868408,21.8898273 C4.58644527,21.9559854 5.12326119,21.9897131 5.66913184,21.9897131 C6.35729104,21.9897131 7.03380846,21.9352299 7.69221642,21.8314525 C7.66634577,20.6756316 7.64047512,19.5185135 7.60813682,18.3613954 C7.59778856,18.0046605 7.7116194,17.9151525 8.055699,17.8930998 C8.98186816,17.834725 9.91709204,17.786728 10.8277388,17.6206841 C11.7901269,17.4442625 12.2454502,16.8721896 12.235102,15.8811153 C12.2053507,13.2334942 12.1458483,10.585873 12.0604751,7.93825185" id="Fill-35"></path>
                    <path d="M3.10678657,6.17220682 L3.10678657,18.0077609 C2.43634876,18.0077609 1.79035871,18.0282569 1.14669701,17.9990695 C0.81930398,17.9842813 0.726040299,17.7240594 0.727851244,17.4184349 C0.733413433,16.4846977 0.729920896,15.5508307 0.729920896,14.6169638 C0.729920896,12.0419868 0.729662189,9.4667504 0.730567662,6.89164371 C0.730697015,6.31165771 0.86768209,6.17570931 1.4559806,6.1727257 C2.00172189,6.17000155 2.54733383,6.17220682 3.10678657,6.17220682" id="Fill-37"></path>
                    <path d="M5.47828408,0.142869062 C6.98408507,0.155841238 8.20815473,1.39468406 8.18448308,2.88181434 C8.16003532,4.4112339 6.92846318,5.6230946 5.41063234,5.6111602 C3.89991592,5.59935552 2.67131891,4.34857829 2.68373682,2.83524422 C2.69615473,1.31698073 3.92863234,0.129637442 5.47828408,0.142869062" id="Fill-39"></path>
                </g>
            </g>
        </g>
    </g>
</svg>