<?xml version="1.0" encoding="UTF-8"?>
<svg width="21px" height="21px" viewBox="0 0 21 21" version="1.1" xmlns="http://www.w3.org/2000/svg" xmlns:xlink="http://www.w3.org/1999/xlink">
    <!-- Generator: Sketch 50.2 (55047) - http://www.bohemiancoding.com/sketch -->
    <title>ICX</title>
    <desc>Created with Sketch.</desc>
    <defs></defs>
    <g id="Page-1" stroke="none" stroke-width="1" fill="none" fill-rule="evenodd">
        <g id="Artboard" transform="translate(-490.000000, -318.000000)">
            <g id="ICX" transform="translate(485.000000, 313.000000)">
                <path d="M32,16 C32,24.83664 24.83648,32 16,32 C7.16336,32 0,24.83664 0,16 C0,7.16336 7.16336,0 16,0 C24.83648,0 32,7.16336 32,16" id="Fill-130"></path>
                <g id="Group" transform="translate(5.920000, 5.920000)" fill="#FFFFFF" fill-rule="nonzero">
                    <path d="M8.68941772,2.05 C10.7738734,1.7 12.908557,2.35 14.6163038,3.525 C13.9131139,4.25 13.1848101,4.975 12.4565063,5.7 C10.7738734,4.7 8.5638481,4.725 6.98167089,5.925 C4.89721519,7.4 4.36982278,10.45 5.65063291,12.625 C4.94744304,13.375 4.21913924,14.1 3.51594937,14.825 C2.13468354,12.825 1.60729114,10.275 2.26025316,7.925 C2.98855696,4.925 5.60040506,2.5 8.68941772,2.05" id="Shape"></path>
                    <path d="M16.198481,5.175 C17.7555443,7.325 18.2075949,10.2 17.3034937,12.7 C16.4998481,15 14.5911899,16.925 12.230481,17.65 C9.8195443,18.475 7.15746835,17.9 5.09812658,16.475 C5.80131646,15.725 6.52962025,15 7.25792405,14.275 C8.41316456,14.9 9.8195443,15.25 11.1003544,14.825 C13.3354937,14.275 14.9427848,12 14.7669873,9.725 C14.7669873,8.875 14.4153924,8.1 14.0637975,7.35 C14.7921013,6.625 15.4952911,5.9 16.198481,5.175" id="Shape"></path>
                    <ellipse id="Oval" cx="1.984" cy="18.025" rx="1.984" ry="1.975"></ellipse>
                    <ellipse id="Oval" cx="17.7555443" cy="1.975" rx="1.984" ry="1.975"></ellipse>
                </g>
            </g>
        </g>
    </g>
</svg>