<svg xmlns="http://www.w3.org/2000/svg" width="25" height="25" viewBox="0 0 25 25">
    <g fill="none" fill-rule="evenodd">
        <path fill="#0A1427" d="M22 17c.552 0 1 .448 1 1s-.448 1-1 1h-2v2c0 .552-.448 1-1 1s-1-.448-1-1v-2h-2c-.552 0-1-.448-1-1s.448-1 1-1h2v-2c0-.552.448-1 1-1s1 .448 1 1v2h2zm-10.499 1.783c-.194.113-.83.1-1 .005-2.337-1.314-4.158-1.903-7.46-1.77-.552.023-1.018-.406-1.04-.958L2 3.024c0-.535.421-.975.956-.999 3.87-.17 5.885.516 8.044 2.058 2.159-1.542 4.173-2.228 8.044-2.058.535.024.956.464.956 1V10c0 .552-.448 1-1 1s-1-.448-1-1V4c-2.983-.012-4.25.577-5.838 1.71L12 5.828v12.091c0 .357-.19.686-.499.865zM10 5.827l-.162-.116C8.25 4.577 6.983 3.988 4 4v11c2.587.005 3.926.442 6 1.318V5.827z" transform="translate(-81 -700) translate(32 685) translate(17.923 7.897) translate(31.38 7.744)"/>
    </g>
</svg>
