<svg width="24" height="24" viewBox="0 0 24 24" xmlns="http://www.w3.org/2000/svg">
    <g fill="none" fill-rule="evenodd" opacity=".5">
        <path d="M15.5 5H18a3 3 0 0 1 3 3v8a3 3 0 0 1-3 3H6a3 3 0 0 1-3-3V8c0-1.311.841-2.426 2.013-2.834M3 10h2m10 0h6" stroke="#FAFAFA" stroke-width="1.5" stroke-linecap="round" stroke-linejoin="round"/>
        <g fill-rule="nonzero">
            <path fill="#FF5F00" d="M14.98 13.395h1.44v2.587h-1.44z"/>
            <path d="M15.071 14.688c0-.525.247-.992.627-1.293a1.645 1.645 0 1 0 0 2.587 1.643 1.643 0 0 1-.627-1.294z" fill="#EB001B"/>
            <path d="M18.363 14.688a1.645 1.645 0 0 1-2.66 1.294 1.65 1.65 0 0 0 0-2.587c.278-.22.63-.352 1.014-.352.91 0 1.646.74 1.646 1.645z" fill="#F79E1B"/>
        </g>
        <path d="m7 7 3 3 3-3m-3 3V2.5" stroke="#FAFAFA" stroke-width="1.5" stroke-linecap="round" stroke-linejoin="round"/>
    </g>
</svg>
