<svg width="115" height="54" viewBox="0 0 115 54" xmlns="http://www.w3.org/2000/svg" xmlns:xlink="http://www.w3.org/1999/xlink">
    <defs>
        <linearGradient x1="5.785%" y1="38.975%" x2="94.844%" y2="61.025%" id="6lbkstqeab">
            <stop stop-color="#D068FF" stop-opacity=".734" offset="0%"/>
            <stop stop-color="#3780FF" stop-opacity=".5" offset="100%"/>
        </linearGradient>
        <rect id="qwu3w2fi5a" x="0" y="0" width="115" height="54" rx="14"/>
    </defs>
    <g fill="none" fill-rule="evenodd">
        <mask id="nbor8i5ysc" fill="#fff">
            <use xlink:href="#qwu3w2fi5a"/>
        </mask>
        <use stroke="url(#6lbkstqeab)" xlink:href="#qwu3w2fi5a"/>
        <g mask="url(#nbor8i5ysc)" fill="#E7E7E7">
            <path d="M67.361 23.182c-.142.108-2.658 1.493-2.658 4.573 0 3.562 3.201 4.822 3.297 4.853-.015.077-.509 1.726-1.688 3.406-1.051 1.479-2.15 2.955-3.82 2.955s-2.1-.948-4.029-.948c-1.88 0-2.548.979-4.076.979-1.528 0-2.594-1.368-3.82-3.048C49.147 33.979 48 30.914 48 28.005c0-4.667 3.105-7.141 6.161-7.141 1.624 0 2.978 1.041 3.997 1.041.97 0 2.484-1.104 4.332-1.104.7 0 3.215.063 4.871 2.381zm-5.748-4.356c.764-.886 1.304-2.115 1.304-3.344 0-.17-.015-.343-.047-.482-1.243.046-2.722.809-3.613 1.82-.7.777-1.354 2.006-1.354 3.252 0 .187.032.374.047.434.078.015.206.031.334.031 1.115 0 2.518-.73 3.329-1.711z"/>
        </g>
    </g>
</svg>
