<svg width="153" height="146" viewBox="0 0 153 146" xmlns="http://www.w3.org/2000/svg">
    <path d="M181.46 308.296c.013 2.71-1.468 3.183-3.968 2.354-4.387-1.452-8.085-4.736-11.498-7.353-5.001-3.834-9.783-7.884-14.536-11.952-4.753-4.069-9.453-8.197-14.211-12.265-3.14-2.69-6.259-5.992-10.079-7.9-12.239-6.111-23.865-14.146-35.267-21.5-16.662-10.746-33.2-21.84-47.992-34.515-7.93-6.797-18.722-15.34-20.647-25.987-.705-3.892.798-8.535 1.252-12.578.626-5.575 1.084-11.142 1.551-16.704.934-11.157 1.802-22.313 3.147-33.495.648-5.385 2.056-11.007 2.225-16.356.1-3.126-2.017-5.727-3.431-8.292-3.277-5.942-6.73-11.79-10.126-17.666l-1.917-3.32c-3.51-6.088-6.98-12.21-10.037-18.534C4.296 58.86-.586 51.06 1.977 47.44c1.38-1.948 5.965-1.351 8.087-1.073 3.9.51 7.664 1.46 11.386 2.395 8.61 2.161 17.099 4.79 26.11 6.017 4.633.63 10.4 1.61 14.283-2.32 3.922-3.97 6.628-8.761 10.49-12.811 4.442-4.661 9.672-8.32 14.954-12.144 3.902-2.827 6.871-6.291 10.04-9.741 3.502-3.812 7.01-7.701 11-11.142C110.96 4.35 115.77.397 118.994 2.01c4.582 2.291 5.895 10.296 7.23 14.889 1.846 6.346 3.368 12.805 5.1 19.19 1.254 4.637 2.432 9.33 4.499 13.641 3.332 6.95 7.414 13.545 11.436 20.12 7.447 12.174 15.2 24.078 21.68 36.798 5.679 11.144 3.098 44.898 3.404 52.335.611 14.845 1.673 29.864.13 44.992-.418 4.093-.652 10.184-3.918 13.89-2.012 2.284-3.705 2.568-4.128 5.754-.577 4.347.653 8.913 1.475 12.98.758 3.742 1.603 7.459 2.466 11.17l1.299 5.564c.216.928.43 1.856.644 2.784 3.02 13.141 5.619 26.398 8.357 39.622.828 3.998 2.779 8.35 2.792 12.557zm-15.797-183.445c1.413-2.627 1.372-5.102.206-7.787-2.037-4.682-4.899-9.03-7.466-13.437-6.944-11.938-14.435-23.586-21.222-35.607-5.21-9.232-8.033-18.922-10.836-29.167-1.686-6.168-3.235-12.4-5.23-18.461-.988-2.985-2.484-10.71-6.561-11.384-3.535-.583-7.249 3.294-9.46 5.62-3.592 3.787-6.596 7.987-9.547 12.127-2.682 3.764-5.157 7.754-8.481 11.162-3.73 3.826-7.965 7.32-11.9 10.982-3.142 2.926-6.767 7.016-11.215 8.12-5.22 1.294-11.099.345-15.93-.433-8.19-1.308-16.013-3.517-23.98-5.347-2.552-.585-16.304-4.302-17.716-.637-1.617 4.2 2.4 10.348 4.29 14.16 3.388 6.838 7.295 13.418 11.229 19.96 3.41 5.67 6.891 11.299 10.359 16.936 1.926 3.13 4.709 6.361 5.74 9.928 1.3 4.487.305 10.01-.11 14.778a648.782 648.782 0 0 1-2.874 27.008c-.558 4.378-1.152 8.773-2.012 13.153-.164.835-.35 1.66-.534 2.48l-.22.98c-.577 2.605-1.05 5.159-.67 7.77 1.536 10.526 9.743 19.401 16.87 26.836 12.14 12.662 26.312 23.735 40.773 34.255 11.295 8.221 22.943 16.785 35.485 23.456 6.54 3.478 12.082 8.044 17.813 12.508 6.367 4.952 13.088 11.581 21.32 14.35 7.45 2.505 3.614-7.538 2.675-10.107-3.996-10.966-7.469-22.022-10.035-33.509-1.134-5.076-2.208-10.228-2.585-15.51-.197-2.736-.804-7.171 1.519-9.798 1.769-1.991 3.954-2.654 5.31-5.131 2.434-4.44 2.947-9.656 3.454-14.24 1.374-12.423 1.11-24.76.807-37.011l-.075-3.061c-.025-1.02-.05-2.039-.072-3.057-.145-6.495-.33-12.988-.295-19.51.024-4.184-.752-9.788 1.176-13.375zm-10.502 7.323c-1.174 3.455-.794 7.573-.802 11.22-.008 4.3.091 8.587.205 12.871l.137 5.14c.322 12.554.804 25.173-.299 37.91-.502 5.812-.572 15.192-6.712 19.624-2.214 1.599-3.113 2.403-3.497 5.027-.546 3.724.25 7.447 1.053 10.904 1.874 8.06 5.89 15.288 7.779 23.326.76 3.277 1.137 7.87-4.124 6.367-6.15-1.75-11.318-6.222-16.262-9.552-2.468-1.662-4.889-3.437-7.58-4.838-2.072-1.073-4.36-1.73-6.367-2.886-11.352-6.492-21.618-14.862-31.525-23.037-12.02-9.92-23.604-20.467-33.172-32.42-6.01-7.509-12.056-16.083-13.423-25.887-.935-6.694 2.137-13.806 3.246-20.67 1.109-6.862 1.89-13.813 2.022-20.63.082-4.229.048-8.718-2.072-12.298-5.152-8.707-11.086-17.001-16.332-25.672-3.475-5.734-6.879-11.52-9.815-17.55-1.772-3.637-4.558-8.453-3.875-12.82.757-4.827 32.127 2.84 35.485 3.365 8.42 1.314 19.332 2.541 27.644-2.778 7.946-5.085 12.374-11.833 16.874-19.207 2.562-4.189 8.782-16.605 15.018-16.355 3.563.142 5.214 5.753 6.265 8.283 2.072 4.986 3.702 10.164 5.439 15.288 2.538 7.47 4.625 15.41 7.73 22.629 2.162 5.026 5.079 9.704 7.57 14.573 3.573 6.982 7.07 14.002 10.553 21.03 2.925 5.9 6.005 11.783 8.298 17.98 1.43 3.85 1.888 7.091.539 11.063zm-9.857 3.426c-.066-2.757-.799-5.426-1.52-8.004-1.609-5.744-3.692-11.326-5.828-16.871l-1.07-2.77-.536-1.384c-4.843-12.551-9.309-25.164-13.549-37.93-1.912-5.76-5.846-10.986-8.447-16.454-1.765-3.7-3.416-7.479-5.486-11.024-1.086-1.86-2.792-5.485-5.5-5.47-4.915.019-9.274 10.18-11.29 13.666-3.25 5.608-6.793 11.246-14.033 13.059-8.872 2.22-17.19 2.522-25.773 1.525-1.522-.176-7.168-1.196-13.054-1.868l-.804-.09c-7.24-.783-14.574-.963-14.822 1.661-.342 3.63 1.5 7.81 2.972 11.033 2.326 5.098 5.107 9.982 7.955 14.806a447.293 447.293 0 0 0 14.892 23.524c4.646 6.852 4.24 15.363 2.591 23.877-1.087 5.639-3.215 10.73-2.608 16.329.962 8.854 5.383 16.86 10.198 24.033 6.969 10.392 15.659 19.725 24.865 28.471 8.293 7.872 17.048 15.73 26.823 22.092 2.235 1.45 4.079 2.426 6.74 3.015 1.587.353 2.97 1.007 4.361 1.692 3.844 1.892 7.471 4.395 11.762 5.624 9.003 2.57 4.294-10.562 3.834-14.039-.203-1.53-.737-3.79.571-5.29 1.133-1.302 2.518-1.517 3.536-3.187 3.367-5.527 3.002-13.076 3.168-18.698.314-10.689-.274-21.264-.779-31.823-.38-7.944-1.856-16.622-.235-24.672.342-1.69 1.11-3.06 1.066-4.833zm-7.919 75.111c-1.123 4.089-2.856 2.569-5.977 2.304-1.593-.137-2.695.644-4.23 1.015-2.192.529-4.271-.073-6.166-.665-2.616-.815-5.213-2.354-8.066-2.658-1.004-.107-1.929.393-2.789.33-2.504-.182-5.013-2.77-6.654-4.04-17.45-13.501-33.782-31.422-42.55-51.367-2.914-6.634-5.213-14.197-3.838-21.935.816-4.565 2.29-8.632 1.174-13.048-.805-3.188-3.11-5.888-4.842-8.626a548.276 548.276 0 0 1-7.38-11.978C43.092 95.049 40.187 90 37.69 84.75 35.906 81 33.189 75.95 33.972 71.503c.932-5.308 19.452-2.443 22.566-2.298 7.546.35 14.403-.203 21.882-2.951 2.18-.798 4.712-1.034 6.727-2.198 2.056-1.19 3.394-3.218 4.553-5.052 1.52-2.401 4.405-9.513 7.716-9.585 1.828-.038 3.368 2.528 4.382 3.748 1.905 2.288 3.557 4.751 5.35 7.116 1.127 1.485 2.499 2.84 3.89 4.186l.835.807c2.085 2.018 4.113 4.068 5.327 6.55 5.877 12.014 7.535 26.395 11.013 39.33 2.062 7.694 4.285 15.364 5.782 23.239.474 2.492.958 5.06.936 7.668-.014 1.82-.877 3.425-1.035 5.185-.613 6.751.43 13.625 1.061 20.217l.31 3.21.626 6.418c.52 5.349 1.018 10.702 1.397 16.08.38 5.394 1.634 11.94.095 17.538zm-11.664-9.414c8.713 5.253 6.308-12.059 5.963-15.228-.401-3.69-1.018-7.375-1.67-11.062l-.394-2.213c-1.383-7.748-2.761-15.514-2.465-23.368.055-1.445.76-2.65 1.09-4.066.532-2.27.22-4.687.026-6.862-.638-7.162-2.09-14.168-3.63-21.087-2.957-13.287-6.28-26.966-12.396-39.028-1.533-3.023-3.29-6.179-6.02-8.408-1.682-1.372-3.884-2.082-5.7-3.31a32.136 32.136 0 0 1-4.734-3.916c-.883-.887-1.746-2.457-3.088-2.45-1.967.007-3.434 3.647-4.87 5.029-1.159 1.116-2.558 1.642-3.965 2.426-1.64.905-2.869 2.068-4.383 3.142-4.95 3.511-11.091 4.168-16.724 4.546-3.396.227-16.477-.495-17.79 4.267-.9 3.274.66 7.127 1.784 9.992 1.679 4.286 3.808 8.38 5.986 12.423 3.043 5.65 6.51 11.108 9.268 16.905 1.188 2.499.795 4.826.817 7.647.04 6.206 1.631 12.12 3.849 17.673 6.376 15.962 17.56 30.484 30.187 42.224 1.472 1.368 3.682 4.163 5.922 4.738 1.858.47.824-.018 2.224-.31 2.107-.434 3.55-.078 5.423.604 6.156 2.236 9.997 6.501 15.29 9.692zm-6.372-13.305c-3.055-1.111-5.277-3.239-7.458-5.431l-.817-.824c-2.045-2.057-4.14-4.065-6.935-5.242-.7-.29-1.55-.658-2.411-.595-.514.04-1.164.762-1.474.751-3.334-.058-6.277-4.803-7.916-6.67-12.913-14.697-22.232-32.48-27.157-51.584-.829-3.21-2.226-6.23-3.655-9.22l-.714-1.493c-.474-.995-.942-1.99-1.384-2.99-1.933-4.374-6.275-11.69-3.865-16.81 1.747-3.712 9.124-4.408 12.784-5.214 4.662-1.026 9.391-2.256 12.492-6.052 1.817-2.223 3.326-4.77 5.082-7.057.838-1.093 1.981-3.046 3.262-3.127 1.55-.097 3.317 1.566 4.813 2.968l.401.374c.394.364.764.696 1.101.954 5.384 4.115 8.987 9.542 11.935 15.373 5.445 10.77 9.161 22.491 12.106 34.277 1.355 5.422 2.67 10.95 3.11 16.62.251 3.209-.874 6.242-.842 9.412.099 10.207 2.392 20.058 2.91 30.228.148 2.944 1.14 13.718-5.368 11.352zm-4.348-57.782c-.175-4.028-1.205-7.959-2.202-11.761-2.423-9.192-5.679-18.165-9.86-26.626-2.7-5.464-5.888-10.653-9.85-15.358-1.251-1.49-3.472-5.277-5.293-5.126-1.912.158-4.54 8.558-5.428 10.55-1.41 3.166-3.609 4.997-6.99 6.649-3.085 1.505-8.763 3.137-10.533 5.879-2.368 3.67-.186 9.07.83 12.597.943 3.278 1.568 6.482 2.128 9.844.915 5.47 3.985 10.571 6.49 15.362 4.58 8.766 9.452 17.44 15.315 25.368 3.221 4.357 6.088 8.528 11.81 10.317 3.358 1.054 6.65 5.004 10.661 4.615 4.072-.392 4.153-6.122 4.051-9.391l-.02-.56c-.012-.354-.025-.665-.03-.921-.169-7.83-1.52-15.484-1.732-23.265-.076-2.716.77-5.46.653-8.173zm-7.801 18.08c.03 3.105.312 7.58-2.223 10.47-.97 1.108-3.83 3.162-5.327 3.24-1.797.094-3.656-2.017-4.616-2.971-2.403-2.393-4.391-5.165-6.287-7.879-4.461-6.386-8.464-13.207-12.039-20.171-2.307-4.495-4.801-9.206-5.82-14.252-.512-2.534-.048-5.199-.086-7.825-.041-2.703-.378-6.29 1.579-8.465 1.838-2.043 5.34-3.414 7.704-5.59 2.097-1.932 2.876-4.138 3.741-6.526.555-1.524 2.55-8.913 3.859-8.842 1.4.076 2.86 3.159 3.816 4.664 2.638 4.142 5 8.445 7.072 12.89 2.815 6.076 5.254 12.4 6.832 18.974 1.121 4.663.344 9.007.577 13.769.1 2.057.26 4.108.434 6.158l.264 3.076c.26 3.078.49 6.164.52 9.28zm-7.748-.637c1.167-8.77-.177-17.263-.677-25.717-.2-3.211.468-6.651.005-9.817-.581-3.92-1.966-7.666-3.404-11.282a95.432 95.432 0 0 0-4.23-9.231c-.657-1.249-1.366-3.207-2.45-3.6-.514-.185-1.233 1.118-1.872 2.583l-.19.443c-.557 1.336-1.028 2.695-1.202 3.11-.684 1.635-1.449 3.329-2.465 4.872-1.376 2.086-3.673 3.455-5.296 5.21-3.142 3.39-4.208 8.302-3.39 12.273 2.021 9.828 7.968 19.028 13.524 27.02 1.715 2.471 4.642 8.194 8.372 8.894 2.995.563 3.028-2.893 3.275-4.758zm-4.949-8.95c-.738 4.134-3.297 2.405-5.43.068l-.235-.261c-1.243-1.408-2.308-2.96-2.726-3.565-3.943-5.699-7.79-12.29-9.22-19.298-.726-3.55-.349-7.238 2.428-10.359 1.977-2.229 4.601-3.895 6.3-6.43.155-.231.368-.597.615-1.003l.191-.31c.69-1.103 1.572-2.315 2.213-1.916 2.03 1.255 2.827 5.96 3.533 8.777 1.057 4.243.215 8.664.598 13.015.588 6.674 2.969 14.297 1.733 21.281zM388.99-59.96c-2.654 4.542-5.715 8.93-8.47 13.431-4.648 7.589-7.118 15.11-8.952 23.217A562.951 562.951 0 0 0 366.023 4.4c-1.197 6.817-2.348 13.653-4.008 20.465-1.042 4.274-2.496 13.275-7.193 15.706-2.241 1.16-5.622.68-8.02.416-4.06-.445-8-1.301-11.883-2.196-7.234-1.666-14.33-3.629-21.46-5.514-9.255-2.448-18.276-4.693-28.04-6.015-10.103-1.362-20.335-2.368-30.513-3.528-6.894-.785-14.421-1.244-20.093-4.554-7.095-4.15-5.504-11.334-8.632-17.593l-.01-.022c-3.124 1.472-6.154 3.155-9.612 2.828-8.8-.834-12.966-12.057-16.194-18.04-3.191-5.902-1.57-12.78-.164-19.588.928-4.497 1.397-8.926 2.11-13.414.728-4.577 2.696-7.04 7.73-8.917 5.718-2.132 11.868-2.83 17.352-1.509 4.208 1.01 7.553 3.494 12.1 3.708 4.24.2 8.639-.398 12.938-.64 4.547-.256 11.99-.986 14.925 2.275 3.16 3.514-1.502 9.838-4.086 13.34-3.267 4.427-7.136 8.496-10.672 12.767a44.373 44.373 0 0 0-5.114 7.72c-1.543 1.37-3.1 2.73-4.79 3.962-.237.174-.517.365-.834.57-.999 1.388-2.09 2.711-3.345 3.92-2.533 2.442-5.696 3.174-8.934 4.18-2.726 2.325-4.458 4.742-3.4 6.86l-.01-.022c.73-.344 1.465-.677 2.213-.97 2.33-.912 5.258-1.32 7.839-2.206l.011.036c2.644 6.947 7.217 12.915 14.99 16.412 12.885 5.798 29.345 5.442 43.84 7.665 8.108 1.241 15.196 3.907 22.858 6.086 6.288 1.786 12.598 3.552 19.074 4.952 3.15.68 12.587 3.614 15.769.466 4.022-3.978 5.018-10.546 6.006-15.265 1.329-6.335 2.156-12.682 2.88-19.007.926-8.085 1.726-16.025 4.087-24.114 2.351-8.052 6.684-15.056 11.765-22.328 2.893-4.14 5.905-8.255 8.419-12.554 1.722-2.945 5.152-8.644 3.034-11.25-1.946-2.394-7.003-2.46-11.054-2.324l-.631.023c-.621.024-1.212.05-1.756.07-5.66.21-11.36.829-17.042 1.368-.709.067-1.417.138-2.124.207l-1.059.103c-5.996.572-11.867.924-17.004-1.452-1.946-.9-3.754-2.112-5.544-3.378l-.632-.449c-4.733-3.374-9.441-6.906-16.354-5.76-11.505 1.906-22.094 11.484-31.403 16.936-6.569 3.847-1.125 14.36-.345 18.98.408 2.464.76 5.341-.601 7.888-1.315 2.46-4.103 4.285-6.473 5.903-3.818 2.606-7.874 4.924-11.568 7.704-3.646 2.745-7.081 5.596-10.964 8.07-3.29 2.096-6.729 3.99-10.04 6.06-.992 2.43-2.185 4.822-4.165 6.721-1.08 1.036-2.468 1.715-3.974 2.231l.011.036c-1.046-2.751 3.12-5.662 5.567-7.323a81.607 81.607 0 0 1 2.562-1.665c.668-1.63 1.246-3.277 1.912-4.8.371-.856.775-1.704 1.21-2.542 2.03-1.797 4.037-3.613 6.294-5.181 3.638-2.526 7.538-4.7 11.45-6.833l2.132-1.161c.71-.387 1.42-.775 2.126-1.165 6.48-3.576 12.71-6.86 12.278-13.923-.146-2.363-.73-4.622-1.365-6.862l-.385-1.344a65.12 65.12 0 0 1-.892-3.367c-.57-2.49-1.741-7.136 1.85-9.026 4.076-2.146 7.893-4.943 11.707-7.81l1.205-.906c6.429-4.84 12.93-9.703 20.73-11.802 6.802-1.83 11.707 1.535 16.316 5.215l.552.443.55.444.548.444c2.007 1.621 3.993 3.19 6.097 4.292 5.924 3.104 13.438 2.75 20.637 2.393 6.465-.32 12.965-.96 19.408-1.108 4.166-.094 12.144-.676 14.043 2.757 1.818 3.285-1.74 8.96-3.776 12.444zM250.408-26.482c3.992-4.841 15.325-15.45 10.553-21.093-2.688-3.177-8.28-3.262-13.676-3.142l-.828.02c-2.753.069-5.412.153-7.56-.137-8.003-1.084-15.084-4.696-23.847-2.543-6.96 1.712-9.151 7.472-10.522 13.107l-.146.614c-.335 1.43-.626 2.844-.939 4.17-1.5 6.344-2.758 13.18.232 18.66 2.888 5.293 6.65 12.77 14.088 13.79 3.489.478 6.961-.665 10.428-1.79l.866-.281.524-.165c3.777-3.224 9.464-6.27 12.279-8.1 1.31-1.823 2.46-3.759 3.61-5.695l.762-1.277c1.276-2.124 2.596-4.22 4.176-6.138zm-1.948-.895c-3.58 4.397-6.96 9.826-11.456 13.542-4.683 3.871-13.399 4.356-18.664 3.266-5.871-1.216-10.196-5.897-12.42-10.672-2.332-4.996-1.183-11.257.497-16.797 1.794-5.923 4.623-12.453 12.322-13.347 6.63-.773 13.378 1.262 19.455 2.608 5.068 1.125 13.864.63 16.662 4.857 3.292 4.967-2.75 12.071-6.396 16.543zm-1.785-.912c3.17-3.551 5.357-8.793 3.262-12.597-1.903-3.458-8.33-4.712-12.273-5.771-5.109-1.374-10.777-2.799-16.422-2.41-11.248.77-16.36 15.786-13.527 23.337 2.989 7.963 18.533 12.676 27.597 7.437 4.162-2.406 8.237-6.493 11.363-9.996zm-13.116 5.686c-7.566 2.682-21.962-.197-23.87-7.37-1.862-7.001 4.596-16.295 13.408-16.717 7.432-.355 19.42 1.875 22.748 7.898 3.818 6.915-4.87 13.566-12.286 16.19zm-.748-4.139c5.745-1.18 13.899-5.189 10.555-11.192-2.808-5.037-11.637-6.74-17.872-6.47-5.977.26-13.417 5.095-12.14 11.007 1.32 6.076 13.491 7.878 19.457 6.655zm-.723-3.63c-4.38.52-13.11-.775-14.022-5.13-.897-4.288 5.63-6.513 9.246-6.772 4.387-.317 10.892 1.17 12.884 4.718 2.432 4.34-4.427 6.75-8.108 7.185zm333.655 165.399c-1.783 4.732-5.924 8.843-9.428 12.839-4.23 4.831-8.554 9.604-12.63 14.53-13.13 15.867-24.287 34.654-16.511 51.959 1.176 2.617 2.86 4.919 4.232 7.422.872 1.595 1.13 3.278-.627 4.931-4.404 4.15-14.996 3.557-20.095 3.699-11.163.31-22.2-.13-33.305-.153-7.345-.017-17.936-1.126-25.04 2.426-6.33 3.164-7.38 12.371-8.575 17.702-1.119 4.994-1.945 13.43-7.664 16.83-2.773 1.648-5.942 1.306-8.612.625-4.674-1.198-8.618-3.313-13.601-3.994-8.175-1.115-18.268-.385-26.115 4.33-5.437 3.268-7.783 7.79-9.601 12.948-.765 2.168-1.23 3.849-3.602 5.15-3.764 2.07-8.44 2.903-12.503 3.697-14.542 2.843-29.44 3.948-43.82 4.06-7.186.056-14.471-.127-21.291-1.432-4.475-.851-10.001-2.258-11.929-6.051-2.236-4.39-2.673-10.018-3.404-15.02-1.364-9.343-2.258-18.805-3.056-28.276a1055.68 1055.68 0 0 1-3.464-66.118c-.32-15.625-.766-31.52 1.295-47.412a47.827 47.827 0 0 1 2.214-9.288c1.095-3.264.716-6.43.069-9.505-4.017-19.088-16.862-35.697-27.629-51.433-2.732-3.995-5.467-7.988-8.039-12.08-2.211-3.517-5.415-7.444-5.806-11.758-.775-8.499 12.774-7.628 18.343-7.178 19.607 1.582 38.275 7 56.765 11.419 8.801 2.095 17.606 4.238 26.61 5.873 4.684.854 12.752 3.131 17.152.869 5.018-2.582 6.757-13.147 8-17.914 1.844-7.071 3.365-14.162 4.855-21.249l.992-4.724.499-2.361c2.002-9.444 3.98-18.898 6.67-28.3 1.745-6.106 3.608-13.183 7.682-18.796 8.683-11.96 16.55 7.79 19.297 12.544 6.988 12.095 13.952 26.503 25.997 35.04 7.19 5.097 14.72 4.754 22.872-1.282 2.654-1.959 5.264-5.083 8.703-5.315 3.673-.248 6.925 1.83 9.346 3.698 8.827 6.81 14.58 16.882 19.953 26.109 5.806 9.944 10.902 20.37 16.13 30.518 2.216 4.303 6.399 7.845 10.025 11.17 2.97 2.725 6.026 5.376 9.097 8.012l3.688 3.162 1.841 1.582c10.777 9.305 21.992 18.837 29.54 30.644 4.729 7.394 8.032 16.426 4.48 25.85zm-12.472.565c2.411-9.694-.37-18.886-4.766-26.823-6.086-10.993-15.098-20.301-24.096-29.264-4.426-4.412-8.968-8.729-13.29-13.226-2.809-2.923-6.222-6.249-7.761-9.864-3.847-9.042-9.22-18.15-14.643-26.754-5.25-8.328-11.064-17.365-19.69-23.122-2.752-1.838-6.225-3.603-10.124-3.153-3.37.387-5.375 2.46-7.986 4.372-7.545 5.53-14.784 5.972-21.554 1.519-10.842-7.132-17.277-19.363-23.514-29.865-2.51-4.224-9.878-22.76-19.07-13.933-4.242 4.071-6.25 10.154-8.008 15.083-2.885 8.082-4.941 16.287-6.948 24.45a938.005 938.005 0 0 0-1.392 5.758l-1.375 5.76c-1.148 4.799-2.316 9.597-3.606 14.383-1.61 5.987-3.026 12.932-6.912 18.459-2.399 3.414-9.244 1.89-12.453 1.525-7.947-.909-15.682-2.513-23.392-4.046-15.706-3.127-31.466-6.968-47.915-7.97-5.366-.329-18.118-1.238-19.693 6.212-.807 3.818 1.434 7.783 3.212 10.765 2.5 4.19 5.425 8.16 8.21 12.177 5.856 8.432 11.815 16.822 16.976 25.675 3.88 6.656 8.172 13.989 9.053 21.913.295 2.658-8.19 44.303-8.548 57.866-.523 19.875-.118 39.67 1.093 59.28.515 8.498 1.163 16.976 2.214 25.362.701 5.6 1.284 11.524 3.23 16.65 2.884 7.62 15.967 7.161 24.222 6.696 11.53-.652 23.39-2.854 34.792-6.236 7.583-2.253 16.204-5.143 22.412-10.293 3.97-3.292 4.603-7.113 6.888-11.12 5.979-10.48 19.341-10.444 28.502-6.82 1.436.567 3.002 1.31 4.647 2.078l.551.257c7.389 3.434 16.246 7.057 22.232-2.176 4.314-6.658 5.367-19.873 14.841-22.76 7.807-2.379 16.638-1.638 24.35-1.434 9.713.257 19.35.932 29.115.923 3.534-.003 12.395.824 15.27-2.59 1.108-1.316.617-2.751.078-3.957-1.046-2.347-2.43-4.412-3.112-6.947-4.504-16.715 9.335-34.864 21.086-49.069a288.711 288.711 0 0 1 2.523-3l1.269-1.492.843-.994c5.326-6.296 10.342-12.635 12.24-20.255zM382.512-57.84c-2.343 4.209-5.341 8.194-8.293 12.139-.5.668-1.006 1.335-1.515 2.003l-1.02 1.337-1.02 1.34c-3.74 4.92-7.387 9.933-9.62 15.383-2.855 6.976-3.205 13.714-3.879 20.74-.516 5.381-1.146 10.788-2.28 16.189-.87 4.146-1.82 9.219-4.978 12.758-2.722 3.056-8.477 1.704-11.74 1.226-5.385-.791-10.6-2.057-15.809-3.271-5.62-1.312-11.116-3.135-16.777-4.29-11.912-2.426-24.04-3.033-34.77-8.037-6.948-3.24-14.46-8.538-17.015-15.252-1.837-4.828 10.655-10.814 14.373-13.262 6.078-4.007 12.14-8.854 16.948-14.097 3.866-4.221 3.453-9.172 2.578-13.687l-.117-.586-.06-.291c-.611-2.973-1.617-5.902-1.794-8.989-.204-3.573.885-5.056 4.375-7.334 8.326-5.433 18.622-12.346 28.7-12.63 8.238-.232 13.09 5.753 19.857 8.346 4.377 1.678 9.274 1.2 14.208.562l1.587-.208 1.058-.138c.528-.068 1.056-.133 1.583-.194 5.186-.596 10.396-1.193 15.547-1.337 3.906-.11 9.152-.358 11.76 2.048 2.229 2.057-.512 7.062-1.887 9.532zm-12.417 12.904c2.838-3.667 12.773-15.146 8.33-19.017-4.778-4.161-16.616-1.793-23.28-1.012-5.452.638-11.738 2.279-16.814.888-6.507-1.782-10.891-6.715-18.162-7.035-8.299-.364-17.169 3.996-24.329 8.353-2.751 1.675-4.923 2.844-5.438 5.826-.488 2.71.208 5.493.587 8.051.726 4.99 1.141 9.877-.604 15.092-1.715 5.123-5.439 8.999-9.886 12.753-3.13 2.634-10.026 7.073-8.204 11.012 2.77 5.995 9.976 10.801 16.029 14.246 6.224 3.544 14.11 7.66 21.849 8.736 4.904.682 10.287.26 15.284.797 4.782.51 15.975 3.437 20.082-1.31 5.512-6.369 5.653-16.55 6.527-23.655.68-5.57 1.289-10.8 4.505-16.112 3.736-6.169 9.032-11.808 13.524-17.613zm173.171 181.544c-1.836 9.806-7.798 18.177-14.614 26.46-2.387 2.898-4.976 5.997-7.528 9.236l-.695.887c-8.208 10.534-15.807 22.477-14.745 33.855.205 2.215.998 3.972 1.839 5.936.408.954.996 2.154.058 3.209-2.26 2.538-9.802 1.255-12.287 1.09-7.931-.524-15.744-1.493-23.64-2.15-7.373-.612-15.139-1.413-22.805-.221-6.264.976-9.454 5.158-12.443 9.643l-.459.693-.687 1.042c-2.45 3.705-5.012 7.364-9.275 9.373-6.286 2.962-13.203.357-18.237-1.933-1.605-.731-3.195-1.647-4.811-2.583l-.695-.402-.698-.401c-4.201-2.402-8.652-4.624-14.051-3.867-6.033.846-7.605 5.143-10.41 9.265-4.752 6.984-13.57 11.788-21.398 15.302-10.58 4.75-22.064 8.1-33.272 9.553-5.08.66-10.51 1.062-15.257.001-4.449-.993-6.499-3.034-7.62-6.819-3.43-11.589-3.402-25.07-3.684-37.715-.354-15.888.02-31.926 1.436-48.021.965-10.976 2.137-22.293 5.608-33.263.905-2.86 1.95-5.848 3.713-8.5 1.323-2 2.63-3.229 2.788-5.543.466-6.86-4.083-13.755-7.28-19.222-5.11-8.743-11.064-17.002-16.873-25.318-3.395-4.851-10.716-13.517-7.31-20.507 2.942-6.035 13.3-5.84 18.64-5.764 13.501.192 26.52 2.656 39.55 4.457 5.972.825 12.04 1.753 18.231 1.793 1.58.012 3.764.206 5.372-.389a4.63 4.63 0 0 0 .499-.22c.136-.256.268-.515.398-.777l.243-.492.241-.495c5.194-10.671 8.441-21.824 12.605-32.75.955-3.577 1.922-7.135 3-10.63 2.122-6.873 4.35-13.836 7.647-20.511 1.714-3.472 3.898-7.83 7.55-10.191 9.77-6.316 16.503 10.344 19.326 14.918 5.462 8.843 11.351 18.976 20.88 24.668 5.823 3.477 12.386 3.306 18.838-1.186 2.863-1.992 5.142-3.985 8.718-4.442 3.622-.462 6.949.725 9.75 2.217 8.051 4.284 13.757 11.8 18.687 18.73a167.176 167.176 0 0 1 15.017 25.741c3.704 7.882 10.424 14.18 16.12 20.816 7.543 8.793 14.871 17.924 19.78 28.353 3.876 8.237 6.035 17.429 4.24 27.074zM365.706-43.728c-4.029 5.231-8.622 10.144-12.625 15.39-3.142 4.114-4.58 7.918-5.604 12.531-1.206 5.416-1.983 12.512-6.153 17.202-3.023 3.39-10.86 2.906-14.838 3.308-2.672.272-5.342.635-7.982 1.432-2.056.62-3.816 1.475-5.933 1.317-5.327-.399-8.618-5.547-11.832-8.54-4.268-3.976-8.93-8.126-11.919-13.04-1.403-2.299-.165-4.82 1.197-7.24l.256-.454c.342-.601.682-1.196.98-1.778 1.853-3.612 2.433-7.685 3.31-11.431 1.164-4.947 1.066-9.635.946-14.476-.054-2.184-.28-4.666.698-6.877 1.01-2.303 3.563-3.533 5.89-4.705 6.45-3.247 13.925-5.535 20.712-4.483 5.652.876 9.412 4.84 15.092 5.541 4.498.557 9.78-.685 14.437-1.15 5.704-.575 15.354-2.194 19.352 1.568 3.898 3.674-3.237 12.315-5.984 15.885zm156.53 195.91c5.452-10.55 6.816-21.614 4.695-32.012-2.437-11.942-8.701-22.513-15.508-32.379-5.135-7.44-10.743-14.392-14.65-22.525a127.036 127.036 0 0 0-14.72-23.592c-4.801-6.083-10.452-12.477-18.085-15.934-6.091-2.755-11.974-2.332-18.179 1.98-5.784 4.02-11.477 4.767-17.066 1.869-8.532-4.424-13.942-13.062-18.75-20.532-3.242-5.023-9.09-18.566-18.9-14.966-3.417 1.255-5.92 4.405-7.797 7.127-3.49 5.062-5.874 10.628-8.08 16.06a186.2 186.2 0 0 0-1.483 3.774c-.126.48-.254.96-.382 1.44l-.59 2.217c-2.464 9.247-5.064 18.54-9.491 27.168-.752 1.46-1.52 2.916-3.024 3.688-1.264 2.39-2.821 4.481-5.939 4.984-4.344.698-8.8.404-13.014.212-10.242-.472-20.421-1.635-30.875-1.034-5.318.305-13.893 1.03-16.774 6.521-3.066 5.84 1.27 12.756 3.883 17.25 4.788 8.235 10.976 15.602 15.706 23.88 2.37 4.148 7.126 10.893 5.465 16.306-.533 1.731-2.244 3.143-3.332 4.705-1.587 2.275-2.806 4.711-3.858 7.154-3.614 8.399-5.426 17.186-6.878 25.763-2.102 12.425-3.178 24.863-3.538 37.175-.286 9.836-.601 20.19 1.623 29.272.748 3.063 1.858 5.606 5.218 6.9 3.36 1.293 7.567 1.173 11.41.812 9.874-.924 19.958-4.112 29.33-8.056a122.746 122.746 0 0 0 21.791-11.89c3.884-2.66 7.053-5.856 11.744-4.605 3.294.876 6.029 2.95 8.963 4.384 2.809 1.374 5.715 2.641 8.802 3.579 4.769 1.451 10.324 2.289 15.651.131 9.9-4.007 13.655-14.423 25.318-14.646 9.262-.18 18.29 1.706 27.011 3.319 4.091.757 8.16 1.57 12.273 2.27 2.546.432 5.412 1.16 8.144.939 3.293-.267 2.902-1.85 2.265-3.61l-.096-.264c-.262-.71-.534-1.438-.599-2.112-.701-7.325 5.168-16.05 9.695-22.467 7.258-10.29 16.935-19.24 22.622-30.256zm-11.775.394c-4.789 10.185-12.358 19.267-20.37 27.926-4.548 4.914-11.14 12.66-11.462 19.018-.144 2.828 1.036 4.93-3.422 4.272-5.614-.828-10.931-3.09-16.184-4.685-7.58-2.3-15.322-4.672-23.462-5.697-5.198-.654-9.542.087-14.45 2.815-3.739 2.08-7.186 4.635-11.173 6.263-9.357 3.824-18.47 1.155-26.816-1.056-5.369-1.423-9.716-3.005-15.826-2.033-7.222 1.148-14.394 3.74-21.513 5.676-7.819 2.125-16.037 4.166-23.902 4.117-7.002-.043-11.264-2.264-12.43-8.243-1.82-9.324-.176-20.267 1.445-30.195 1.647-10.103 4.03-20.422 8.34-30.294 2.328-5.33 5.885-9.972 8.698-15.086 3.528-6.427-2.754-13.7-5.73-18.409-4.938-7.816-23.768-30.733-4.161-37.724 8.184-2.917 17.264-2.613 25.497-3.201 3.417-.246 7.666-.248 11.025-1.622 3.658-1.495 5.653-5.82 7.28-8.79 5.402-9.878 9.28-20.444 14.797-30.43 3.23-5.847 8.593-15.813 16.858-16.776 9.08-1.062 14.312 8.694 17.832 14.082 4.19 6.412 9.251 13.87 16.979 17.247 2.443 1.068 5.236 1.616 8.202.94 3.175-.723 5.241-2.754 8.006-4.29 5.8-3.222 12.017-2.742 17.227-.57 7.364 3.07 12.992 8.732 17.769 14.355a105.034 105.034 0 0 1 13.727 20.712c3.566 7.07 7.313 13.953 11.13 20.903 5 9.086 9.298 18.693 10.876 29.174 1.551 10.326.12 21.161-4.787 31.6zm-26.753 25.94c14.353-16.915 23.449-35.297 21.76-54.947-.793-9.243-3.6-17.942-7.09-26.279-2.69-6.424-5.269-13.081-8.525-19.167-6.506-12.158-16.335-26.238-31.003-31.589-4.958-1.809-10.737-2.227-16.34.034-1.039.419-1.997.981-2.938 1.565l-1.126.702c-.938.581-1.887 1.135-2.912 1.54-2.565 1.012-5.245.799-7.534.05-7.19-2.358-11.439-8.987-15.24-14.415-3.692-5.27-9.089-12.25-17.144-12.558-7.137-.273-12.949 5.665-16.974 10.746-3.785 4.772-6.917 9.895-9.985 15.011l-1.313 2.191c-1.53 2.554-3.066 5.093-4.68 7.572-3.613 5.56-6.754 10.027-13.71 12.14-1.67.51-3.375.937-5.088 1.35l-1.47.35c-4.17.994-8.352 2.014-12.197 4.035-14.842 7.805-3.599 24.519.595 32.696 2.803 5.46 5.316 10.056 3.77 16.636-1.037 4.397-4.412 8.471-6.78 12.546-7.054 12.137-12.852 27.57-11.736 40.315 1.015 11.554 18.546 9.823 28.544 9.854 7.55.018 14.416.825 21.52 2.296 5.458 1.134 11.054 2.071 16.812 2.32 7.261.305 14.925-1.338 21.993-4.278 3.72-1.549 7.29-3.503 11.082-4.857 5.317-1.9 9.601-1.418 14.448-.132 7.03 1.865 13.666 4.776 20.187 7.613 4.586 1.995 9.106 4.451 14.08 5.82 3.181.874 5.108.426 6.502-2.726 2.698-6.11 7.974-11.11 12.492-16.435zm13.475-52.968c.574 17.383-6.52 34.24-18.542 49.627-2.22 2.84-4.579 5.594-6.861 8.397-1.53 1.882-2.78 4.154-4.508 5.903-2.88 2.914-6.403 3.005-9.767 1.986-4.842-1.463-9.11-4.116-13.362-6.43-5.819-3.162-11.632-6.463-17.856-8.99-4.186-1.698-8.648-3.433-13.777-2.19-3.499.847-6.882 2.377-10.1 4.05-6.9 3.588-12.655 6.144-20.354 6.722-12.645.94-25.436-1.007-36.847-4.133-8.956-2.454-22.95-6.427-22.996-16.627-.036-6.777 3.574-13.322 7.335-19.678l.565-.952c1.13-1.9 2.258-3.785 3.29-5.654 2.257-4.088 4.068-8.312 4.95-12.64 1.111-5.456.546-9.77-1.292-14.627-.632-1.669-1.373-3.487-2.066-5.395l-.207-.575c-2.594-7.313-4.282-15.82 3.543-22.145 3.723-3.01 8.303-4.708 12.295-7.326 5.281-3.454 9.172-7.666 13.008-12.338 7.606-9.26 18.798-27.04 33.393-25.291 7.712.922 13.344 6.634 17.544 11.693 3.385 4.068 6.602 9.416 12.788 10.641 4.548.9 8.694-2.64 13.256-3.732 5.657-1.353 11.2-.665 16.043 1.182 13.537 5.16 22.976 17.117 29.41 28.345 6.679 11.661 10.653 26.236 11.115 40.177zm-21.572 45.614c17.976-24.815 20.708-55.978 7.018-78.261-6.302-10.255-15.26-20.456-27.574-25.519-4.725-1.944-10.014-2.959-15.603-2.56-1.712.123-3.486.544-5.26.993l-1.328.338c-1.99.501-3.958.952-5.815.965-5.327.032-8.543-5.275-11.692-8.044-4.397-3.868-9.526-7.566-15.95-8.779-13.262-2.505-24.716 8.369-33.87 16.868a129.045 129.045 0 0 1-13.664 11.086c-2.925 2.073-5.964 5.248-8.19 7.938-5.8 7.01-4.42 14.282-2.974 21.34l.147.718.218 1.072.14.713c1.56 8.054.687 16.557-2.81 24.854-.995 2.364-2.231 4.742-3.471 7.136l-.571 1.106c-2.47 4.797-4.806 9.657-5.105 14.588-.605 10.136 10.765 13.993 19.855 16.128 10.424 2.448 22.088 3.352 33.466 1.849 7.364-.972 13.609-3.58 20.356-6.866 2.648-1.292 5.675-2.747 8.57-2.961 4.814-.358 9.384 2.1 13.094 3.966 2.746 1.379 5.418 3.001 8.098 4.674l1.237.774.62.39 1.241.777c5.807 3.624 11.786 7.137 18.73 8.612 8.487 1.8 13.56-3.603 18.035-9.659l.388-.528.193-.265.575-.797c.637-.887 1.266-1.775 1.896-2.646zm10.72-39.239c-.911 11.837-4.996 23.775-12.31 34.647-5.018 7.456-10.753 13.027-20.42 11.608-10.897-1.6-19.85-8.254-28.784-12.945l-.317-.167-.636-.337-.638-.338-.64-.339c-5.458-2.87-11.235-5.547-18.314-2.981-6.406 2.32-12.434 4.626-19.116 5.59-9.868 1.398-19.637 1.036-28.726-1.063-8.29-1.93-16.362-5.605-16.826-14.173-.362-6.79 2.957-13.894 4.43-20.739 1.651-7.633 1.058-14.793-.17-22.025-1.098-6.502-1.084-13.159 2.81-19.707.795-1.34 1.675-2.769 2.696-4.01 1.303-1.582 2.991-2.371 4.795-3.47 4.763-2.898 9.254-6.185 13.823-9.315 10.092-6.917 21.285-12.817 33.14-10.614 5.53 1.029 10.321 3.45 14.869 6.051.402.23.8.463 1.196.696l.793.467c2.64 1.55 5.292 3.022 8.636 3.48 3.87.532 7.958.352 11.868.777 5.176.551 10.083 1.866 14.533 3.893 11.143 5.09 19.615 13.87 25.784 23.256 2.99 4.543 5.93 9.624 6.907 15.15.946 5.337 1.048 11.038.617 16.608zm-3.129 1.992c.434-4.613.679-9.473-.706-13.712-1.612-4.935-4.211-9.488-7.147-13.682-6.012-8.59-14.01-16.258-24.03-21.404-7.501-3.859-16.262-5.268-24.12-8.491-3.316-1.357-6.679-2.147-10.28-2.962-4.467-1.014-8.731-2.412-13.364-3.042-10.832-1.476-21.57 1.44-31.899 6.552-4.891 2.425-9.729 5.064-14.495 7.774-2.9 1.65-5.869 2.992-7.507 5.765-3.43 5.804-3.297 10.74-2.086 16.403 1.295 6.06 2.697 12.017 2.986 18.334.28 6.135-.604 12.715 1.288 18.476 4.419 13.465 23.75 15.409 38.48 13.713 5.485-.632 10.736-2.284 16.172-3.375 7.609-1.527 15.047 3.447 20.728 6.287 12.353 6.177 34.66 19.11 46.838.58 5.523-8.404 8.295-18.176 9.142-27.216zm-3.377.576c-.346 6.628-1.733 14.83-6.51 20.814-11.685 14.64-31.6 5.466-43.084.309-6.183-2.777-12.923-6.887-20.258-7.617-4.253-.424-9.028.686-13.395.818-13.232.401-26.058-3.502-32.856-13.04-3.143-4.41-4.713-9.666-6.428-14.759-1.755-5.213-3.868-10.32-5.325-15.647-1.163-4.252-2.123-9.473 2.17-13.444 5.406-5.006 14.622-8.037 21.368-10.444 16.52-5.892 37.234-7.07 51.813-.709 17.148 7.481 33.172 16.888 43.574 30.966 4.823 6.527 9.388 14.043 8.931 22.753zm-7.77 15.294c10.39-11.39 1.204-25.608-5.227-34-5.163-6.74-11.643-12.615-18.76-17.77-6.28-4.548-12.729-9.332-20.154-12.5-14.001-5.975-31.37-4.923-47.43-.422-6.635 1.859-14.358 4.19-19.756 8.828-3.88 3.34-4.137 6.691-2.777 10.504 3.15 8.838 9.54 17.82 16.795 24.016 7.484 6.393 17.821 11.14 28.604 12.671 3.894.558 7.653.956 11.311 2.095 6.748 2.1 13.042 5.098 19.51 7.6 10.093 3.899 27.571 10.283 37.884-1.022zm-2.792-6.138c-8.38 8.407-23.124 3.96-31.362 1.275-9.989-3.265-20.013-7.164-29.582-11.284-8.318-3.578-16.963-7.514-24.369-12.206a71.883 71.883 0 0 1-11.523-8.992c-2.566-2.48-6.056-5.516-6.892-9.06-2.107-8.94 14.502-13.7 21.344-15.437 14.31-3.633 29.22-3.34 41.576 1.874 13.85 5.844 25.367 16.588 33.982 27.467 4.579 5.784 15.206 17.957 6.826 26.363zm-4.625-5.023c6.126-6.3-3.807-17.19-7.074-21.215C443.5 100.09 421.28 85.981 393.77 91.972c-5.703 1.243-18.451 4.411-18.744 11.559-.264 6.58 9.751 10.848 14.722 13.511 15.923 8.533 32.306 17.753 50.57 22.666 5.893 1.586 18.38 5.024 24.32-1.084zm-6.43-5.669c-3.316 4.895-13.093 2.229-16.906 1.31-8.49-2.043-16.415-5.553-24.114-9.087-7.122-3.267-14.382-6.537-20.98-10.43-3.475-2.051-10.49-5.644-9.268-10.609 1.312-5.344 10.233-7.228 14.827-8.02 20.691-3.562 39.151 7.334 50.08 20.432 2.676 3.208 9.947 11.115 6.361 16.404zm-8-6.775c1.962-3.852-2.749-8.762-4.793-11.103-7.602-8.695-20.943-16.147-34.763-14.425-3.173.395-8.93 1.343-10.193 4.95-1.229 3.516 3.145 6.337 5.47 7.962 9.243 6.462 21.869 12.223 33.85 14.445 2.702.502 8.622 1.719 10.429-1.829zm-14.654-5.204c-6.605-.59-14.144-4.086-18.687-7.99-3.464-2.98-3.444-6.71 2.574-7.201 7.007-.572 14.548 3.42 18.565 7.864 2.826 3.128 4.201 7.917-2.452 7.327z" stroke="#FCFDFF" stroke-width="1.6" fill="none" fill-rule="evenodd" opacity=".12"/>
</svg>
