<svg width="115" height="54" viewBox="0 0 115 54" xmlns="http://www.w3.org/2000/svg" xmlns:xlink="http://www.w3.org/1999/xlink">
    <defs>
        <linearGradient x1="5.785%" y1="38.975%" x2="94.844%" y2="61.025%" id="txnz88c5db">
            <stop stop-color="#D068FF" stop-opacity=".734" offset="0%"/>
            <stop stop-color="#3780FF" stop-opacity=".5" offset="100%"/>
        </linearGradient>
        <rect id="e5f4601k2a" x="0" y="0" width="115" height="54" rx="14"/>
    </defs>
    <g fill="none" fill-rule="evenodd">
        <mask id="7rs3o2wv0c" fill="#fff">
            <use xlink:href="#e5f4601k2a"/>
        </mask>
        <use stroke="url(#txnz88c5db)" xlink:href="#e5f4601k2a"/>
        <g mask="url(#7rs3o2wv0c)" fill="#5662F6">
            <path d="M66.727 20.688s-2.501-1.964-5.454-2.188l-.266.534c2.669.656 3.894 1.593 5.175 2.747-2.208-1.13-4.386-2.187-8.182-2.187-3.796 0-5.974 1.057-8.182 2.187 1.28-1.154 2.738-2.196 5.175-2.747l-.266-.534c-3.098.293-5.454 2.188-5.454 2.188s-2.794 4.06-3.273 12.03C48.815 35.975 53.09 36 53.09 36l.895-1.194a10.926 10.926 0 0 1-4.712-3.181c1.766 1.34 4.432 2.734 8.727 2.734s6.961-1.394 8.727-2.734a10.92 10.92 0 0 1-4.712 3.18L62.909 36s4.276-.026 7.091-3.281c-.48-7.97-3.273-12.032-3.273-12.032zM54.455 30.53c-1.055 0-1.91-.979-1.91-2.187 0-1.209.855-2.188 1.91-2.188 1.054 0 1.909.98 1.909 2.188 0 1.208-.855 2.187-1.91 2.187zm7.09 0c-1.054 0-1.909-.979-1.909-2.187 0-1.209.855-2.188 1.91-2.188 1.054 0 1.909.98 1.909 2.188 0 1.208-.855 2.187-1.91 2.187z"/>
        </g>
    </g>
</svg>
