<svg width="115" height="54" viewBox="0 0 115 54" xmlns="http://www.w3.org/2000/svg">
    <defs>
        <linearGradient x1="5.785%" y1="38.975%" x2="94.844%" y2="61.025%" id="dh061im8sa">
            <stop stop-color="#D068FF" stop-opacity=".734" offset="0%"/>
            <stop stop-color="#3780FF" stop-opacity=".5" offset="100%"/>
        </linearGradient>
    </defs>
    <g fill="none" fill-rule="evenodd">
        <rect stroke="url(#dh061im8sa)" width="115" height="54" rx="14"/>
        <path d="M69 33.167c0 .496-.136.957-.353 1.362L61.7 26.522l6.87-6.194c.268.437.429.95.429 1.505v11.334zm-11-5.191 9.56-8.619A2.652 2.652 0 0 0 66.25 19h-16.5c-.477 0-.92.136-1.31.357L58 27.976zm2.665-.522-2.212 1.997a.675.675 0 0 1-.906 0l-2.213-1.997-7.034 8.11c.421.273.916.436 1.45.436h16.5c.534 0 1.029-.163 1.45-.436l-7.035-8.11zm-13.237-7.126c-.267.437-.428.95-.428 1.505v11.334c0 .496.135.957.353 1.362l6.946-8.008-6.87-6.193z" fill="#FFF"/>
    </g>
</svg>
