<svg width="24" height="24" viewBox="0 0 24 24" xmlns="http://www.w3.org/2000/svg" xmlns:xlink="http://www.w3.org/1999/xlink">
    <g>
       <path fill="#ffffff" fill-rule="evenodd" d="M3.5 9.004a.5.5 0 0 1-.5-.5v-2c0-1.93 1.57-3.5 3.5-3.5h2a.5.5 0 0 1 0 1h-2a2.503 2.503 0 0 0-2.5 2.5v2a.5.5 0 0 1-.5.5m16 0a.5.5 0 0 1-.5-.5v-2c0-1.38-1.122-2.5-2.5-2.5h-2a.5.5 0 0 1 0-1h2c1.93 0 3.5 1.57 3.5 3.5v2a.5.5 0 0 1-.5.5m-11 2a.5.5 0 0 1-.5-.5v-2a.5.5 0 0 1 1 0v2a.5.5 0 0 1-.5.5m6 0a.5.5 0 0 1-.5-.5v-2a.5.5 0 0 1 1 0v2a.5.5 0 0 1-.5.5m-4 2a.5.5 0 0 1 0-1 .5.5 0 0 0 .5-.5v-3a.5.5 0 0 1 1 0v3c0 .827-.673 1.5-1.5 1.5m1 3c-1.132 0-2.092-.386-2.854-1.146a.502.502 0 0 1 .708-.708c.574.575 1.276.854 2.146.854s1.572-.28 2.146-.854a.502.502 0 0 1 .708.708c-.762.76-1.722 1.146-2.854 1.146m-3 4h-2c-1.93 0-3.5-1.57-3.5-3.5v-2a.5.5 0 0 1 1 0v2c0 1.379 1.122 2.5 2.5 2.5h2a.5.5 0 0 1 0 1m8 0h-2a.5.5 0 0 1 0-1h2c1.378 0 2.5-1.121 2.5-2.5v-2a.5.5 0 0 1 1 0v2c0 1.93-1.57 3.5-3.5 3.5" data-original="#000000" opacity="1" class=""></path>
    </g>
</svg>
