<?xml version="1.0" encoding="UTF-8"?>
<svg width="24px" height="25px" viewBox="0 0 24 25" version="1.1" xmlns="http://www.w3.org/2000/svg" xmlns:xlink="http://www.w3.org/1999/xlink">
    <title>5A82BDF8-90A0-42E5-9D33-C55D409D333F</title>
    <g id="Page-1" stroke="none" stroke-width="1" fill="none" fill-rule="evenodd" stroke-linecap="round" stroke-linejoin="round">
        <g id="Icons/3" transform="translate(-253.000000, -317.000000)" stroke="#000" stroke-width="1.5">
            <g id="Row" transform="translate(0.000000, 307.726562)">
                <g id="Icons/24/settings/new" transform="translate(253.000000, 10.000000)">
                    <g id="Group" transform="translate(3.000000, 3.000000)">
                        <path d="M7.325,1.317 C7.751,-0.439 10.249,-0.439 10.675,1.317 C10.804643,1.8520592 11.1820337,2.29302424 11.6906516,2.50374581 C12.1992694,2.71446738 12.7779411,2.66960126 13.248,2.383 C14.791,1.443 16.558,3.209 15.618,4.753 C15.3318125,5.2228539 15.2870546,5.80108107 15.497528,6.30937917 C15.7080013,6.81767726 16.1484288,7.19500149 16.683,7.325 C18.439,7.751 18.439,10.249 16.683,10.675 C16.1479408,10.804643 15.7069758,11.1820337 15.4962542,11.6906516 C15.2855326,12.1992694 15.3303987,12.7779411 15.617,13.248 C16.557,14.791 14.791,16.558 13.247,15.618 C12.7771461,15.3318125 12.1989189,15.2870546 11.6906208,15.497528 C11.1823227,15.7080013 10.8049985,16.1484288 10.675,16.683 C10.249,18.439 7.751,18.439 7.325,16.683 C7.19535696,16.1479408 6.81796626,15.7069758 6.30934844,15.4962542 C5.80073062,15.2855326 5.22205892,15.3303987 4.752,15.617 C3.209,16.557 1.442,14.791 2.382,13.247 C2.66818753,12.7771461 2.71294539,12.1989189 2.50247203,11.6906208 C2.29199868,11.1823227 1.85157121,10.8049985 1.317,10.675 C-0.439,10.249 -0.439,7.751 1.317,7.325 C1.8520592,7.19535696 2.29302424,6.81796626 2.50374581,6.30934844 C2.71446738,5.80073062 2.66960126,5.22205892 2.383,4.752 C1.443,3.209 3.209,1.442 4.753,2.382 C5.753,2.99 7.049,2.452 7.325,1.317 Z" id="Path"></path>
                        <circle id="Oval" cx="9" cy="9" r="3"></circle>
                    </g>
                </g>
            </g>
        </g>
    </g>
</svg>