<svg xmlns="http://www.w3.org/2000/svg" width="48" height="48" viewBox="0 0 48 48">
    <g fill="none" fill-rule="evenodd">
        <g>
            <g>
                <g>
                    <g>
                        <g>
                            <path fill="#000" d="M28.54 28.18l.284-.306c.122-.132.226-.247.33-.365.266-.305.505-.604.734-.926C31.243 24.668 32 22.209 32 18.75 32 12.407 29.274 9 24 9s-8 3.407-8 9.75c0 3.459.757 5.918 2.112 7.833.229.322.468.621.735.926.103.118.207.233.329.365l.283.305c.161.174.266.296.328.37-.89.888-2.003 1.542-3.981 2.45l-.928.42C10.645 33.345 9 34.804 9 38c0 .552.448 1 1 1s1-.448 1-1c0-2.128 1.14-3.139 4.706-4.76l.933-.424c2.187-1.002 3.462-1.753 4.568-2.859.492-.492.73-1.037.628-1.65-.116-.697-1.937-2.663-2.09-2.88C18.632 23.856 18 21.801 18 18.75c0-5.324 1.94-7.75 6-7.75 4.06 0 6 2.426 6 7.75 0 3.051-.632 5.106-1.745 6.677-.153.217-1.974 2.183-2.09 2.88-.102.613.136 1.158.628 1.65 1.106 1.106 2.381 1.857 4.568 2.86l.933.423C35.861 34.861 37 35.872 37 38c0 .552.448 1 1 1s1-.448 1-1c0-3.197-1.645-4.656-5.878-6.58l-.928-.422c-1.978-.907-3.09-1.561-3.98-2.449.061-.074.166-.196.327-.37z" transform="translate(-20 -6925) translate(0 96) translate(0 6815) translate(20) translate(0 14)"/>
                        </g>
                    </g>
                </g>
            </g>
        </g>
    </g>
</svg>
