<svg width="38" height="38" viewBox="0 0 38 38" xmlns="http://www.w3.org/2000/svg">
    <g fill="none" fill-rule="evenodd">
        <circle fill="#F3BA2F" fill-rule="nonzero" cx="19" cy="19" r="19"/>
        <path d="M14.388 17.697 19 13.086l4.614 4.613 2.684-2.683L19 7.72l-7.296 7.295 2.684 2.683zM7.125 19.59l2.684-2.683 2.683 2.683-2.683 2.683-2.684-2.683zm7.263 1.895L19 26.096l4.614-4.612 2.685 2.681v.002l-7.3 7.296-7.295-7.294-.004-.004 2.688-2.68zm11.12-1.894 2.683-2.683 2.684 2.683-2.684 2.683-2.683-2.683zm-3.786-.002.002.001v.002L19 22.315l-2.721-2.72-.004-.004.004-.003.477-.477.231-.232L19 16.867l2.723 2.723h-.001z" fill="#FCFDFF"/>
    </g>
</svg>
