<svg xmlns="http://www.w3.org/2000/svg" width="24" height="24" viewBox="0 0 24 24">
    <g fill="none" fill-rule="evenodd" stroke-linecap="round" stroke-linejoin="round">
        <g stroke="#000" stroke-width="1.5">
            <g>
                <g>
                    <g>
                        <path d="M5 4h14c1.105 0 2 1.023 2 2.286v3.428c-1.105 0-2 1.024-2 2.286s.895 2.286 2 2.286v3.428C21 18.977 20.105 20 19 20H5c-1.105 0-2-1.023-2-2.286v-3.428c1.105 0 2-1.024 2-2.286s-.895-2.286-2-2.286V6.286C3 5.023 3.895 4 5 4" transform="translate(-20 -1002) translate(0 714) translate(0 272) translate(20 16)"/>
                        <path d="M12.002 13.975l-1.31.725c-.147.08-.33.027-.41-.118-.033-.06-.045-.128-.034-.195l.254-1.558h0L9.41 11.71c-.116-.119-.114-.31.005-.426.045-.044.103-.073.166-.082l1.492-.228h0l.654-1.394c.07-.15.25-.215.401-.145.064.03.115.082.145.145l.654 1.394h0l1.492.228c.165.025.278.179.253.343-.01.062-.038.12-.082.165l-1.092 1.118h0l.254 1.558c.027.164-.085.319-.249.346-.067.01-.135-.001-.194-.034l-1.307-.724h0z" transform="translate(-20 -1002) translate(0 714) translate(0 272) translate(20 16)"/>
                    </g>
                </g>
            </g>
        </g>
    </g>
</svg>
