<svg width="16" height="17" viewBox="0 0 16 17" xmlns="http://www.w3.org/2000/svg">
    <g fill="#00A6C4" fill-rule="nonzero">
        <path d="m14.688 4.5-.608.613c.483.767.635 1.729.304 2.648a2.995 2.995 0 0 1-3.828 1.826 2.744 2.744 0 0 1-.608-.307L8 11.245 6.3 9.517a3.083 3.083 0 0 1-2.75.348A3.094 3.094 0 0 1 1.7 5.907c.082-.25.207-.474.345-.682l-.732-.738-.138.236A8.095 8.095 0 0 0 0 8.917C-.014 13.362 3.579 17 7.986 17H8c4.407 0 7.987-3.61 8-8.055 0-1.479-.402-2.93-1.16-4.194l-.152-.251z"/>
        <path d="M2.943 6.13c-.215.29-.331.642-.331 1.004a1.64 1.64 0 0 0 1.63 1.644c.374 0 .719-.126.995-.348l-2.294-2.3zM10.943 8.29c.263.18.567.278.912.278a1.64 1.64 0 0 0 1.63-1.644 1.64 1.64 0 0 0-.275-.92L10.943 8.29zM8.027 10.018 1.423 3.33l.263-.278A8.492 8.492 0 0 1 7.93.333h.014A8.542 8.542 0 0 1 14.3 3.19l.249.278-6.522 6.55zM2.501 3.33l5.527 5.588 5.458-5.476C12.02 1.964 10.03 1.113 7.959 1.113h-.014c-2.06 0-3.98.781-5.444 2.216"/>
    </g>
</svg>
