<?xml version="1.0" encoding="UTF-8"?>
<svg width="24px" height="25px" viewBox="0 0 24 25" version="1.1" xmlns="http://www.w3.org/2000/svg" xmlns:xlink="http://www.w3.org/1999/xlink">
    <title>E1832F22-A1C3-4004-BBFF-8D9433AAE77F</title>
    <g id="Page-1" stroke="none" stroke-width="1" fill="none" fill-rule="evenodd" stroke-linecap="round" stroke-linejoin="round">
        <g id="Icons/2" transform="translate(-253.000000, -449.000000)" stroke="#000" stroke-width="1.5">
            <g id="Row" transform="translate(0.000000, 439.726562)">
                <g id="Icons/24/mute/new" transform="translate(253.000000, 10.000000)">
                    <path d="M6,15 L4,15 C3.44771525,15 3,14.5522847 3,14 L3,10 C3,9.44771525 3.44771525,9 4,9 L6,9 L9.5,4.5 C9.68059508,4.14922016 10.0899597,3.98247865 10.4642524,4.10724286 C10.838545,4.23200707 11.0659918,4.61101908 11,5 L11,19 C11.0659918,19.3889809 10.838545,19.7679929 10.4642524,19.8927571 C10.0899597,20.0175213 9.68059508,19.8507798 9.5,19.5 L6,15 M16,10 L20,14 M20,10 L16,14" id="Combined-Shape"></path>
                </g>
            </g>
        </g>
    </g>
</svg>