<svg width="16" height="16" viewBox="0 0 16 16" xmlns="http://www.w3.org/2000/svg">
    <g fill-rule="nonzero" fill="none">
        <circle fill="#FF0420" cx="8" cy="8" r="8"/>
        <path d="M5.666 10.122c-.417.017-.827-.1-1.17-.337a1.15 1.15 0 0 1-.45-.972c.001-.108.011-.217.03-.324.051-.288.125-.634.221-1.038.272-1.1.975-1.65 2.107-1.65.284-.005.565.048.828.155a1.224 1.224 0 0 1 .786 1.176 2.136 2.136 0 0 1-.03.319c-.06.356-.132.702-.216 1.038-.14.548-.382.958-.726 1.23-.344.269-.804.403-1.38.403zm.084-.865a.852.852 0 0 0 .57-.198c.176-.16.296-.372.342-.606.092-.376.162-.704.21-.984.016-.085.024-.172.024-.258 0-.364-.19-.546-.57-.546a.876.876 0 0 0-.576.198c-.173.161-.291.373-.336.606-.073.268-.145.596-.216.984a1.285 1.285 0 0 0-.025.252c0 .368.193.552.577.552zM8.294 10.062a.127.127 0 0 1-.102-.042.144.144 0 0 1-.018-.108l.829-3.902a.172.172 0 0 1 .065-.108.184.184 0 0 1 .114-.042h1.597c.376-.018.748.078 1.068.277a.905.905 0 0 1 .408.798c0 .105-.012.21-.036.312a1.625 1.625 0 0 1-.606 1.02c-.3.22-.712.33-1.236.33h-.81L9.29 9.912a.172.172 0 0 1-.065.108.184.184 0 0 1-.114.042h-.817zm2.125-2.293a.715.715 0 0 0 .438-.138.648.648 0 0 0 .252-.396c.011-.06.017-.12.018-.18a.334.334 0 0 0-.102-.264.503.503 0 0 0-.348-.096h-.72l-.228 1.074h.69z" fill="#FFF"/>
    </g>
</svg>
