<svg width="16" height="16" viewBox="0 0 16 16" xmlns="http://www.w3.org/2000/svg">
    <g fill="none" fill-rule="evenodd">
        <rect fill="#8247E5" width="16" height="16" rx="8"/>
        <path d="M10.824 6.084a.694.694 0 0 0-.647 0l-1.511.881-1.025.561-1.484.882a.694.694 0 0 1-.648 0l-1.16-.695a.65.65 0 0 1-.324-.56V5.816c0-.214.108-.427.324-.56l1.16-.668a.694.694 0 0 1 .648 0l1.16.694a.65.65 0 0 1 .324.56v.882l1.025-.588V5.23a.657.657 0 0 0-.324-.56L6.184 3.413a.694.694 0 0 0-.648 0L3.324 4.695A.587.587 0 0 0 3 5.23v2.51c0 .215.108.428.324.562l2.185 1.255a.694.694 0 0 0 .648 0L7.64 8.7l1.025-.587 1.484-.855a.694.694 0 0 1 .647 0l1.16.668a.65.65 0 0 1 .324.56v1.336a.657.657 0 0 1-.324.56l-1.133.668a.694.694 0 0 1-.647 0l-1.16-.667a.65.65 0 0 1-.324-.561v-.855l-1.025.588v.881c0 .214.107.427.323.561l2.186 1.255a.694.694 0 0 0 .647 0l2.186-1.255a.65.65 0 0 0 .323-.56V7.9a.657.657 0 0 0-.323-.56l-2.186-1.256z" fill="#FFF"/>
    </g>
</svg>
