<?xml version="1.0" encoding="UTF-8"?>
<svg width="24px" height="25px" viewBox="0 0 24 25" version="1.1" xmlns="http://www.w3.org/2000/svg" xmlns:xlink="http://www.w3.org/1999/xlink">
    <title>39B07A49-1265-475F-AD3D-1E06177AEC4E</title>
    <g id="Page-1" stroke="none" stroke-width="1" fill="none" fill-rule="evenodd" stroke-linecap="round" stroke-linejoin="round">
        <g id="Icons/2" transform="translate(-253.000000, -97.000000)" stroke="#000" stroke-width="1.5">
            <g id="Row" transform="translate(0.000000, 87.726562)">
                <g id="Icons/24/gift/new" transform="translate(253.000000, 10.000000)">
                    <path d="M4,8 L20,8 C20.5522847,8 21,8.44771525 21,9 L21,11 C21,11.5522847 20.5522847,12 20,12 L4,12 C3.44771525,12 3,11.5522847 3,11 L3,9 C3,8.44771525 3.44771525,8 4,8 Z M12,8 L12,21" id="Combined-Shape"></path>
                    <path d="M19,12 L19,19 C19,20.1045695 18.1045695,21 17,21 L7,21 C5.8954305,21 5,20.1045695 5,19 L5,12 L19,12 Z M16.5,3 C17.8807119,3 19,4.11928813 19,5.5 C19,6.88071187 17.8807119,8 16.5,8 L12,8 L12,8 C12.7402694,4.94949142 14.5257686,2.96560342 16.5,3 Z M7.5,3 C9.47423143,2.96560342 11.2597306,4.94949142 12,8 L7.5,8 C6.11928813,8 5,6.88071187 5,5.5 C5,4.11928813 6.11928813,3 7.5,3 Z" id="Combined-Shape"></path>
                </g>
            </g>
        </g>
    </g>
</svg>