<svg xmlns="http://www.w3.org/2000/svg" width="24" height="24" viewBox="0 0 24 24">
    <g fill="none" fill-rule="evenodd">
        <g>
            <g>
                <g transform="translate(-20 -1202) translate(0 1186) translate(20 16)">
                    <circle cx="12" cy="12" r="12" fill="#F3BA2F" fill-rule="nonzero"/>
                    <path fill="#FCFDFF" d="M9.087 11.177L12 8.265l2.914 2.913 1.695-1.694L12 4.875 7.393 9.482l1.695 1.695zM4.5 12.373l1.695-1.694 1.695 1.694-1.695 1.695L4.5 12.373zm4.587 1.197L12 16.482l2.914-2.913 1.696 1.693v.001L12 19.872l-4.608-4.607-.003-.003 1.698-1.692zm7.023-1.196l1.695-1.694 1.695 1.694-1.695 1.695-1.695-1.695zm-2.39-.001v.001L12 14.094l-1.719-1.718-.002-.003.002-.002.302-.301.146-.146 1.27-1.271 1.72 1.72z"/>
                </g>
            </g>
        </g>
    </g>
</svg>
