<?xml version="1.0" encoding="UTF-8"?>
<svg width="24px" height="24px" viewBox="0 0 24 24" version="1.1" xmlns="http://www.w3.org/2000/svg" xmlns:xlink="http://www.w3.org/1999/xlink">
    <g id="iconCard" stroke="none" stroke-width="1" fill="none" fill-rule="evenodd">
        <g id="Icon">
            <path d="M6,5 L18,5 C19.6568542,5 21,6.34314575 21,8 L21,16 C21,17.6568542 19.6568542,19 18,19 L6,19 C4.34314575,19 3,17.6568542 3,16 L3,8 C3,6.34314575 4.34314575,5 6,5 Z M3,10 L21,10" id="Combined-Shape" stroke="#000" stroke-width="1.5" stroke-linecap="round" stroke-linejoin="round"></path>
            <g id="Master" transform="translate(13.037278, 13.042603)" fill-rule="nonzero">
                <rect id="Middle" fill="#FF5F00" x="1.94277477" y="0.351985451" width="1.43993861" height="2.58731817"></rect>
                <path d="M2.03419899,1.64564413 C2.03419899,1.11995225 2.28104561,0.653686417 2.66045801,0.351984994 C2.38161275,0.132565777 2.02962776,-6.65467681e-13 1.64564413,-6.65467681e-13 C0.735968623,-6.65467681e-13 1.19904087e-14,0.735968623 1.19904087e-14,1.64564413 C1.19904087e-14,2.55531963 0.735968623,3.29128825 1.64564413,3.29128825 C2.02962776,3.29128825 2.38161275,3.15872248 2.66045801,2.93930326 C2.28104561,2.64217307 2.03419899,2.171336 2.03419899,1.64564413 Z" id="Circle-Left" fill="#EB001B"></path>
                <path d="M5.32548724,1.64564413 C5.32548724,2.55531963 4.58951862,3.29128825 3.67984312,3.29128825 C3.29585949,3.29128825 2.94387449,3.15872248 2.66502924,2.93930326 C3.04901287,2.63760184 3.29128825,2.171336 3.29128825,1.64564413 C3.29128825,1.11995225 3.04444163,0.653686417 2.66502924,0.351984994 C2.94387449,0.132565777 3.29585949,-6.65467681e-13 3.67984312,-6.65467681e-13 C4.58951862,-6.65467681e-13 5.32548724,0.740539857 5.32548724,1.64564413 Z" id="Circle-Right" fill="#F79E1B"></path>
            </g>
        </g>
    </g>
</svg>