<svg width="38" height="38" viewBox="0 0 38 38" xmlns="http://www.w3.org/2000/svg">
    <g fill-rule="nonzero" fill="none">
        <path d="m23.206 17.411 2.741-4.735 7.39 11.716.003 2.248-.024-15.472a1.17 1.17 0 0 0-.53-.928L19.484 2.45a1.154 1.154 0 0 0-1.136.075l-.046.03-12.913 7.618-.05.023a1.17 1.17 0 0 0-.668.99l.02 12.607 6.884-10.86c.866-1.44 2.754-1.903 4.507-1.878l2.057.055-12.12 19.787 1.428.837L19.712 11.13l5.422-.02-12.235 21.124 5.099 2.985.609.357c.257.106.561.112.821.016l13.49-7.958-2.579 1.521-7.133-11.744zm1.046 15.335-5.15-8.226 3.144-5.43 6.763 10.85-4.757 2.806z" fill="#2D374B"/>
        <path fill="#28A0F0" d="m19.103 24.52 5.149 8.226 4.757-2.806-6.763-10.85zM33.34 26.64l-.003-2.248-7.39-11.716-2.741 4.735 7.133 11.744 2.58-1.521a1.17 1.17 0 0 0 .422-.847v-.147z"/>
        <path d="m2.375 28.76 3.642 2.137 12.12-19.787-2.056-.055c-1.753-.025-3.64.438-4.508 1.878l-6.882 10.86-2.316 3.622v1.345zM25.133 11.11l-5.42.02L7.445 31.734l4.287 2.513 1.166-2.013z" fill="#FFF"/>
        <path d="M35.625 11.082a3.527 3.527 0 0 0-1.62-2.826L20.525.366a3.45 3.45 0 0 0-3.092 0C17.32.423 4.327 8.095 4.327 8.095a3.505 3.505 0 0 0-1.951 2.98v16.34l2.315-3.622-.02-12.608a1.178 1.178 0 0 1 .476-.876c.061-.045 13.278-7.832 13.32-7.854.31-.158.705-.16 1.016-.004l13.304 7.79c.314.203.512.55.53.928v15.618c-.017.33-.145.638-.398.847l-2.58 1.521-1.33.785-4.757 2.806-4.824 2.846a1.15 1.15 0 0 1-.821-.016l-5.708-3.342-1.166 2.013 5.13 3.006.444.256c.192.11.323.183.37.206.364.18.888.285 1.36.285.434 0 .857-.081 1.257-.24l14.011-8.26a3.508 3.508 0 0 0 1.32-2.627V11.082z" fill="#96BEDC"/>
    </g>
</svg>
