<?xml version="1.0" encoding="UTF-8"?>
<svg width="24px" height="25px" viewBox="0 0 24 25" version="1.1" xmlns="http://www.w3.org/2000/svg" xmlns:xlink="http://www.w3.org/1999/xlink">
    <title>5E81C933-2DF3-475A-8182-EDEE35FBCE21</title>
    <g id="Page-1" stroke="none" stroke-width="1" fill="none" fill-rule="evenodd" stroke-linecap="round" stroke-linejoin="round">
        <g id="Icons/3" transform="translate(-253.000000, -185.000000)" stroke="#000" stroke-width="1.5">
            <g id="Row" transform="translate(0.000000, 175.726562)">
                <g id="Icons/24/recovery/new" transform="translate(253.000000, 10.000000)">
                    <path d="M3.05,11.0879678 C3.51393705,6.53341749 7.32305859,3.05288362 11.9008782,3.00059623 C16.4786977,2.94830883 20.3663238,6.34093122 20.9341694,10.8836966 C21.5020151,15.426462 18.5691154,19.6716501 14.1192811,20.7478194 C9.66944673,21.8239888 5.12078214,19.3881782 3.55,15.0879678 M3.05,19.5 L3.05,15.0879678 L6.5,15.0879678" id="Shape"></path>
                    <g id="Icon" transform="translate(9.000000, 8.000000)">
                        <rect id="Rectangle" x="0" y="3.55555556" width="6.22222222" height="4.44444444" rx="0.888888889"></rect>
                        <circle id="Oval" cx="3.11111111" cy="5.77777778" r="1"></circle>
                        <path d="M1.33333333,3.55555556 L1.33333333,1.77777778 C1.33333333,0.795938223 2.12927156,0 3.11111111,0 C4.09295067,0 4.88888889,0.795938223 4.88888889,1.77777778 L4.88888889,3.55555556" id="Path"></path>
                    </g>
                </g>
            </g>
        </g>
    </g>
</svg>