<?xml version="1.0" encoding="UTF-8"?>
<svg width="24px" height="25px" viewBox="0 0 24 25" version="1.1" xmlns="http://www.w3.org/2000/svg" xmlns:xlink="http://www.w3.org/1999/xlink">
    <title>D71E8350-A5A4-4088-A1F9-4AC74D2FC231</title>
    <g id="Page-1" stroke="none" stroke-width="1" fill="none" fill-rule="evenodd" stroke-linecap="round" stroke-linejoin="round">
        <g id="Icons/1" transform="translate(-253.000000, -97.000000)" stroke="#000" stroke-width="1.5">
            <g id="Row" transform="translate(0.000000, 87.726562)">
                <g id="Icons/24/alert-triangle/new" transform="translate(253.000000, 10.000000)">
                    <g id="Group" transform="translate(2.992968, 2.968246)">
                        <path d="M9.00703187,6.03175416 L9.00703187,9.03175416 M9.00703187,11.9317542 L9.00703187,12.0317542" id="Combined-Shape"></path>
                        <path d="M2.00703187,16.0317542 L16.0070319,16.0317542 C16.6695667,16.0271065 17.2867997,15.6946509 17.6552406,15.143992 C18.0236815,14.593333 18.0955048,13.8959489 17.8470319,13.2817542 L10.7470319,1.03175416 C10.3947942,0.395122521 9.72461089,1.11910481e-12 8.99703187,1.11910481e-12 C8.26945285,1.11910481e-12 7.59926955,0.395122521 7.24703187,1.03175416 L0.147031871,13.2817542 C-0.0965721565,13.881489 -0.0348476552,14.5620379 0.312683243,15.1081578 C0.660214141,15.6542778 1.25056922,15.9984254 1.89703187,16.0317542" id="Path"></path>
                    </g>
                </g>
            </g>
        </g>
    </g>
</svg>