<?xml version="1.0" encoding="UTF-8"?>
<svg width="24px" height="25px" viewBox="0 0 24 25" version="1.1" xmlns="http://www.w3.org/2000/svg" xmlns:xlink="http://www.w3.org/1999/xlink">
    <title>1A620438-104E-4DF2-9314-5D744B35B5EB</title>
    <g id="Page-1" stroke="none" stroke-width="1" fill="none" fill-rule="evenodd" stroke-linecap="round" stroke-linejoin="round">
        <g id="Icons/1" transform="translate(-253.000000, -229.000000)" stroke="#000" stroke-width="1.5">
            <g id="Row" transform="translate(0.000000, 219.726562)">
                <g id="Icons/24/chart-pie/new" transform="translate(253.000000, 10.000000)">
                    <path d="M10,3.2 C10.2389803,3.17195215 10.4792406,3.24076837 10.6671337,3.39108287 C10.8550268,3.54139737 10.9749047,3.76069162 11,4 L11,4 L11,11 C11,12.1045695 11.8954305,13 13,13 L13,13 L19.8,13 C20.3522847,13 20.8,13.4477153 20.8,14 C19.7962094,18.3299828 15.7817702,21.2787419 11.3497669,20.9415578 C6.91776359,20.6043737 3.39562626,17.0822364 3.05844216,12.6502331 C2.72125805,8.21822983 5.67001725,4.20379065 10,3.2 Z M15,3.5 C17.5718058,4.40556339 19.5944366,6.42819424 20.5,9 L16,9 C15.4477153,9 15,8.55228475 15,8 L15,3.5 Z" id="Icon"></path>
                </g>
            </g>
        </g>
    </g>
</svg>