<svg xmlns="http://www.w3.org/2000/svg" width="24" height="24" viewBox="0 0 24 24">
    <g fill="none" fill-rule="evenodd">
        <g>
            <g>
                <g transform="translate(-20 -1466) translate(0 1450) translate(20 16)">
                    <rect width="24" height="24" fill="#A945FF" rx="12"/>
                    <path fill="#E7E7E7" d="M16.236 9.126c-.283-.16-.647-.16-.971 0l-2.266 1.322-1.538.841-2.226 1.322c-.283.16-.648.16-.971 0l-1.74-1.041c-.284-.16-.486-.481-.486-.842V8.726c0-.321.162-.641.485-.842l1.74-1.001c.284-.16.648-.16.972 0l1.74 1.041c.283.16.486.481.486.842v1.322l1.538-.882V7.844c0-.32-.162-.64-.486-.841L9.275 5.12c-.283-.16-.647-.16-.97 0l-3.32 1.923c-.323.16-.485.48-.485.801v3.766c0 .32.162.64.486.841l3.278 1.883c.283.16.647.16.971 0l2.226-1.282 1.538-.881 2.226-1.282c.283-.16.647-.16.97 0l1.741 1.001c.283.16.486.48.486.841v2.003c0 .32-.162.641-.486.842l-1.7 1.001c-.283.16-.647.16-.971 0l-1.74-1.001c-.283-.16-.486-.481-.486-.842v-1.281l-1.538.88v1.323c0 .32.162.64.486.841l3.278 1.883c.283.16.648.16.971 0l3.278-1.883c.284-.16.486-.48.486-.841V11.85c0-.32-.162-.64-.486-.841l-3.278-1.883z"/>
                </g>
            </g>
        </g>
    </g>
</svg>
