<svg width="24" height="24" viewBox="0 0 60 60" fill="none" xmlns="http://www.w3.org/2000/svg">
    <circle cx="30" cy="30" r="30" fill="#2D374B"/>
    <path d="M27.9997 8.52465C29.2375 7.82512 30.7627 7.82512 32.0005 8.52465L48.0004 17.567C49.2377 18.2663 50 19.5584 50 20.9568V39.0432C50 40.4416 49.2377 41.7337 48.0004 42.433L32.0005 51.4753C30.7627 52.1749 29.2375 52.1749 27.9997 51.4753L11.9998 42.433C10.7625 41.7337 10.0002 40.4416 10.0002 39.0432V20.9568C10.0002 19.5584 10.7625 18.2663 11.9998 17.567L27.9997 8.52465Z" fill="#96BEDC"/>
    <path d="M29.3998 10.8701C29.8124 10.6368 30.321 10.6368 30.7336 10.8701L46.5669 19.8209C46.9792 20.054 47.2332 20.4847 47.2332 20.9507V38.8535C47.2332 39.3196 46.9792 39.7503 46.5669 39.9834L30.7336 48.9342C30.321 49.1675 29.8124 49.1675 29.3998 48.9342L13.5665 39.9834C13.1542 39.7503 12.9001 39.3196 12.9001 38.8535V20.9507C12.9001 20.4847 13.1542 20.054 13.5665 19.8209L29.3998 10.8701Z" fill="#2D374B"/>
    <path d="M14.3908 43.7844L11.536 42.171C10.5869 41.6346 10 40.6288 10 39.5386L20.7252 23.4779C21.8949 21.7263 23.8887 20.6706 26.0268 20.6706H29.1165L14.3908 43.7844Z" fill="white"/>
    <path d="M21.2065 47.6363L16.072 44.7345L31.0332 20.6706H37.5165L21.2065 47.6363Z" fill="white"/>
    <path fill-rule="evenodd" clip-rule="evenodd" d="M42.0537 42.5347L36.363 45.7518L30.1665 36.2631L33.9665 30.0326L42.0537 42.5347ZM47.2332 36.0983V38.8536C47.2332 39.3196 46.9792 39.7503 46.5669 39.9834L43.6755 41.6179L35.0665 28.0917L38.3664 22.6768L47.2332 36.0983Z" fill="#28A0F0"/>
</svg>
