<svg version="1.1" id="Layer_1" xmlns="http://www.w3.org/2000/svg" xmlns:xlink="http://www.w3.org/1999/xlink" x="0px" y="0px"
	 width="24" height="24" viewBox="0 0 256 256" xml:space="preserve">
<path fill="#01A6C4" opacity="1.000000" stroke="none" 
	d="
M106.000000,1.000000 
	C120.687561,1.000000 135.375122,1.000000 150.287308,1.369975 
	C155.469604,3.073614 160.470337,4.266273 165.377747,5.764575 
	C190.999329,13.587216 212.431396,27.672352 229.196442,48.687130 
	C242.236160,65.032249 250.985931,83.371155 255.072311,103.918381 
	C255.229507,104.708778 256.335907,105.310410 257.000000,106.000000 
	C257.000000,120.687561 257.000000,135.375122 256.630005,150.287628 
	C254.924194,155.470779 253.725311,160.470734 252.229568,165.380234 
	C244.420593,191.011459 230.315308,212.431412 209.306946,229.199142 
	C192.966568,242.241150 174.626328,250.986938 154.080887,255.072601 
	C153.290741,255.229736 152.689346,256.335999 152.000000,257.000000 
	C137.312439,257.000000 122.624878,257.000000 107.712379,256.630005 
	C102.529251,254.924118 97.528954,253.726303 92.619934,252.229172 
	C66.993233,244.413605 45.566612,230.318970 28.800161,209.307251 
	C15.759915,192.965195 7.013770,174.625717 2.927449,154.080566 
	C2.770311,153.290512 1.664012,152.689240 0.999999,152.000000 
	C1.000000,137.312439 1.000000,122.624878 1.369794,107.712936 
	C3.075480,102.529663 4.273175,97.528633 5.770426,92.618950 
	C13.584572,66.995308 27.672771,45.568974 48.685238,28.805481 
	C65.023727,15.770832 83.353111,7.017431 103.891930,2.927421 
	C104.690880,2.768323 105.301582,1.663925 106.000000,1.000000 
M98.118820,213.429550 
	C137.740189,227.272385 178.866196,213.736740 201.330093,179.809509 
	C222.523087,147.801712 217.629105,106.489090 200.625717,84.849594 
	C198.742996,86.731117 196.891174,88.581764 195.116364,90.355453 
	C202.991791,105.592125 201.512985,118.798912 190.864120,130.125259 
	C179.668686,142.032990 166.477432,144.157486 148.662231,136.400345 
	C142.367905,142.899719 135.824310,149.656494 127.672539,158.073822 
	C121.707962,151.034119 116.048698,144.354767 110.572433,137.891403 
	C96.651718,147.056915 81.555206,146.019943 70.083145,135.508469 
	C55.970699,122.577675 54.466949,105.562233 63.553326,92.735680 
	C61.209198,90.123520 58.905869,87.556816 56.552483,84.934341 
	C27.981234,125.350807 41.642239,190.994385 98.118820,213.429550 
M70.440735,85.059578 
	C89.696793,104.601982 108.952858,124.144394 127.162598,142.624924 
	C151.929886,118.362549 175.861221,94.919090 199.787369,71.480690 
	C156.342804,23.340845 87.143867,33.359890 57.381065,72.625420 
	C61.515835,76.554283 65.728249,80.556923 70.440735,85.059578 
M71.854782,118.452438 
	C77.931564,130.301697 90.193657,133.681778 97.924446,126.508484 
	C89.942474,118.486008 81.937065,110.439972 73.858604,102.320518 
	C70.168243,106.646484 69.672592,111.974983 71.854782,118.452438 
M161.156250,124.746681 
	C161.317352,125.185890 161.347824,125.781479 161.658813,126.041252 
	C168.049881,131.379974 178.033936,130.042236 184.513885,123.014946 
	C190.607330,116.406769 190.832687,107.279266 184.836578,100.932632 
	C177.061539,108.662575 169.288940,116.390106 161.156250,124.746681 
z"/>

<path fill="#FDFEFF" opacity="1.000000" stroke="none" 
	d="
M97.761131,213.274994 
	C41.642239,190.994385 27.981234,125.350807 56.552483,84.934341 
	C58.905869,87.556816 61.209198,90.123520 63.553326,92.735680 
	C54.466949,105.562233 55.970699,122.577675 70.083145,135.508469 
	C81.555206,146.019943 96.651718,147.056915 110.572433,137.891403 
	C116.048698,144.354767 121.707962,151.034119 127.672539,158.073822 
	C135.824310,149.656494 142.367905,142.899719 148.662231,136.400345 
	C166.477432,144.157486 179.668686,142.032990 190.864120,130.125259 
	C201.512985,118.798912 202.991791,105.592125 195.116364,90.355453 
	C196.891174,88.581764 198.742996,86.731117 200.625717,84.849594 
	C217.629105,106.489090 222.523087,147.801712 201.330093,179.809509 
	C178.866196,213.736740 137.740189,227.272385 97.761131,213.274994 
z"/>
<path fill="#FAFDFE" opacity="1.000000" stroke="none" 
	d="
M70.190704,84.809570 
	C65.728249,80.556923 61.515835,76.554283 57.381065,72.625420 
	C87.143867,33.359890 156.342804,23.340845 199.787369,71.480690 
	C175.861221,94.919090 151.929886,118.362549 127.162598,142.624924 
	C108.952858,124.144394 89.696793,104.601982 70.190704,84.809570 
M106.555748,51.947952 
	C93.215004,55.554779 81.520348,62.063862 72.317841,70.517166 
	C91.629082,90.041138 110.664322,109.286064 128.760422,127.581512 
	C147.672562,109.112328 166.823044,90.410385 186.249771,71.438683 
	C162.749817,52.527390 137.022964,44.306759 106.555748,51.947952 
z"/>
<path fill="#FAFDFE" opacity="1.000000" stroke="none" 
	d="
M71.721771,118.090355 
	C69.672592,111.974983 70.168243,106.646484 73.858604,102.320518 
	C81.937065,110.439972 89.942474,118.486008 97.924446,126.508484 
	C90.193657,133.681778 77.931564,130.301697 71.721771,118.090355 
z"/>
<path fill="#FAFDFE" opacity="1.000000" stroke="none" 
	d="
M161.336288,124.432159 
	C169.288940,116.390106 177.061539,108.662575 184.836578,100.932632 
	C190.832687,107.279266 190.607330,116.406769 184.513885,123.014946 
	C178.033936,130.042236 168.049881,131.379974 161.658813,126.041252 
	C161.347824,125.781479 161.317352,125.185890 161.336288,124.432159 
z"/>
<path fill="#02A7C4" opacity="1.000000" stroke="none" 
	d="
M106.953079,51.843201 
	C137.022964,44.306759 162.749817,52.527390 186.249771,71.438683 
	C166.823044,90.410385 147.672562,109.112328 128.760422,127.581512 
	C110.664322,109.286064 91.629082,90.041138 72.317841,70.517166 
	C81.520348,62.063862 93.215004,55.554779 106.953079,51.843201 
z"/>
</svg>