<svg width="16" height="16" viewBox="0 0 16 16" xmlns="http://www.w3.org/2000/svg">
    <g fill-rule="nonzero" fill="none">
        <path d="m9.77 7.331 1.155-1.994 3.112 4.933.001.947-.01-6.514a.492.492 0 0 0-.223-.391l-5.602-3.28a.486.486 0 0 0-.478.031l-.02.013L2.27 4.283l-.022.01a.493.493 0 0 0-.28.417l.008 5.308 2.898-4.572c.365-.607 1.16-.802 1.898-.791l.866.023-5.103 8.331.601.353L8.3 4.686l2.283-.008-5.152 8.894 2.147 1.257.256.15a.485.485 0 0 0 .346.007l5.68-3.35-1.086.64L9.771 7.33zm.441 6.457-2.168-3.464 1.324-2.286 2.847 4.568-2.003 1.182z" fill="#2D374B"/>
        <path fill="#28A0F0" d="m8.043 10.324 2.168 3.464 2.003-1.182-2.847-4.568zM14.038 11.217l-.001-.947-3.112-4.933-1.154 1.994 3.003 4.945 1.086-.64a.493.493 0 0 0 .178-.357v-.062z"/>
        <path d="m1 12.11 1.534.9 5.103-8.332-.866-.023c-.738-.01-1.533.184-1.898.79l-2.898 4.573L1 11.543v.567zM10.582 4.678 8.3 4.686l-5.165 8.676L4.94 14.42l.491-.848z" fill="#FFF"/>
        <path d="M15 4.666a1.485 1.485 0 0 0-.682-1.19L8.643.154c-.4-.205-.901-.205-1.302 0-.048.024-5.52 3.254-5.52 3.254A1.476 1.476 0 0 0 1 4.663l.001 6.88.975-1.525-.009-5.308a.496.496 0 0 1 .201-.37c.026-.018 5.59-3.297 5.608-3.306a.486.486 0 0 1 .428-.002l5.602 3.28a.492.492 0 0 1 .223.39v6.577a.483.483 0 0 1-.168.356l-1.086.64-.56.331-2.003 1.182-2.03 1.198a.484.484 0 0 1-.347-.007l-2.403-1.407-.49.848L7.1 15.685a50.747 50.747 0 0 0 .343.195c.153.076.374.12.573.12.182 0 .36-.034.529-.101l5.9-3.478c.338-.267.537-.67.555-1.106V4.666z" fill="#96BEDC"/>
    </g>
</svg>
