<svg width="16" height="16" viewBox="0 0 16 16" xmlns="http://www.w3.org/2000/svg">
    <g fill="#FF884D" fill-rule="nonzero">
        <path d="M5.977 10.95 8 7.8l2.023 3.151L8 12.075zM8 6.537c1.158 0 2.096-.881 2.096-1.97 0-1.087-.938-1.969-2.096-1.969-1.158 0-2.097.882-2.097 1.97S6.842 6.538 8 6.538z"/>
        <path d="M8 4.18c-.982 0-1.941.271-2.76.78a4.78 4.78 0 0 0-1.843 2.082 4.436 4.436 0 0 0-.313 2.691 4.606 4.606 0 0 0 1.32 2.407L8 6.537l3.596 5.603a4.606 4.606 0 0 0 1.32-2.407 4.436 4.436 0 0 0-.313-2.691A4.78 4.78 0 0 0 10.76 4.96 5.233 5.233 0 0 0 8 4.18zM4.41 9.459a.49.49 0 0 1-.259-.074.446.446 0 0 1-.172-.197.415.415 0 0 1 .102-.479.495.495 0 0 1 .51-.095c.085.033.158.09.209.162a.42.42 0 0 1-.058.556.47.47 0 0 1-.331.129v-.002zM5.559 7.7a.489.489 0 0 1-.26-.074.446.446 0 0 1-.171-.197.414.414 0 0 1-.027-.253.431.431 0 0 1 .128-.225.495.495 0 0 1 .509-.095c.085.033.158.09.21.162a.42.42 0 0 1-.058.555.47.47 0 0 1-.331.129v-.002zm4.885 0a.489.489 0 0 1-.26-.074.446.446 0 0 1-.171-.197.414.414 0 0 1 .101-.478.495.495 0 0 1 .509-.095c.085.033.158.09.21.162a.42.42 0 0 1-.058.555.47.47 0 0 1-.33.129v-.002zM11.59 9.46a.49.49 0 0 1-.26-.074.446.446 0 0 1-.172-.197.415.415 0 0 1-.027-.254.432.432 0 0 1 .128-.225.496.496 0 0 1 .51-.095c.085.033.158.09.21.162a.42.42 0 0 1-.058.556.47.47 0 0 1-.331.129v-.002zM6.023 2.877a.489.489 0 0 1-.26-.073.446.446 0 0 1-.171-.197.414.414 0 0 1 .1-.478.495.495 0 0 1 .509-.095c.086.033.159.089.21.161a.42.42 0 0 1-.058.554.47.47 0 0 1-.33.128zM9.976 2.877a.489.489 0 0 1-.26-.074.446.446 0 0 1-.171-.197.414.414 0 0 1-.027-.253.431.431 0 0 1 .128-.225.495.495 0 0 1 .509-.095c.085.034.158.09.21.162a.42.42 0 0 1-.059.554.47.47 0 0 1-.33.128z"/>
        <path d="M5.98 11.636 8 12.776V14zM10.02 11.636 8 12.776V14z"/>
    </g>
</svg>
