<svg xmlns="http://www.w3.org/2000/svg" width="24" height="24" viewBox="0 0 24 24">
    <g fill="#000" fill-rule="evenodd">
        <path d="M9.934 6.988c.414.254.666.705.666 1.19l-.001 8.008H13.4V14.79c0-.387.313-.7.7-.7.387 0 .7.313.7.7v1.398c0 .772-.627 1.398-1.4 1.398h-2.801l.001.017c0 .772-.627 1.398-1.4 1.398-.271 0-.537-.079-.764-.227l-2.8-1.823C5.239 16.692 5 16.251 5 15.78V6.455c0-.644.436-1.187 1.03-1.349C6.137 5.04 6.264 5 6.4 5h7c.773 0 1.4.626 1.4 1.398v1.399c0 .386-.313.699-.7.699-.387 0-.7-.313-.7-.7V6.399H8.977l.957.59zM6.4 6.455v9.324l2.8 1.823V8.178L6.4 6.455zm9.702 2.203c.297-.247.738-.207.986.09l1.564 1.874c.203.07.348.263.348.49v.361c0 .227-.145.42-.347.49l-1.565 1.875c-.248.296-.69.337-.986.09-.297-.248-.337-.689-.09-.985l.793-.952h-4.286c-.287 0-.519-.231-.519-.518v-.361c0-.286.232-.519.519-.519h4.286l-.793-.95c-.223-.267-.212-.651.009-.905z" transform="translate(-277.000000, -739.000000) translate(20.000000, 714.000000) translate(257.000000, 25.000000)"/>
    </g>
</svg>
