<?xml version="1.0" encoding="UTF-8"?>
<svg width="24px" height="24px" viewBox="0 0 24 24" version="1.1"
    xmlns="http://www.w3.org/2000/svg"
    xmlns:xlink="http://www.w3.org/1999/xlink">
    <g stroke="none" stroke-width="1" fill="none" fill-rule="evenodd">
        <path d="M12,0 C18.627417,0 24,5.372583 24,12 C24,18.627417 18.627417,24 12,24 C5.372583,24 0,18.627417 0,12 C0,5.372583 5.372583,0 12,0 Z M15.3333333,14.0666667 C14.6337727,14.0666667 14.0666667,14.6337727 14.0666667,15.3333333 C14.0666667,16.032894 14.6337727,16.6 15.3333333,16.6 C16.032894,16.6 16.6,16.032894 16.6,15.3333333 C16.6,14.6337727 16.032894,14.0666667 15.3333333,14.0666667 Z M16.4242641,7.57573593 C16.1899495,7.34142136 15.8100505,7.34142136 15.5757359,7.57573593 L15.5757359,7.57573593 L7.57573593,15.5757359 L7.50630939,15.6588334 C7.34431413,15.8926752 7.36745631,16.2159844 7.57573593,16.4242641 C7.81005051,16.6585786 8.18994949,16.6585786 8.42426407,16.4242641 L8.42426407,16.4242641 L16.4242641,8.42426407 L16.4936906,8.3411666 C16.6556859,8.10732483 16.6325437,7.78401555 16.4242641,7.57573593 Z M8.66666667,7.4 C7.96710598,7.4 7.4,7.96710598 7.4,8.66666667 C7.4,9.36622735 7.96710598,9.93333333 8.66666667,9.93333333 C9.36622735,9.93333333 9.93333333,9.36622735 9.93333333,8.66666667 C9.93333333,7.96710598 9.36622735,7.4 8.66666667,7.4 Z" fill="#000"></path>
    </g>
</svg>