<?xml version="1.0" encoding="UTF-8"?>
<svg width="24px" height="25px" viewBox="0 0 24 25" version="1.1" xmlns="http://www.w3.org/2000/svg" xmlns:xlink="http://www.w3.org/1999/xlink">
    <title>8685035A-0C6C-4E96-991A-8848E9644C58</title>
    <g id="Page-1" stroke="none" stroke-width="1" fill="none" fill-rule="evenodd" stroke-linecap="round" stroke-linejoin="round">
        <g id="Icons/1" transform="translate(-253.000000, -537.000000)" stroke="#000" stroke-width="1.5">
            <g id="Row" transform="translate(0.000000, 527.726562)">
                <g id="Icons/24/dots/new" transform="translate(253.000000, 10.000000)">
                    <path d="M5,13 C5.55228475,13 6,13.4477153 6,14 C6,14.5522847 5.55228475,15 5,15 C4.44771525,15 4,14.5522847 4,14 C4,13.4477153 4.44771525,13 5,13 Z M12,13 C12.5522847,13 13,13.4477153 13,14 C13,14.5522847 12.5522847,15 12,15 C11.4477153,15 11,14.5522847 11,14 C11,13.4477153 11.4477153,13 12,13 Z M19,13 C19.5522847,13 20,13.4477153 20,14 C20,14.5522847 19.5522847,15 19,15 C18.4477153,15 18,14.5522847 18,14 C18,13.4477153 18.4477153,13 19,13 Z" id="Combined-Shape"></path>
                </g>
            </g>
        </g>
    </g>
</svg>