<svg width="38" height="40" viewBox="0 0 38 40" xmlns="http://www.w3.org/2000/svg">
    <g fill="#00A6C4" fill-rule="nonzero">
        <path d="m34.884 10.313-1.445 1.456c1.148 1.821 1.51 4.105.722 6.288-1.312 3.707-5.38 5.66-9.09 4.336-.525-.198-1.016-.43-1.444-.728L19 26.332l-4.037-4.105a7.322 7.322 0 0 1-6.53.827c-3.808-1.389-5.776-5.593-4.398-9.399.196-.595.492-1.126.82-1.62L3.116 10.28l-.327.562A19.226 19.226 0 0 0 0 20.804C-.033 31.361 8.5 40 18.967 40H19c10.467 0 18.968-8.572 19-19.13a19.36 19.36 0 0 0-2.757-9.962l-.36-.595z"/>
        <path d="M6.99 14.186a3.985 3.985 0 0 0-.787 2.383c0 2.151 1.739 3.905 3.872 3.905.887 0 1.707-.3 2.363-.828l-5.448-5.46zM25.99 19.314a3.74 3.74 0 0 0 2.166.66c2.134 0 3.872-1.753 3.872-3.904 0-.794-.23-1.556-.655-2.185l-5.383 5.429zM19.065 23.419 3.379 7.532l.624-.661C7.875 2.734 13.158.417 18.835.417h.033c5.742 0 11.257 2.482 15.095 6.784l.59.661L19.066 23.42zM5.94 7.532l13.127 13.272L32.028 7.797c-3.48-3.507-8.204-5.528-13.126-5.528h-.034c-4.89 0-9.45 1.855-12.928 5.263"/>
    </g>
</svg>
