<?xml version="1.0" encoding="UTF-8"?>
<svg width="24px" height="25px" viewBox="0 0 24 25" version="1.1" xmlns="http://www.w3.org/2000/svg" xmlns:xlink="http://www.w3.org/1999/xlink">
    <title>21D0E2BA-762C-4D01-A068-627495902541</title>
    <g id="Page-1" stroke="none" stroke-width="1" fill="none" fill-rule="evenodd" stroke-linecap="round" stroke-linejoin="round">
        <g id="Icons/3" transform="translate(-253.000000, -141.000000)" stroke="#000" stroke-width="1.5">
            <g id="Row" transform="translate(0.000000, 131.726562)">
                <g id="Icons/24/qrcode/new" transform="translate(253.000000, 10.000000)">
                    <path d="M17.002653,20 C16.1181052,20 15.7912835,20 14.022188,20 L14,20 L17.002653,20 Z" id="Path"></path>
                    <path d="M17,20 L17,18 C17,17.4477153 17.4477153,17 18,17 L20,17" id="Path" transform="translate(18.500000, 18.500000) rotate(-270.000000) translate(-18.500000, -18.500000) "></path>
                    <path d="M14,17 L14,15 C14,14.4477153 14.4477153,14 15,14 L17,14" id="Path"></path>
                    <path d="M9,14 C9.55228475,14 10,14.4477153 10,15 L10,19 C10,19.5522847 9.55228475,20 9,20 L5,20 C4.44771525,20 4,19.5522847 4,19 L4,15 C4,14.4477153 4.44771525,14 5,14 L9,14 Z M9,4 C9.55228475,4 10,4.44771525 10,5 L10,9 C10,9.55228475 9.55228475,10 9,10 L5,10 C4.44771525,10 4,9.55228475 4,9 L4,5 C4,4.44771525 4.44771525,4 5,4 L9,4 Z M19,4 C19.5522847,4 20,4.44771525 20,5 L20,9 C20,9.55228475 19.5522847,10 19,10 L15,10 C14.4477153,10 14,9.55228475 14,9 L14,5 C14,4.44771525 14.4477153,4 15,4 L19,4 Z M7,17 L7,17.01 M7,7 L7,7.01 M17,7 L17,7.01 M20,14 L20,14.01" id="Combined-Shape"></path>
                </g>
            </g>
        </g>
    </g>
</svg>