<svg xmlns="http://www.w3.org/2000/svg" width="16" height="16" viewBox="0 0 16 16">
    <g fill="none" fill-rule="evenodd" fill="#000">
        <path d="M3.333 11.5c.645 0 1.167.522 1.167 1.167 0 .644-.522 1.166-1.167 1.166-.644 0-1.166-.522-1.166-1.166 0-.645.522-1.167 1.166-1.167zM8 11.5c.644 0 1.167.522 1.167 1.167 0 .644-.523 1.166-1.167 1.166s-1.167-.522-1.167-1.166c0-.645.523-1.167 1.167-1.167zm4.667 0c.644 0 1.166.522 1.166 1.167 0 .644-.522 1.166-1.166 1.166-.645 0-1.167-.522-1.167-1.166 0-.645.522-1.167 1.167-1.167zM3.333 6.833C3.978 6.833 4.5 7.356 4.5 8s-.522 1.167-1.167 1.167c-.644 0-1.166-.523-1.166-1.167s.522-1.167 1.166-1.167zm4.667 0c.644 0 1.167.523 1.167 1.167S8.644 9.167 8 9.167 6.833 8.644 6.833 8 7.356 6.833 8 6.833zm4.667 0c.644 0 1.166.523 1.166 1.167s-.522 1.167-1.166 1.167c-.645 0-1.167-.523-1.167-1.167s.522-1.167 1.167-1.167zM3.333 2.167c.645 0 1.167.522 1.167 1.166 0 .645-.522 1.167-1.167 1.167-.644 0-1.166-.522-1.166-1.167 0-.644.522-1.166 1.166-1.166zm4.667 0c.644 0 1.167.522 1.167 1.166C9.167 3.978 8.644 4.5 8 4.5s-1.167-.522-1.167-1.167c0-.644.523-1.166 1.167-1.166zm4.667 0c.644 0 1.166.522 1.166 1.166 0 .645-.522 1.167-1.166 1.167-.645 0-1.167-.522-1.167-1.167 0-.644.522-1.166 1.167-1.166z" transform="translate(-20.000000, -512.000000) translate(0.000000, 196.000000) translate(0.000000, 292.000000) translate(20.000000, 19.000000) translate(0.000000, 5.000000)"/>
    </g>
</svg>
