<?xml version="1.0" encoding="UTF-8"?>
<svg width="24px" height="24px" viewBox="0 0 24 24" version="1.1"
    xmlns="http://www.w3.org/2000/svg"
    xmlns:xlink="http://www.w3.org/1999/xlink">
    <g stroke="none" stroke-width="1" fill="none" fill-rule="evenodd">
        <path d="M12,0 C18.627417,0 24,5.372583 24,12 C24,18.627417 18.627417,24 12,24 C5.372583,24 0,18.627417 0,12 C0,5.372583 5.372583,0 12,0 Z M7.50377868,6.45280108 C7.20980753,6.22906321 6.7884079,6.251437 6.51992245,6.51992245 C6.22702923,6.81281566 6.22702923,7.2876894 6.51992245,7.58058262 L6.51992245,7.58058262 L10.9393398,12 L6.51992245,16.4194174 L6.45280108,16.4962213 C6.22906321,16.7901925 6.251437,17.2115921 6.51992245,17.4800776 C6.81281566,17.7729708 7.2876894,17.7729708 7.58058262,17.4800776 L7.58058262,17.4800776 L12,13.0606602 L16.4194174,17.4800776 L16.4962213,17.5471989 C16.7901925,17.7709368 17.2115921,17.748563 17.4800776,17.4800776 C17.7729708,17.1871843 17.7729708,16.7123106 17.4800776,16.4194174 L17.4800776,16.4194174 L13.0606602,12 L17.4800776,7.58058262 L17.5471989,7.50377868 C17.7709368,7.20980753 17.748563,6.7884079 17.4800776,6.51992245 C17.1871843,6.22702923 16.7123106,6.22702923 16.4194174,6.51992245 L16.4194174,6.51992245 L12,10.9393398 L7.58058262,6.51992245 Z" fill="#000"></path>
    </g>
</svg>