<svg width="16" height="16" viewBox="0 0 16 16" xmlns="http://www.w3.org/2000/svg">
    <g fill-rule="nonzero" fill="none">
        <path d="m10.52 8.76-1.678 1.648a.361.361 0 0 0 0 .509l1.28 1.258c.214.211.575.211.79 0l3.927-3.794a.538.538 0 0 0 0-.768l-3.926-3.788a.574.574 0 0 0-.792 0L8.842 5.083a.361.361 0 0 0 0 .509L10.52 7.24a1.044 1.044 0 0 1 0 1.518z" fill="#0A6E5C"/>
        <path d="m5.48 8.76 1.678 1.648c.14.143.14.366 0 .509l-1.28 1.258a.574.574 0 0 1-.79 0L1.16 8.381a.538.538 0 0 1 0-.768l3.926-3.788a.574.574 0 0 1 .792 0l1.279 1.258c.14.137.14.366 0 .509L5.48 7.24a1.044 1.044 0 0 0 0 1.518z" fill="#21BF73"/>
        <path d="M5.923 8.307a.435.435 0 0 1 0-.626l1.76-1.724a.458.458 0 0 1 .64 0l1.76 1.724a.435.435 0 0 1 0 .626l-1.76 1.723a.458.458 0 0 1-.64 0l-1.76-1.723z" fill="#21BF73"/>
    </g>
</svg>
