<svg width="38" height="38" viewBox="0 0 38 38" xmlns="http://www.w3.org/2000/svg">
    <g fill="none" fill-rule="evenodd">
        <rect fill="#8247E5" width="38" height="38" rx="19"/>
        <path d="M25.707 14.45c-.448-.254-1.025-.254-1.537 0l-3.589 2.093-2.435 1.332-3.524 2.093c-.448.254-1.025.254-1.538 0l-2.755-1.65a1.543 1.543 0 0 1-.77-1.331v-3.172c0-.507.257-1.014.77-1.332l2.755-1.585c.449-.254 1.025-.254 1.538 0l2.755 1.649c.449.254.77.761.77 1.332v2.093l2.434-1.395V12.42c0-.507-.256-1.015-.769-1.332l-5.126-2.981c-.448-.254-1.025-.254-1.538 0L7.894 11.15c-.513.254-.769.762-.769 1.269v5.962c0 .508.256 1.015.769 1.332l5.19 2.981c.449.254 1.025.254 1.538 0l3.524-2.03 2.435-1.395 3.525-2.03c.448-.253 1.025-.253 1.537 0l2.756 1.586c.448.254.769.761.769 1.332v3.172c0 .507-.257 1.014-.77 1.331l-2.69 1.586c-.45.254-1.026.254-1.538 0l-2.756-1.586a1.543 1.543 0 0 1-.769-1.331V21.3l-2.435 1.395v2.093c0 .508.257 1.015.77 1.332l5.19 2.981c.448.254 1.025.254 1.537 0l5.19-2.98c.45-.254.77-.762.77-1.333v-6.025c0-.508-.257-1.015-.77-1.332l-5.19-2.981z" fill="#FFF"/>
    </g>
</svg>
