<?xml version="1.0" encoding="UTF-8"?>
<svg width="24px" height="25px" viewBox="0 0 24 25" version="1.1" xmlns="http://www.w3.org/2000/svg" xmlns:xlink="http://www.w3.org/1999/xlink">
    <title>B7E88D56-1092-4A3E-9A1A-ECE7BCC18884</title>
    <g id="Page-1" stroke="none" stroke-width="1" fill="none" fill-rule="evenodd" stroke-linecap="round" stroke-linejoin="round">
        <g id="Icons/3" transform="translate(-253.000000, -449.000000)" stroke="#000" stroke-width="1.5">
            <g id="Row" transform="translate(0.000000, 439.726562)">
                <g id="Icons/24/thumb-up/new" transform="translate(253.000000, 10.000000)">
                    <path d="M7,11 L7,19 C7,19.5522847 6.55228475,20 6,20 L4,20 C3.44771525,20 3,19.5522847 3,19 L3,12 C3,11.4477153 3.44771525,11 4,11 L7,11 C9.209139,11 10.5,8 11.5,6.5 C12.5,5 13,3.5 14.5,4 C16,4.5 13.5,10 14.5,10 C15.1666667,10 16.3333333,10 18,10 C19.1045695,10 20,11 20,13 C20,14.3333333 19.6666667,16 19,18 C18.7045612,19.2602591 17.5,20 16,20 L6,20" id="Path"></path>
                </g>
            </g>
        </g>
    </g>
</svg>