<?xml version="1.0" encoding="UTF-8"?>
<svg width="24px" height="25px" viewBox="0 0 24 25" version="1.1" xmlns="http://www.w3.org/2000/svg" xmlns:xlink="http://www.w3.org/1999/xlink">
    <title>97738164-4961-4C84-B7AF-9F69352F7317</title>
    <g id="Page-1" stroke="none" stroke-width="1" fill="none" fill-rule="evenodd" stroke-linecap="round" stroke-linejoin="round">
        <g id="Icons/1" transform="translate(-253.000000, -53.000000)" stroke="#000" stroke-width="1.5">
            <g id="Row" transform="translate(0.000000, 43.726562)">
                <g id="Icons/24/add/new" transform="translate(253.000000, 10.000000)">
                    <path d="M9,14.2825 C13.8125,14.2825 16,15.6256458 16,17.2825 C16,18.9393542 13.8125,20.2825 9,20.2825 C4.1875,20.2825 2,18.9393542 2,17.2825 C2,15.6256458 4.1875,14.2825 9,14.2825 Z M9,3.72 C11.209139,3.72 13,5.510861 13,7.72 C13,9.929139 11.209139,11.72 9,11.72 C6.790861,11.72 5,9.929139 5,7.72 C5,5.510861 6.790861,3.72 9,3.72 Z M16,12 L22,12 M19,9 L19,15" id="Combined-Shape"></path>
                </g>
            </g>
        </g>
    </g>
</svg>