<?xml version="1.0" encoding="UTF-8"?>
<svg width="24px" height="25px" viewBox="0 0 24 25" version="1.1" xmlns="http://www.w3.org/2000/svg" xmlns:xlink="http://www.w3.org/1999/xlink">
    <title>0EB8C4C2-EAE7-4E1E-96BF-1E64D88A2EDD</title>
    <g id="Page-1" stroke="none" stroke-width="1" fill="none" fill-rule="evenodd" stroke-linecap="round" stroke-linejoin="round">
        <g id="Icons/1" transform="translate(-253.000000, -185.000000)" stroke="#000" stroke-width="1.5">
            <g id="Row" transform="translate(0.000000, 175.726562)">
                <g id="Icons/24/briefcase/new" transform="translate(253.000000, 10.000000)">
                    <g id="Icon" transform="translate(3.000000, 2.500000)">
                        <path d="M18,13 L18,14.5 C18,16.5 16.5,18.5 14.5,18.5 L3.5,18.5 C1.5,18.5 0,16.5 0,14.5 L0,13" id="Path"></path>
                        <path d="M5,2.5 L5,2 C5,1.17157288 6.0954305,0.5 7.2,0.5 L10.8,0.5 C11.9045695,0.5 13,1.17157288 13,2 L13,2.5" id="Path"></path>
                        <line x1="9" y1="11.3" x2="9" y2="13.21" id="Path"></line>
                        <path d="M0,5 C0,3.8954305 0.8954305,3 2,3 L16,3 C17.1045695,3 18,3.8954305 18,5 L18,9 L17.6211187,9.18594543 C12.0427466,11.8511632 5.53515249,11.7891814 0,9 L0,9 L0,5 Z" id="Combined-Shape"></path>
                    </g>
                </g>
            </g>
        </g>
    </g>
</svg>