<svg width="38" height="38" viewBox="0 0 38 38" xmlns="http://www.w3.org/2000/svg">
    <g fill-rule="nonzero" fill="none">
        <circle fill="#FF0420" cx="19" cy="19" r="19"/>
        <path d="M13.456 24.039a4.565 4.565 0 0 1-2.78-.799 2.73 2.73 0 0 1-1.069-2.309c.005-.258.029-.515.072-.77.123-.684.3-1.506.527-2.465.646-2.613 2.314-3.92 5.003-3.92a4.973 4.973 0 0 1 1.967.37 2.99 2.99 0 0 1 1.368 1.084c.341.504.516 1.102.499 1.71a5.073 5.073 0 0 1-.072.756 32.45 32.45 0 0 1-.513 2.466c-.332 1.302-.907 2.276-1.724 2.922-.817.636-1.91.955-3.278.955zm.2-2.053c.493.014.975-.154 1.354-.47.419-.38.704-.885.812-1.44.219-.893.385-1.672.499-2.337a3.27 3.27 0 0 0 .057-.613c0-.865-.452-1.298-1.354-1.297a2.081 2.081 0 0 0-1.369.47 2.67 2.67 0 0 0-.798 1.44 30.912 30.912 0 0 0-.513 2.337 3.051 3.051 0 0 0-.057.599c0 .874.456 1.311 1.369 1.311zM19.7 23.896a.302.302 0 0 1-.243-.1.343.343 0 0 1-.043-.256l1.967-9.265a.408.408 0 0 1 .156-.257.436.436 0 0 1 .271-.1H25.6a4.407 4.407 0 0 1 2.537.656 2.15 2.15 0 0 1 .97 1.896c-.002.25-.031.498-.087.742a3.86 3.86 0 0 1-1.44 2.423c-.712.522-1.69.784-2.935.784H22.72l-.656 3.121a.408.408 0 0 1-.156.257.436.436 0 0 1-.27.1h-1.94zm5.045-5.445c.374.008.74-.107 1.04-.327a1.54 1.54 0 0 0 .6-.941c.026-.141.04-.284.042-.428a.792.792 0 0 0-.242-.627 1.195 1.195 0 0 0-.827-.228h-1.71l-.542 2.551h1.64z" fill="#FFF"/>
    </g>
</svg>
