<svg width="16" height="16" viewBox="0 0 16 16" xmlns="http://www.w3.org/2000/svg">
    <g fill="none" fill-rule="evenodd">
        <circle fill="#F3BA2F" fill-rule="nonzero" cx="8" cy="8" r="8"/>
        <path d="M6.058 7.451 8 5.51l1.943 1.942 1.13-1.13L8 3.25 4.928 6.322l1.13 1.13zM3 8.25l1.13-1.13 1.13 1.13-1.13 1.13L3 8.248zm3.058.798L8 10.988l1.943-1.942 1.13 1.129L8 13.248l-3.072-3.072-.002-.001 1.132-1.128zm4.682-.798 1.13-1.13L13 8.25l-1.13 1.13-1.13-1.13zm-1.594 0h.001L8 9.397 6.854 8.25l-.001-.002.001-.002.201-.2.097-.098L8 7.102l1.147 1.146z" fill="#FCFDFF"/>
    </g>
</svg>
