<?xml version="1.0" encoding="UTF-8"?>
<svg width="24px" height="24px" viewBox="0 0 24 24" version="1.1" xmlns="http://www.w3.org/2000/svg" xmlns:xlink="http://www.w3.org/1999/xlink">
    <title>iconWalletConnect</title>
    <g id="iconWalletConnect" stroke="none" stroke-width="1" fill="none" fill-rule="evenodd">
        <g id="Icon">
            <rect id="Safe-zone" opacity="0" x="0" y="0" width="24" height="24"></rect>
            <rect id="Safe-Zone" fill="#3D99FC" x="0" y="0" width="24" height="24" rx="12"></rect>
            <path d="M7.67317157,8.95382538 C10.2008883,6.34872487 14.299127,6.34872487 16.8268437,8.95382538 L17.1310585,9.26735339 C17.2574443,9.3976084 17.2574443,9.60879353 17.1310585,9.73904861 L16.0904004,10.8115655 C16.0272074,10.8766931 15.9247515,10.8766931 15.8615585,10.8115655 L15.4429229,10.3801137 C13.6795245,8.56273043 10.8204908,8.56273043 9.05709237,10.3801137 L8.60876818,10.842163 C8.54557521,10.9072905 8.44311923,10.9072905 8.37992636,10.842163 L7.33926826,9.76964609 C7.21288242,9.63939102 7.21288242,9.42820589 7.33926826,9.29795087 L7.67317157,8.95382538 Z M18.9790229,11.1719037 L19.9052106,12.1264491 C20.0315958,12.2567035 20.0315966,12.4678874 19.9052122,12.5981427 L15.7289678,16.9023064 C15.6025829,17.0325623 15.397671,17.0325638 15.2712843,16.9023097 C15.2712837,16.9023092 15.2712831,16.9023085 15.2712826,16.902308 L12.3072384,13.8475177 C12.275642,13.814954 12.224414,13.814954 12.1928175,13.8475177 C12.1928173,13.847518 12.1928171,13.8475182 12.1928169,13.8475183 L9.22883589,16.9023064 C9.10245132,17.0325627 8.89753935,17.0325648 8.77115225,16.9023111 C8.77115151,16.9023103 8.77115072,16.9023096 8.77114993,16.9023087 L4.59478934,12.5980878 C4.46840355,12.4678328 4.46840355,12.2566477 4.59478934,12.1263927 L5.52097873,11.1718489 C5.64736452,11.0415938 5.85227648,11.0415938 5.97866232,11.1718489 L8.94274964,14.2266818 C8.97434612,14.2592456 9.02557404,14.2592456 9.05717052,14.2266818 C9.057171,14.2266813 9.05717142,14.2266809 9.05717189,14.2266805 L12.0211107,11.1718489 C12.1474936,11.0415908 12.3524056,11.041586 12.4787943,11.171838 C12.4787961,11.1718398 12.4787978,11.1718416 12.4787995,11.1718435 L15.4428829,14.2266805 C15.4744794,14.2592442 15.5257074,14.2592442 15.5573038,14.2266805 L18.5213393,11.1719037 C18.6477252,11.0416486 18.8526371,11.0416486 18.9790229,11.1719037 Z" id="WalletConnect" fill="#FFFFFF" fill-rule="nonzero"></path>
        </g>
    </g>
</svg>