<?xml version="1.0" encoding="UTF-8"?>
<svg width="24px" height="25px" viewBox="0 0 24 25" version="1.1" xmlns="http://www.w3.org/2000/svg" xmlns:xlink="http://www.w3.org/1999/xlink">
    <title>A0884C89-BF59-42B1-BC7D-4AFDACD73147</title>
    <g id="Page-1" stroke="none" stroke-width="1" fill="none" fill-rule="evenodd" stroke-linecap="round" stroke-linejoin="round">
        <g id="Icons/3" transform="translate(-253.000000, -493.000000)" stroke="#000" stroke-width="1.5">
            <g id="Row" transform="translate(0.000000, 483.726562)">
                <g id="Icons/24/user/new" transform="translate(253.000000, 10.000000)">
                    <path d="M12,14.2825 C16.8125,14.2825 19,15.6256458 19,17.2825 C19,18.9393542 16.8125,20.2825 12,20.2825 C7.1875,20.2825 5,18.9393542 5,17.2825 C5,15.6256458 7.1875,14.2825 12,14.2825 Z M12,3.72 C14.209139,3.72 16,5.510861 16,7.72 C16,9.929139 14.209139,11.72 12,11.72 C9.790861,11.72 8,9.929139 8,7.72 C8,5.510861 9.790861,3.72 12,3.72 Z" id="Combined-Shape"></path>
                </g>
            </g>
        </g>
    </g>
</svg>