<svg width="16" height="16" viewBox="0 0 16 16" xmlns="http://www.w3.org/2000/svg">
    <path d="M11.667 2h-.93c0 1.389-1.127 2.517-2.526 2.54h-.088C6.723 4.518 5.596 3.39 5.596 2h-.93c0 1.283.707 2.402 1.756 3a3.452 3.452 0 0 0-1.755 3c0 1.283.706 2.402 1.755 3a3.452 3.452 0 0 0-1.755 3h.93c0-1.39 1.127-2.518 2.527-2.54h.086c1.4.022 2.527 1.15 2.527 2.54h.93a3.452 3.452 0 0 0-1.755-3 3.452 3.452 0 0 0 1.755-3 3.452 3.452 0 0 0-1.755-3 3.452 3.452 0 0 0 1.755-3zm-.93 6c0 1.39-1.127 2.518-2.527 2.54h-.086c-1.4-.022-2.528-1.15-2.528-2.54 0-1.389 1.127-2.517 2.527-2.54h.088C9.61 5.482 10.737 6.61 10.737 8z" fill="#59C7F2" fill-rule="nonzero"/>
</svg>
