<svg width="16" height="16" viewBox="0 0 16 16" xmlns="http://www.w3.org/2000/svg">
    <g fill="none" fill-rule="evenodd">
        <path d="M0 0h16v16H0z"/>
        <path d="M11.685 3C14.068 3 16 5.018 16 7.508S14.068 12 11.685 12H4.3C1.916 12 0 9.998 0 7.508S1.916 3 4.3 3h7.385zm-3.07 4.508c0 1.79 1.356 3.19 3.07 3.19 1.712 0 3.068-1.4 3.068-3.19s-1.37-3.206-3.069-3.206c-1.713 0-3.069 1.432-3.069 3.206zm-1.23 0a4.63 4.63 0 0 1 1.261-3.206h-.654c-1.714 0-3.069 1.432-3.069 3.206s1.293 3.125 2.945 3.19h.779a4.589 4.589 0 0 1-1.263-3.19zm-6.154 0c0 1.774 1.355 3.19 3.069 3.19h.654a4.59 4.59 0 0 1-1.262-3.19 4.63 4.63 0 0 1 1.262-3.206H4.3c-1.714 0-3.07 1.432-3.07 3.206z" fill="#FFF" fill-rule="nonzero"/>
    </g>
</svg>
