<?xml version="1.0" encoding="UTF-8"?>
<svg width="191px" height="319px" viewBox="0 0 191 319" version="1.1" xmlns="http://www.w3.org/2000/svg" xmlns:xlink="http://www.w3.org/1999/xlink">
    <title>Background</title>
    <g id="Background" stroke="none" stroke-width="1" fill="none" fill-rule="evenodd">
        <g id="Info"></g>
        <path d="M247.031106,72.7977471 C249.739329,72.8794095 250.160104,74.3761067 249.2451,76.8458821 C247.640627,81.1794679 244.229506,84.7605818 241.495248,88.0805035 C237.4888,92.9444435 233.274195,97.5824717 229.042547,102.190343 C224.8109,106.798214 220.521052,111.351573 216.289042,115.965057 C213.491183,119.007989 210.083032,122.010715 208.043001,125.761736 C201.507844,137.779907 193.071904,149.118534 185.325078,160.257391 C174.003566,176.534248 162.339902,192.674893 149.155748,207.015131 C142.086684,214.702526 133.171997,225.190225 122.464497,226.742965 C118.549815,227.310978 113.962374,225.646992 109.93768,225.052419 C104.387992,224.232692 98.8405172,223.580679 93.2976063,222.919281 L87.2335057,222.201083 C78.1369279,221.123823 69.0381073,220.024641 59.9326947,218.605435 C54.5735848,217.769419 49.0041336,216.165981 43.6649946,215.810562 C40.5443875,215.601849 37.8708921,217.626931 35.2577727,218.950688 C29.2051391,222.018032 23.2402704,225.264002 17.2489922,228.453337 L13.8652091,230.253498 C7.6574993,233.549911 1.41780777,236.802377 -5.00881583,239.637952 C-8.43484296,241.148439 -16.402009,245.756313 -19.9293146,243.06815 C-21.8278926,241.620053 -21.071305,237.059477 -20.7191804,234.948344 C-20.0739179,231.069303 -18.9920524,227.340494 -17.9282748,223.65278 C-15.4682003,215.124334 -12.5452918,206.732073 -11.0035052,197.768139 C-10.212224,193.160539 -9.03191451,187.431633 -12.8246136,183.413828 C-16.6542391,179.355179 -21.3487897,176.483706 -25.2613394,172.483685 C-29.7648345,167.881018 -33.2392402,162.526308 -36.8757554,157.114734 C-39.5645578,153.115631 -42.9235861,150.027836 -46.2606521,146.741095 C-49.9484451,143.108032 -53.7123601,139.465103 -57.0114681,135.358662 C-59.1911412,132.646309 -62.9733927,127.701878 -61.2486181,124.536967 C-58.7989793,120.037898 -50.7534765,119.004306 -46.1167401,117.831051 C-39.7095704,116.207825 -33.2020705,114.911598 -26.7600777,113.404591 C-22.0826692,112.312167 -17.3502648,111.299337 -12.970212,109.383898 C-5.90929408,106.296374 0.824605458,102.446844 7.53565678,98.6569595 C19.9623119,91.6393572 32.129765,84.307148 45.0682894,78.273815 C56.4038658,72.9879489 90.0475283,76.7454084 97.4907353,76.6985033 C112.347806,76.6056747 127.394219,76.0689169 142.459309,78.138112 C146.535604,78.6995507 152.614327,79.145571 156.204023,82.5395046 C158.417158,84.6302185 158.641137,86.3311811 161.810731,86.8654305 C166.134969,87.59431 170.740893,86.5243322 174.83416,85.8440118 C181.426054,84.7479415 187.947171,83.3818578 194.494408,82.1197205 C207.732878,79.5591453 221.071962,77.425232 234.383794,75.149796 C238.40792,74.4617982 242.826634,72.6644174 247.031106,72.7977471 Z M63.1464865,82.1833702 C60.5701693,80.6791078 58.0946165,80.6342102 55.3708765,81.7062503 C50.6205456,83.5779395 46.1755695,86.2866408 41.6815513,88.6984063 C29.5083324,95.2216266 17.6065947,102.301472 5.35576176,108.66464 C-4.05225203,113.549547 -13.8350788,116.032625 -24.1715228,118.475859 C-30.395203,119.946156 -36.6780166,121.276858 -42.8044585,123.057959 C-45.821714,123.941612 -53.5933058,125.167031 -54.4105206,129.218588 C-55.1155604,132.730862 -51.3709006,136.577643 -49.123374,138.86938 C-45.4640834,142.590616 -41.3714128,145.739081 -37.3369929,148.832941 C-33.6692905,151.645353 -29.7682939,154.258124 -26.4781691,157.699054 C-22.7847318,161.560635 -19.4403002,165.91385 -15.9176063,169.974977 C-13.10356,173.216346 -9.14191151,176.981931 -8.19405148,181.466016 C-7.08312022,186.728083 -8.23684743,192.570105 -9.18254876,197.372064 C-10.2451911,202.797901 -11.7015073,208.047128 -13.1786107,213.283974 L-14.0643842,216.42591 C-14.505535,217.997449 -14.9418448,219.57083 -15.3632455,221.150487 C-16.0377143,223.680006 -20.2320897,237.294203 -16.6188627,238.832812 C-12.4777131,240.595867 -6.19322729,236.794986 -2.31813461,235.040696 C4.63461313,231.893064 11.3472731,228.217778 18.0229469,224.514312 C23.8079724,221.304297 29.5545265,218.021367 35.3092645,214.752791 C38.5046316,212.937512 41.8311322,210.26884 45.4321804,209.361899 C49.9611121,208.220339 55.4463003,209.407538 60.1972644,209.988599 C69.1589956,211.068279 78.1226825,212.339656 87.0883252,213.80273 C91.4438142,214.513693 95.8160066,215.260476 100.163219,216.273297 C103.975854,217.159262 107.565523,218.503527 111.337366,218.087503 C121.909817,216.920643 131.065806,209.027895 138.745305,202.165256 C151.823181,190.473998 163.383291,176.697647 174.401491,162.612518 C183.012295,151.610596 191.977399,140.269023 199.081836,127.967119 C202.785876,121.553671 207.542699,116.173824 212.204148,110.602232 C217.375596,104.411238 224.235262,97.9254422 227.289015,89.7946447 C229.212009,84.676013 224.874899,84.804125 221.181587,85.6420073 L220.837436,85.7224998 C219.356113,86.079111 218.016648,86.5294628 217.281929,86.769364 C206.182991,90.3803857 195.012919,93.4649197 183.44348,95.6290855 C178.330289,96.5851878 173.14471,97.4787402 167.85287,97.6713932 C165.111455,97.772274 160.6576,98.2246791 158.113457,95.8114147 C156.185136,93.9740969 155.598703,91.7672529 153.17043,90.3247856 C148.817727,87.737307 143.623538,87.0431201 139.059344,86.3767837 C126.177401,84.4940747 113.325136,84.3922901 100.568134,84.2624836 L97.5083158,84.2298658 L95.9798416,84.2114168 C89.4840004,84.1296517 82.9887808,84.0875724 76.471277,83.8251163 C72.2908519,83.6557757 66.6638379,84.2354906 63.1464865,82.1833702 Z M70.0980517,92.9350157 C73.5105144,94.2283708 77.6390629,93.9922374 81.2827626,94.1273305 C85.5810462,94.2858194 89.8685896,94.3363905 94.1535895,94.3724121 L99.2948929,94.4146298 C111.853268,94.5309813 124.481343,94.4896501 137.170965,96.0360901 C142.963002,96.7405133 152.334489,97.1382919 156.549614,103.42927 C158.069825,105.697522 158.841911,106.623775 161.45102,107.099797 C165.154131,107.775037 168.902303,107.110326 172.385491,106.42767 C180.505697,104.836364 187.870099,101.073913 195.968321,99.4674589 C199.270452,98.8220615 203.873772,98.6058298 202.18785,103.811432 C200.225192,109.895352 195.57443,114.90511 192.074405,119.730228 C190.326679,122.138093 188.468961,124.495651 186.974916,127.137182 C185.829534,129.169829 185.09361,131.434257 183.86871,133.39876 C176.983533,144.517563 168.260493,154.485033 159.744619,164.100094 C149.410744,175.767545 138.467212,186.975454 126.18765,196.121316 C118.472959,201.86496 109.692872,207.608309 99.8475793,208.632485 C95.4974257,209.08561 91.0311954,207.856445 86.5727603,206.567168 L85.3571098,206.215275 C83.331658,205.630366 81.3101434,205.063506 79.3041995,204.667041 C72.4839901,203.319059 65.5642165,202.295081 58.7573612,201.925995 C54.5328139,201.697097 50.0458858,201.574221 46.3935973,203.567587 C37.5125024,208.412827 29.0155913,214.053157 20.1670806,218.993871 C14.3155137,222.266768 8.41486298,225.466399 2.28502599,228.190537 C-1.41098056,229.834187 -6.32142679,232.450526 -10.6616586,231.615196 C-14.6441553,230.847648 -9.28786069,209.304 -6.98499302,200.09282 L-6.82401283,199.448896 C-6.43572623,197.895109 -6.15691964,196.770167 -6.06073871,196.269494 C-4.45354175,187.900314 -2.84646551,177.03845 -7.87202466,168.545561 C-12.6768384,160.426876 -19.2665841,155.765698 -26.4784399,151.011813 C-30.5753532,148.305041 -42.7667836,141.655105 -42.2997108,135.432231 C-42.0335592,131.875615 -36.3676375,130.421868 -33.8025134,129.459765 C-28.7473485,127.563316 -23.5162371,126.114573 -18.3339322,124.557966 C-10.7805829,122.282152 -2.77249343,120.472808 4.5502154,117.622395 C9.6488274,115.636745 14.425933,112.884834 19.3788585,110.564362 C26.4811238,107.238008 33.6195232,103.989143 40.7634817,100.7522 C46.7621783,98.0347876 52.7499697,95.1628088 59.0224652,93.0869519 C62.9198869,91.7920502 66.1758441,91.4475739 70.0980517,92.9350157 Z M73.1783719,102.90547 C70.4202901,102.874951 67.7272693,103.514237 65.1257903,104.145389 C57.8796358,105.903994 50.8612236,108.41294 43.8539337,110.840321 C31.1416886,115.242371 18.3807321,119.265234 5.47495314,123.057387 C-0.348923592,124.767445 -5.70918354,128.516322 -11.2640195,130.924729 C-15.0239973,132.559829 -18.8576947,134.078366 -22.4734874,136.022672 C-24.3703638,137.043592 -28.0523551,138.622323 -28.1310206,141.328643 C-28.2846608,146.24128 -18.2806319,150.952792 -14.8681103,153.089545 C-14.6527555,153.224537 -14.4373713,153.359985 -14.2221971,153.496086 L-13.5775442,153.906545 C-8.53645048,157.140232 -3.74359776,160.843149 -2.30677587,167.568996 C-0.397201535,176.51329 -0.385803607,184.836956 -1.68164295,193.379207 C-2.20417552,196.823525 -7.81946965,221.402846 -2.97977066,222.032104 C0.6365583,222.500769 4.87767995,220.804978 8.14991424,219.446417 C13.3263746,217.299921 18.3038472,214.691556 23.2248261,212.013151 C31.3832192,207.573548 39.392855,202.886277 47.2537334,197.951338 C54.2643989,193.547433 62.7554072,194.250785 71.2067211,196.194715 C76.8042667,197.478063 81.817621,199.783067 87.4350796,199.371329 C96.317395,198.719244 104.471977,194.580267 111.809689,190.018402 C122.438434,183.416345 132.069174,175.057391 141.130896,166.161792 C149.287225,158.148479 157.445966,149.673947 164.145269,140.126876 C165.672812,137.94336 166.712295,136.134733 167.393317,133.496691 C167.801709,131.922335 168.504293,130.563594 169.237108,129.196212 C171.261629,125.420673 173.890357,121.883494 175.268383,117.638353 C177.200073,111.670134 171.871952,111.60729 167.09527,112.317474 L166.66919,112.383002 C164.477536,112.730832 162.45385,113.211353 161.371848,113.316198 C159.834313,113.465774 157.557112,113.920253 156.104026,112.561056 C154.842822,111.383349 154.676443,109.991541 153.043031,108.916473 C147.637243,105.357805 140.080112,105.459233 134.467087,105.097837 C123.795581,104.411062 113.206613,104.62963 102.635581,104.765273 C94.6838574,104.867028 85.9595704,106.040091 77.970561,104.138819 C76.294254,103.738433 74.9521746,102.92396 73.1783719,102.90547 Z M147.967129,113.440269 C152.014013,114.70523 150.434293,116.384756 150.060536,119.494903 C149.868852,121.081285 150.61044,122.210675 150.927407,123.757894 C151.379795,125.966847 150.705799,128.023396 150.047678,129.896318 C149.141552,132.482595 147.513044,135.024209 147.110428,137.8644 C146.967861,138.864688 147.435111,139.805889 147.342251,140.663093 C147.073314,143.159353 144.398645,145.576556 143.072456,147.172377 C128.970668,164.139934 110.491027,179.836991 90.2516864,187.903107 C83.5205378,190.584073 75.8817471,192.618217 68.1962475,190.97343 C63.6624479,189.999108 59.6493685,188.384102 55.1969281,189.344828 C51.9828802,190.038744 49.2039655,192.248397 46.4076614,193.882982 C42.357749,196.251108 38.2859006,198.578595 34.1790606,200.840644 C29.0850348,203.639329 23.9369638,206.366928 18.6041936,208.679232 C14.7933725,210.330892 9.65156678,212.870261 5.23470657,211.932247 C-0.037313109,210.815274 3.47217768,192.406575 3.72521706,189.300035 C4.33847715,181.770702 4.02528977,174.898655 1.53996004,167.32812 C0.81833478,165.121175 0.670676524,162.582999 -0.421519685,160.528871 C-1.53949579,158.432261 -3.51980004,157.024807 -5.31235347,155.802316 C-7.65881701,154.198622 -14.6656888,151.067402 -14.6213424,147.756596 C-14.5962676,145.928158 -11.9780099,144.478334 -10.7229075,143.50792 C-8.37010404,141.684092 -5.85055945,140.118609 -3.42475708,138.409713 C-2.0534439,137.442034 -0.78023152,136.273224 0.476128163,135.069815 L1.72987947,133.861041 C3.820133,131.847754 5.93880323,129.892553 8.46203878,128.766414 C20.673588,123.311886 35.1034924,122.156887 48.1529411,119.133045 L49.8156682,118.746725 L53.1412822,117.967105 C59.2400053,116.536436 65.3541849,115.124516 71.5787442,114.164706 C74.0855823,113.778766 76.6690659,113.384336 79.27554,113.496959 C81.0943524,113.575373 82.667279,114.493327 84.4206444,114.713081 C91.1464127,115.560927 98.052135,114.758824 104.662736,114.357767 C113.247298,113.842872 121.816022,113.229991 130.436601,112.923577 C135.839926,112.731216 142.425914,111.707592 147.967129,113.440269 Z M138.151754,124.768818 C143.705789,116.245278 126.320318,118.044231 123.140989,118.278256 C110.926684,119.177891 98.6807259,122.422129 86.3620457,121.525823 C84.919787,121.420533 83.740549,120.67465 82.3372175,120.294961 C80.0866885,119.683341 77.6601266,119.911642 75.4797341,120.028787 C68.2998103,120.416375 61.2475074,121.624051 54.2788955,122.921733 C40.896513,125.412845 27.1104773,128.255746 14.8420226,133.9473 C11.7673755,135.374005 8.55230952,137.02042 6.22969424,139.67003 C4.79967467,141.30369 4.01260115,143.478972 2.72296142,145.250715 C1.49587999,146.928734 0.131429329,148.465841 -1.35638994,149.846263 C-2.27366995,150.69744 -3.87287671,151.504952 -3.91320354,152.846789 C-3.97404565,154.812456 -0.388003691,156.406037 0.943111085,157.889821 C2.01794393,159.086024 2.49527531,160.502691 3.22920219,161.936007 C4.07695058,163.607024 5.19585101,164.875363 6.21676405,166.42565 C9.55266714,171.496155 9.99489676,177.65612 10.1761936,183.298054 C10.1794805,183.401156 10.1815859,183.513116 10.1827094,183.633341 L10.1833342,184.018228 C10.163482,188.239446 9.39203682,199.837421 13.8190957,201.226732 C17.0599403,202.239802 20.9653473,200.814863 23.8678098,199.792181 C28.2092647,198.263864 32.3752754,196.279422 36.4919404,194.243479 C42.2446742,191.399191 47.8206939,188.124813 53.7103883,185.571043 C56.2489281,184.470901 58.5604983,184.945015 61.3811442,185.021818 C67.5845595,185.198624 73.5502345,183.814327 79.177979,181.791609 C95.3520236,175.976012 110.256231,165.305948 122.429427,153.096117 C123.847537,151.673371 126.717895,149.562527 127.37158,147.344038 C127.904919,145.503338 127.381976,146.519565 127.138896,145.109975 C126.779004,142.98975 127.184776,141.559285 127.932303,139.711393 C130.381804,133.636881 134.777989,129.947655 138.151754,124.768818 Z M124.632185,130.672448 C123.415307,133.686672 121.211119,135.833972 118.943817,137.936402 L118.092425,138.724316 C115.965575,140.696871 113.88479,142.720304 112.611582,145.471969 C112.296977,146.162279 111.899367,146.998205 111.932843,147.861428 C111.954934,148.376614 112.653457,149.051126 112.631747,149.360234 C112.457444,152.690476 107.61238,155.466194 105.690394,157.038317 C90.5511403,169.43066 72.452747,178.123763 53.1889209,182.379056 C49.9517444,183.094909 46.8860221,184.386362 43.8479137,185.709501 L42.3304947,186.371193 C41.3195282,186.810724 40.3089663,187.243702 39.2934814,187.649984 C34.8550669,189.429727 27.3924056,193.513028 22.3594695,190.925777 C18.7103747,189.050438 18.2718068,181.653495 17.5947623,177.968252 C16.732229,173.273228 15.6676947,168.50388 11.9821951,165.272001 C9.82362921,163.379315 7.33068642,161.782077 5.10644027,159.947198 C4.04350132,159.071151 2.13140669,157.860825 2.09523038,156.578471 C2.05292249,155.026206 3.77636703,153.318068 5.22922365,151.871233 L5.61721854,151.483434 C5.99544478,151.10274 6.33977525,150.744303 6.60890177,150.416585 C10.9101033,145.180059 16.4594532,141.767882 22.389885,139.025546 C33.3434976,133.959956 45.1869281,130.655194 57.0678717,128.122983 C62.5342179,126.958372 68.1046878,125.83762 73.786976,125.594297 C77.0020705,125.455905 79.9946998,126.686045 83.1632512,126.765056 C93.3672417,127.022546 103.292698,125.074217 113.474563,124.912574 C116.421892,124.866427 127.22419,124.250577 124.632185,130.672448 Z M66.7336967,133.001087 C62.7016462,133.035696 58.7377397,133.927607 54.9029586,134.7921 C45.6319747,136.892534 36.5512354,139.833416 27.9490038,143.71717 C22.3941983,146.223612 17.097511,149.229132 12.2570183,153.023959 C10.7248455,154.223044 6.86139275,156.310637 6.94896747,158.135409 C7.00007405,159.208351 9.62648395,160.59618 12.2719691,161.777865 L12.8382192,162.027738 C14.7204822,162.848864 16.5193205,163.545827 17.3031641,163.928744 C20.4180005,165.447763 22.1715528,167.70905 23.7042194,171.146426 C25.1003049,174.281293 26.533346,180.013329 29.2118144,181.877937 C32.7966917,184.372927 38.2698247,182.380081 41.8305668,181.488514 C45.1396992,180.659619 48.3634892,180.147445 51.7423229,179.70508 C57.2409932,178.981109 62.4465748,176.090949 67.322241,173.755444 C76.2421766,169.483053 85.0805074,164.917132 93.2085851,159.334215 C97.6759388,156.267237 101.944055,153.548229 103.931287,147.891959 C105.102334,144.572986 109.16493,141.419645 108.916375,137.398052 C108.650819,133.070313 102.235719,133.014168 99.1111884,133.021757 L98.7720325,133.022662 C98.5559765,133.023145 98.3606926,133.023087 98.1902389,133.020679 C90.3586854,132.91587 82.6629766,133.999349 74.8793284,133.939612 C72.162124,133.920416 69.4495752,132.978998 66.7336967,133.001087 Z M84.5303613,141.429276 C87.6347391,141.507883 92.1164344,141.381591 94.9159262,144.015982 C95.9903805,145.024825 97.9426642,147.954466 97.9686241,149.45223 C98.0001549,151.252274 95.825167,153.03594 94.8379962,153.962656 C92.3629165,156.280057 89.5235084,158.170296 86.7447867,159.970535 C80.2069676,164.206015 73.250827,167.968734 66.1655015,171.298082 C61.5928427,173.44668 56.7976413,175.775272 51.7196988,176.616953 C49.1692978,177.040401 46.521901,176.483747 43.8964651,176.430426 C41.1935824,176.376924 37.5964495,176.587979 35.4918699,174.55688 C33.5142342,172.648061 32.2658247,169.09984 30.1738254,166.661816 C28.3159485,164.499345 26.1389966,163.64347 23.7821951,162.69543 C22.2789787,162.087959 14.9636751,159.835315 15.0798836,158.530765 C15.2048035,157.133231 18.3370012,155.781548 19.8742824,154.879598 C24.1063756,152.387234 28.4894377,150.177999 33.0045576,148.261424 C39.1738817,145.660462 45.5787067,143.443296 52.2045684,142.095763 C56.9042009,141.138317 61.2184983,142.066417 65.9852828,141.999549 C72.1634101,141.918795 78.3003271,141.271095 84.5303613,141.429276 Z M83.6232603,149.149673 C77.7029858,148.150418 71.8706478,148.311546 66.0875731,148.582351 L64.2629314,148.670288 L62.4412943,148.758164 C60.92444,148.829326 59.4104334,148.892765 57.8985698,148.929332 C54.6822801,149.016072 51.2677778,148.228903 48.0877967,148.58132 C44.14885,149.025097 40.3575251,150.278856 36.6938049,151.589802 C33.5075608,152.730973 30.364317,154.021657 27.3205604,155.493859 C26.0499334,156.108242 24.0682012,156.747907 23.6380581,157.81819 C23.2306918,158.832269 28.7474656,160.874471 29.6553525,161.293471 C31.2654201,162.034126 32.9320201,162.857815 34.438702,163.927464 C36.4751045,165.375484 37.7638921,167.719106 39.4601888,169.402298 C42.7382003,172.659841 47.6110837,173.897388 51.6081946,173.218635 C61.5002708,171.541361 70.9021208,165.919201 79.0843354,160.645149 C81.6132083,159.01739 87.4346588,156.291864 88.2639209,152.58863 C88.9317819,149.615216 85.4789896,149.462169 83.6232603,149.149673 Z M74.5055758,153.783076 C78.6117038,154.665003 76.7950262,157.16197 74.3851406,159.212151 L74.1152051,159.438005 C72.6654178,160.631639 71.0766335,161.64156 70.4579328,162.038706 C64.6248652,165.779937 57.9039461,169.393785 50.8491851,170.579457 C47.2768852,171.180564 43.60428,170.675038 40.5816841,167.79136 C39.9072212,167.149599 39.2897897,166.446586 38.6841189,165.728739 L37.9600617,164.863173 C36.8737517,163.563056 35.7668757,162.275036 34.3754152,161.269823 C34.1497445,161.107307 33.7912978,160.881898 33.3943018,160.620983 L33.0907991,160.419067 C32.0135479,159.692056 30.832989,158.76756 31.2534881,158.140944 C32.5790151,156.155772 37.3089858,155.523637 40.1490046,154.916346 C44.4261381,154.008298 48.8149487,155.003715 53.1768758,154.773158 C59.867162,154.418344 67.5683171,152.304757 74.5055758,153.783076 Z" id="Combined-Shape" stroke="#FCFDFF" stroke-width="1.6" opacity="0.1" transform="translate(93.998149, 158.342194) rotate(88.000000) translate(-93.998149, -158.342194) "></path>
    </g>
</svg>