<?xml version="1.0" encoding="UTF-8"?>
<svg width="56px" height="16px" viewBox="0 0 56 16" version="1.1" xmlns="http://www.w3.org/2000/svg" xmlns:xlink="http://www.w3.org/1999/xlink">
    <g stroke="none" stroke-width="1" fill="none" fill-rule="evenodd">
        <g id="Navbar-Copy" transform="translate(-160.000000, -64.000000)">
            <g id="Pillar-Logo" transform="translate(160.000000, 64.000000)">
                <path d="M44.978195,5.42995041 C46.5948033,5.42995041 47.4031074,6.47769917 47.6276364,6.88185124 L47.7174479,6.88185124 L47.7174479,5.62448926 L48.9149884,5.62448926 L48.9149884,12.0009521 C48.9149884,12.2403967 49.0646215,12.3601983 49.3042248,12.3601983 L49.6634711,12.3601983 L49.6634711,13.4079471 L48.9000727,13.4079471 C48.256476,13.4079471 47.7774281,12.9288992 47.7625124,12.2554711 L47.7625124,12.1805752 L47.6727008,12.1805752 C47.478162,12.4949157 46.7596694,13.6026446 45.0681653,13.6026446 C42.8377917,13.6026446 41.2660893,11.9111405 41.2660893,9.53129256 C41.2660893,7.13637025 42.7628959,5.42995041 44.978195,5.42995041 Z M19.4577455,2.93030083 C21.3587041,2.93030083 22.6609719,4.17258843 22.6609719,6.07370579 C22.6609719,7.95974876 21.2988826,9.26201653 19.4577455,9.26201653 L17.2124562,9.26201653 L17.2124562,13.4082645 L16,13.4082645 L16,2.93030083 L19.4577455,2.93030083 Z M26.9566942,5.62448926 L26.9566942,13.4079471 L25.7742281,13.4079471 L25.7742281,6.62733223 L24.3072529,6.62733223 L24.3072529,5.62448926 L26.9566942,5.62448926 Z M32.449957,2.18181818 L32.449957,12.3901884 L34.0216595,12.3901884 L34.0216595,13.4079471 L29.6957884,13.4079471 L29.6957884,12.3901884 L31.2674909,12.3901884 L31.2674909,3.19973554 L29.6957884,3.19973554 L29.6957884,2.18181818 L32.449957,2.18181818 Z M38.4221091,2.18181818 L38.4221091,12.3901884 L39.9938116,12.3901884 L39.9938116,13.4079471 L35.6679405,13.4079471 L35.6679405,12.3901884 L37.239643,12.3901884 L37.239643,3.19973554 L35.6679405,3.19973554 L35.6679405,2.18181818 L38.4221091,2.18181818 Z M55.9499636,5.42995041 L55.9499636,6.61241653 L55.2463868,6.61241653 C53.8243174,6.61241653 53.2407008,7.76489256 53.2407008,9.24678347 L53.2407008,13.4079471 L52.0582347,13.4079471 L52.0582347,5.62448926 L53.2257851,5.62448926 L53.2257851,6.92675702 L53.3155967,6.92675702 C53.5401256,6.26808595 54.303524,5.42995041 55.4410843,5.42995041 L55.9499636,5.42995041 Z M45.1129124,6.50768926 C43.5861157,6.50768926 42.4785455,7.76505124 42.4785455,9.54620826 C42.4785455,11.3573554 43.6310215,12.5398215 45.1279868,12.5398215 C46.7595107,12.5398215 47.7623537,11.1777322 47.7623537,9.54620826 C47.7623537,7.6152595 46.5649719,6.50768926 45.1129124,6.50768926 Z M19.3528595,4.00788099 L17.2124562,4.00788099 L17.2124562,8.18396033 L19.3528595,8.18396033 C20.6102215,8.18411901 21.4185256,7.28600331 21.4185256,6.07354711 C21.4185256,4.87600661 20.6102215,4.00788099 19.3528595,4.00788099 Z M26.3580033,2.49615868 C26.8668826,2.49615868 27.2261289,2.87032066 27.2261289,3.3493686 C27.2261289,3.84333223 26.8668826,4.21749421 26.3580033,4.21749421 C25.8640397,4.21749421 25.5047934,3.84333223 25.5047934,3.3493686 C25.5047934,2.87032066 25.8640397,2.49615868 26.3580033,2.49615868 Z" id="Combined-Shape" fill="#000"></path>
                <path d="M7.97142857,1.70530257e-13 L10.9606857,2.98925714 L10.9606857,12.9536 L2.98925714,12.9536 L2.98925714,15.9428571 L-3.00204306e-13,12.9536 L-3.00204306e-13,9.96434286 L7.97142857,9.96434286 L7.97142857,1.70530257e-13 Z M3.98571429,1.99291429 L3.98571429,5.97862857 L-4.53193039e-13,5.97862857 L-4.53193039e-13,1.99291429 L3.98571429,1.99291429 Z" id="Combined-Shape" fill="#7501D9"></path>
            </g>
        </g>
    </g>
</svg>