<?xml version="1.0" encoding="UTF-8"?>
<svg width="17px" height="25px" viewBox="0 0 17 25" version="1.1" xmlns="http://www.w3.org/2000/svg" xmlns:xlink="http://www.w3.org/1999/xlink">
    <!-- Generator: Sketch 50.2 (55047) - http://www.bohemiancoding.com/sketch -->
    <title>EOS</title>
    <desc>Created with Sketch.</desc>
    <defs></defs>
    <g id="Page-1" stroke="none" stroke-width="1" fill="none" fill-rule="evenodd">
        <g id="Artboard" transform="translate(-184.000000, -317.000000)">
            <g id="EOS" transform="translate(176.000000, 313.000000)">
                <path d="M31.9684776,16.0793473 C31.9684776,24.8720239 24.8407562,31.9997453 16.0480796,31.9997453 C7.25540299,31.9997453 0.127681592,24.8720239 0.127681592,16.0793473 C0.127681592,7.28667065 7.25540299,0.158949254 16.0480796,0.158949254 C24.8407562,0.158949254 31.9684776,7.28667065 31.9684776,16.0793473 Z" id="Fill-626"></path>
                <path d="M11.0539184,12.9934889 L12.1658882,16.4017962 L9.0589974,21.831406 L11.0539184,12.9934889 Z M20.8340497,16.4017962 L21.9461617,12.9934889 L23.9409405,21.831406 L20.8340497,16.4017962 Z M20.5770257,17.1896873 L24.2768629,23.6555944 L17.0476376,28.007082 L20.5770257,17.1896873 Z M15.9524425,28.007082 L8.72307505,23.6555944 L12.4229122,17.1896873 L15.9524425,28.007082 Z M16.50004,10.0646139 L20.1650482,16.4697617 L16.50004,27.7028622 L12.8348898,16.4697617 L16.50004,10.0646139 Z M16.1924074,9.3651768 L12.5778658,15.6818706 L11.3407958,11.8900739 L16.1924074,5.24754137 L16.1924074,9.3651768 Z M16.8076727,5.24754137 L21.6592843,11.8900739 L20.4220721,15.6818706 L16.8076727,9.3651768 L16.8076727,5.24754137 Z M24.9924926,23.6960063 L22.3004226,11.7694034 C22.2911822,11.7287089 22.2738388,11.6904164 22.2492452,11.6567869 L16.7491031,4.12618127 C16.6911021,4.04691174 16.5985564,4 16.50004,4 C16.4015237,4 16.3088358,4.04691174 16.250977,4.12618127 L10.7508349,11.6567869 C10.7262413,11.6904164 10.7087557,11.7287089 10.6995154,11.7694034 L8.00744529,23.6960063 C7.97858695,23.8243071 8.0353085,23.9565643 8.14832512,24.0246711 L16.3405373,28.9559143 C16.3442335,28.9580338 16.3480718,28.9595881 16.3517679,28.9615663 C16.3570278,28.9643923 16.3622877,28.9672183 16.3678319,28.9697617 C16.3763615,28.9738594 16.384891,28.9773919 16.3938471,28.9806418 C16.3992491,28.98262 16.404509,28.9845983 16.4100532,28.9862939 C16.4198622,28.9892612 16.429529,28.9913807 16.4394802,28.9933589 C16.4444558,28.994348 16.4494313,28.995761 16.4544069,28.9964675 C16.4694758,28.9987283 16.484829,29 16.50004,29 C16.5152511,29 16.5304621,28.9987283 16.545531,28.9964675 C16.5506487,28.995761 16.5554822,28.994348 16.5604577,28.9933589 C16.5704089,28.9913807 16.5802179,28.9892612 16.5898847,28.9862939 C16.5954289,28.9845983 16.600831,28.98262 16.6063752,28.9806418 C16.6150469,28.9773919 16.6237186,28.9738594 16.6322482,28.9697617 C16.6376502,28.9672183 16.6429101,28.9643923 16.6483122,28.9615663 C16.6518661,28.9595881 16.6557044,28.9580338 16.6594006,28.9559143 L24.851755,24.0246711 C24.9647716,23.9565643 25.0214931,23.8243071 24.9924926,23.6960063 Z" id="Fill-628" fill="#FFFFFF"></path>
            </g>
        </g>
    </g>
</svg>