<?xml version="1.0" encoding="UTF-8"?>
<svg width="20px" height="18px" viewBox="0 0 20 18" version="1.1" xmlns="http://www.w3.org/2000/svg" xmlns:xlink="http://www.w3.org/1999/xlink">
    <!-- Generator: Sketch 50.2 (55047) - http://www.bohemiancoding.com/sketch -->
    <title>PLR</title>
    <desc>Created with Sketch.</desc>
    <defs></defs>
    <g id="Page-1" stroke="none" stroke-width="1" fill="none" fill-rule="evenodd">
        <g id="Artboard" transform="translate(-105.000000, -320.000000)">
            <g id="PLR" transform="translate(99.000000, 313.000000)">
                <path d="M32,16 C32,24.83664 24.83648,32 16,32 C7.16336,32 0,24.83664 0,16 C0,7.16336 7.16336,0 16,0 C24.83648,0 32,7.16336 32,16" id="Fill-130"></path>
                <path d="M8.84473514,20.7415131 L8.75288649,20.7415131 L8.75288649,24.627176 L6.57148108,24.627176 L6.57148108,11.4710652 L8.70696216,11.4710652 L8.70696216,12.0763566 L8.78988108,12.0763566 C9.53487568,11.3594966 10.4839784,11.3402607 11.0146595,11.3402607 C13.2445405,11.3402607 14.7090162,13.4767341 14.7090162,16.3300674 L14.7090162,16.7006801 C14.7090162,19.6707116 13.0149189,21.4404195 10.9776649,21.4404195 C10.0234595,21.4404195 9.31545946,21.2211296 8.84473514,20.7415131 Z M12.6832432,16.8750861 L12.6832432,16.2274757 C12.6832432,14.3692824 11.9803459,13.1240749 10.7225297,13.1240749 C9.36393514,13.1240749 8.63807568,14.5706187 8.63807568,16.2249109 L8.63807568,16.8686742 C8.63807568,18.4485873 9.35500541,19.6566052 10.7595243,19.6566052 C11.8642595,19.6566052 12.6832432,18.7897049 12.6832432,16.8750861 Z" id="Shape" fill="#FFFFFF" fill-rule="nonzero"></path>
                <polygon id="Shape" fill="#FFFFFF" fill-rule="nonzero" points="15.7997189 7.52512959 17.9811243 7.52512959 17.9811243 21.3147446 15.7997189 21.3147446"></polygon>
                <path d="M24.1707027,13.5434187 C22.9409514,13.5434187 21.7214054,14.52317 21.7214054,15.7606831 C21.7214054,16.6045004 21.7214054,21.322439 21.7214054,21.322439 L19.54,21.322439 L19.54,11.4620884 L21.5593946,11.4620884 L21.5593946,12.0673798 L21.6423135,12.0673798 C22.1334486,11.5492914 23.3338595,11.305636 24.3199568,11.3184599 C24.4181838,11.3197423 24.3378162,11.3210247 24.4322162,11.3210247 L24.4424216,13.5395715 L24.1707027,13.5434187 Z" id="Shape" fill="#FFFFFF" fill-rule="nonzero"></path>
                <rect id="Rectangle-path" fill="#FFFFFF" fill-rule="nonzero" x="23.2509405" y="18.9609036" width="2.18140541" height="2.36089288"></rect>
            </g>
        </g>
    </g>
</svg>