<?xml version="1.0" encoding="UTF-8"?>
<svg width="24px" height="20px" viewBox="0 0 24 20" version="1.1" xmlns="http://www.w3.org/2000/svg" xmlns:xlink="http://www.w3.org/1999/xlink">
    <!-- Generator: Sketch 50.2 (55047) - http://www.bohemiancoding.com/sketch -->
    <title>QTUM</title>
    <desc>Created with Sketch.</desc>
    <defs></defs>
    <g id="Page-1" stroke="none" stroke-width="1" fill="none" fill-rule="evenodd">
        <g id="Artboard" transform="translate(-231.000000, -319.000000)">
            <g id="QTUM" transform="translate(227.000000, 313.000000)">
                <path d="M32,16 C32,24.83664 24.83664,32 16,32 C7.16352,32 0,24.83664 0,16 C0,7.16336 7.16352,0 16,0 C24.83664,0 32,7.16336 32,16" id="Fill-678"></path>
                <g transform="translate(4.800000, 6.400000)" fill="#FFFFFF">
                    <path d="M7.23619319,18.6178809 L12.9071052,18.6178809 L17.4947487,15.2441068 L19.2471476,9.78501463 L17.4947487,4.32592248 L12.9071052,0.952148331 L7.23619319,0.952148331 L2.64844398,4.32592248 L0.896045098,9.78501463 L2.64844398,15.2441068 L7.23619319,18.6178809 Z M13.0081299,18.932882 L7.13506277,18.932882 L7.09416677,18.9029329 L2.38362389,15.4386694 L0.568665749,9.78501463 L2.38362389,4.13135982 L7.13506277,0.637147227 L13.0081299,0.637147227 L17.7595688,4.13135982 L19.574527,9.78501463 L17.7595688,15.4386694 L13.0081299,18.932882 Z" id="Fill-706"></path>
                    <path d="M7.78464342,0.794722652 C7.78464342,1.17464928 7.48040677,1.48259094 7.10494556,1.48259094 C6.7296957,1.48259094 6.42535338,1.17464928 6.42535338,0.794722652 C6.42535338,0.414796022 6.7296957,0.106747403 7.10494556,0.106747403 C7.48040677,0.106747403 7.78464342,0.414796022 7.78464342,0.794722652" id="Fill-708"></path>
                    <path d="M13.6216016,0.794722652 C13.6216016,1.17464928 13.3172593,1.48259094 12.9419038,1.48259094 C12.5666539,1.48259094 12.2623116,1.17464928 12.2623116,0.794722652 C12.2623116,0.414796022 12.5666539,0.106747403 12.9419038,0.106747403 C13.3172593,0.106747403 13.6216016,0.414796022 13.6216016,0.794722652" id="Fill-710"></path>
                    <path d="M7.83277812,18.6719392 C7.83277812,19.0518658 7.52854147,19.3598075 7.15308026,19.3598075 C6.7778304,19.3598075 6.47348807,19.0518658 6.47348807,18.6719392 C6.47348807,18.2920126 6.7778304,17.9839639 7.15308026,17.9839639 C7.52854147,17.9839639 7.83277812,18.2920126 7.83277812,18.6719392" id="Fill-712"></path>
                    <path d="M3.16318407,15.3486722 C3.16318407,15.7285988 2.85894742,16.0365405 2.48359189,16.0365405 C2.10823635,16.0365405 1.80389403,15.7285988 1.80389403,15.3486722 C1.80389403,14.9687455 2.10823635,14.6606969 2.48359189,14.6606969 C2.85894742,14.6606969 3.16318407,14.9687455 3.16318407,15.3486722" id="Fill-714"></path>
                    <path d="M1.41203215,9.78501463 C1.41203215,10.1649413 1.10768982,10.4728829 0.732334288,10.4728829 C0.357084428,10.4728829 0.0527421023,10.1649413 0.0527421023,9.78501463 C0.0527421023,9.405088 0.357084428,9.09703938 0.732334288,9.09703938 C1.10768982,9.09703938 1.41203215,9.405088 1.41203215,9.78501463" id="Fill-716"></path>
                    <path d="M3.16318407,4.2462149 C3.16318407,4.62614152 2.85894742,4.93419014 2.48359189,4.93419014 C2.10823635,4.93419014 1.80389403,4.62614152 1.80389403,4.2462149 C1.80389403,3.86628827 2.10823635,3.55834661 2.48359189,3.55834661 C2.85894742,3.55834661 3.16318407,3.86628827 3.16318407,4.2462149" id="Fill-718"></path>
                    <path d="M18.7296811,9.77257503 C18.7296811,10.1525017 19.0339178,10.4604433 19.4092733,10.4604433 C19.7846288,10.4604433 20.0889712,10.1525017 20.0889712,9.77257503 C20.0889712,9.3926484 19.7846288,9.08459978 19.4092733,9.08459978 C19.0339178,9.08459978 18.7296811,9.3926484 18.7296811,9.77257503" id="Fill-720"></path>
                    <path d="M16.9784658,4.23377529 C16.9784658,4.61370192 17.2827024,4.92164358 17.6581636,4.92164358 C18.0334135,4.92164358 18.3377558,4.61370192 18.3377558,4.23377529 C18.3377558,3.85384866 18.0334135,3.54590701 17.6581636,3.54590701 C17.2827024,3.54590701 16.9784658,3.85384866 16.9784658,4.23377529" id="Fill-722"></path>
                    <path d="M13.6696941,18.6719392 C13.6696941,19.0518658 13.3654574,19.3598075 12.9901019,19.3598075 C12.6147463,19.3598075 12.310404,19.0518658 12.310404,18.6719392 C12.310404,18.2920126 12.6147463,17.9839639 12.9901019,17.9839639 C13.3654574,17.9839639 13.6696941,18.2920126 13.6696941,18.6719392" id="Fill-724"></path>
                    <path d="M6.47443914,13.8362711 L6.5229437,13.8526362 L10.3165497,15.1415202 L14.6034438,13.8346667 L17.5025158,15.081301 L17.5025158,4.47191399 L14.6034438,5.71844128 L10.3165497,4.41169476 L6.47443914,5.71694382 L6.42561756,5.70122051 L2.63919747,4.46282228 L2.63919747,15.0903927 L6.47443914,13.8362711 Z M17.813727,15.5574928 L14.5853735,14.1693487 L10.3114773,15.4723516 L6.472537,14.1678512 L2.32798631,15.5234791 L2.32798631,4.02973587 L6.472537,5.38536371 L10.3114773,4.08086338 L10.3588194,4.09551708 L14.5853735,5.38386625 L17.813727,3.99572217 L17.813727,15.5574928 Z" id="Fill-726"></path>
                    <polygon id="Fill-728" points="0.732418828 9.94094993 0.732207479 9.62751599 19.4092099 9.61506378 19.4094212 9.92849771"></polygon>
                    <path d="M10.4938925,4.26824893 L12.7229887,9.34848407 L14.4267773,5.54365578 L12.8902713,1.12069799 L10.4938925,4.26824893 Z M6.63318326,5.53135523 L8.13386567,9.35875235 L10.1326973,4.28108429 L7.21566065,1.14369467 L6.63318326,5.53135523 Z M2.69881898,9.78488628 L6.41855851,13.7160359 L7.96616037,9.78488628 L6.41845284,5.83790639 L2.69881898,9.78488628 Z M8.30114828,9.78488628 L10.3203751,14.8986003 L12.5513734,9.73375876 L10.3217488,4.65213313 L8.30114828,9.78488628 Z M6.63360595,14.0210896 L7.26057228,18.329064 L10.132486,15.2715745 L8.13376,10.2100575 L6.63360595,14.0210896 Z M10.4944208,15.2824845 L12.9352886,18.3517398 L14.4272,14.0091099 L12.722566,10.1239537 L10.4944208,15.2824845 Z M7.04573619,19.014793 L6.32672744,14.0747842 L2.2683014,9.78531412 L6.32598772,5.47947898 L6.99427274,0.445665061 L10.3021991,4.00373357 L12.9936208,0.468554785 L14.7619766,5.55863036 L12.8920677,9.73397269 L14.7616595,13.994991 L13.0449786,18.9921172 L10.3043126,15.5460372 L7.04573619,19.014793 Z" id="Fill-730"></path>
                    <polygon id="Fill-732" points="14.7197808 14.0953208 14.4690154 13.9087802 17.4650965 9.78488628 14.468804 5.64430639 14.7199921 5.45808672 17.8511251 9.78531412"></polygon>
                    <path d="M5.74576119,5.55116446 C5.74576119,5.93109109 6.04999784,6.23913971 6.42535338,6.23913971 C6.80070891,6.23913971 7.10494556,5.93109109 7.10494556,5.55116446 C7.10494556,5.17123783 6.80070891,4.86329618 6.42535338,4.86329618 C6.04999784,4.86329618 5.74576119,5.17123783 5.74576119,5.55116446" id="Fill-734"></path>
                    <path d="M9.63435788,4.2462149 C9.63435788,4.62614152 9.93859453,4.93419014 10.3139501,4.93419014 C10.6893056,4.93419014 10.9936479,4.62614152 10.9936479,4.2462149 C10.9936479,3.86628827 10.6893056,3.55834661 10.3139501,3.55834661 C9.93859453,3.55834661 9.63435788,3.86628827 9.63435788,4.2462149" id="Fill-736"></path>
                    <path d="M15.0749842,5.06476853 C14.80953,4.79608168 14.3792238,4.79608168 14.1138753,5.06476853 C13.8484212,5.33345538 13.8484212,5.76889494 14.1138753,6.03758179 C14.3792238,6.30626864 14.80953,6.30626864 15.0749842,6.03758179 C15.3403327,5.76889494 15.3403327,5.33345538 15.0749842,5.06476853" id="Fill-738"></path>
                    <path d="M3.16318407,9.73330952 C3.16318407,9.3533829 2.85894742,9.04544124 2.48359189,9.04544124 C2.10823635,9.04544124 1.80389403,9.3533829 1.80389403,9.73330952 C1.80389403,10.1132362 2.10823635,10.4212848 2.48359189,10.4212848 C2.85894742,10.4212848 3.16318407,10.1132362 3.16318407,9.73330952" id="Fill-740"></path>
                    <path d="M8.68282314,9.73330952 C8.68282314,9.3533829 8.37858649,9.04544124 8.00323096,9.04544124 C7.62787542,9.04544124 7.3235331,9.3533829 7.3235331,9.73330952 C7.3235331,10.1132362 7.62787542,10.4212848 8.00323096,10.4212848 C8.37858649,10.4212848 8.68282314,10.1132362 8.68282314,9.73330952" id="Fill-742"></path>
                    <path d="M13.3037541,9.73330952 C13.3037541,9.3533829 12.9995175,9.04544124 12.6240563,9.04544124 C12.2488064,9.04544124 11.9444641,9.3533829 11.9444641,9.73330952 C11.9444641,10.1132362 12.2488064,10.4212848 12.6240563,10.4212848 C12.9995175,10.4212848 13.3037541,10.1132362 13.3037541,9.73330952" id="Fill-744"></path>
                    <path d="M18.3377347,9.78501463 C18.3377347,9.405088 18.033498,9.09703938 17.6581425,9.09703938 C17.282787,9.09703938 16.9784447,9.405088 16.9784447,9.78501463 C16.9784447,10.1649413 17.282787,10.4728829 17.6581425,10.4728829 C18.033498,10.4728829 18.3377347,10.1649413 18.3377347,9.78501463" id="Fill-746"></path>
                    <path d="M15.2740537,14.0020398 C15.2740537,13.6221131 14.9697113,13.3141715 14.5943558,13.3141715 C14.2191059,13.3141715 13.9147636,13.6221131 13.9147636,14.0020398 C13.9147636,14.3819664 14.2191059,14.690015 14.5943558,14.690015 C14.9697113,14.690015 15.2740537,14.3819664 15.2740537,14.0020398" id="Fill-748"></path>
                    <path d="M22.6587828,17.4663246 C22.6587828,16.9288439 22.2282652,16.4930835 21.6972513,16.4930835 C21.1661316,16.4930835 20.7357197,16.9288439 20.7357197,17.4663246 C20.7357197,18.0038053 21.1661316,18.4395657 21.6972513,18.4395657 C22.2282652,18.4395657 22.6587828,18.0038053 22.6587828,17.4663246" id="Fill-750"></path>
                    <path d="M10.0494681,14.6900899 C9.70370143,14.8379105 9.54180822,15.2415825 9.68795594,15.59156 C9.83399799,15.9414305 10.2327076,16.1052952 10.5784743,15.9574747 C10.924241,15.8095471 11.0861342,15.4059821 10.9399865,15.0560046 C10.7939444,14.7060271 10.3952348,14.5422693 10.0494681,14.6900899" id="Fill-752"></path>
                    <path d="M6.16087144,13.3683688 C5.81510474,13.5161893 5.65321153,13.9198614 5.79935926,14.2697319 C5.9454013,14.6197093 6.34411088,14.7835741 6.68987758,14.6357535 C7.03564428,14.487826 7.19753749,14.084261 7.05138977,13.7342835 C6.90534772,13.384306 6.50663814,13.2205482 6.16087144,13.3683688" id="Fill-754"></path>
                    <polygon id="Fill-756" points="21.6246847 17.6057166 17.5557968 15.4813577 17.698563 15.201333 21.7673451 17.3256918"></polygon>
                </g>
            </g>
        </g>
    </g>
</svg>