<?xml version="1.0" encoding="UTF-8"?>
<svg width="17px" height="17px" viewBox="0 0 17 17" version="1.1" xmlns="http://www.w3.org/2000/svg" xmlns:xlink="http://www.w3.org/1999/xlink">
    <!-- Generator: Sketch 50.2 (55047) - http://www.bohemiancoding.com/sketch -->
    <title>OMG</title>
    <desc>Created with Sketch.</desc>
    <defs></defs>
    <g id="Page-1" stroke="none" stroke-width="1" fill="none" fill-rule="evenodd">
        <g id="Artboard" transform="translate(-277.000000, -321.000000)">
            <g id="OMG" transform="translate(268.000000, 313.000000)">
                <path d="M31.8510965,15.9698149 C31.8510965,24.7624915 24.7233751,31.8902129 15.9306985,31.8902129 C7.13818109,31.8902129 0.0103004975,24.7624915 0.0103004975,15.9698149 C0.0103004975,7.17713831 7.13818109,0.0494169154 15.9306985,0.0494169154 C24.7233751,0.0494169154 31.8510965,7.17713831 31.8510965,15.9698149" id="Fill-678"></path>
                <path d="M13.100402,15.4408119 C11.501198,15.4408119 10.2001831,14.139797 10.2001831,12.540593 C10.2001831,10.9413891 11.501198,9.64037413 13.100402,9.64037413 C14.699606,9.64037413 16.0006209,10.9413891 16.0006209,12.540593 C16.0006209,14.139797 14.699606,15.4408119 13.100402,15.4408119 M15.7452577,9.64037413 L16.5162826,9.64037413 L16.5162826,8.60905075 L13.100402,8.60905075 C10.9326806,8.60905075 9.16901891,10.3727124 9.16901891,12.540593 C9.16901891,14.7084736 10.9326806,16.4721353 13.100402,16.4721353 C15.2681234,16.4721353 17.0317851,14.7084736 17.0317851,12.540593 C17.0317851,11.3917771 16.5334766,10.3598169 15.7452577,9.64037413" id="Fill-680" fill="#FFFFFF"></path>
                <path d="M21.4144637,15.4408119 C19.8152597,15.4408119 18.5142448,14.139797 18.5142448,12.540593 C18.5142448,10.9413891 19.8152597,9.64037413 21.4144637,9.64037413 C23.0136677,9.64037413 24.3146826,10.9413891 24.3146826,12.540593 C24.3146826,14.139797 23.0136677,15.4408119 21.4144637,15.4408119 M21.4144637,8.60905075 C19.2465831,8.60905075 17.4830806,10.3727124 17.4830806,12.540593 C17.4830806,14.7084736 19.2465831,16.4721353 21.4144637,16.4721353 C23.5823443,16.4721353 25.3458468,14.7084736 25.3458468,12.540593 C25.3458468,10.3727124 23.5823443,8.60905075 21.4144637,8.60905075" id="Fill-682" fill="#FFFFFF"></path>
                <path d="M13.100402,23.6259821 C11.501198,23.6259821 10.2001831,22.3249672 10.2001831,20.7257632 C10.2001831,19.1265592 11.501198,17.8255443 13.100402,17.8255443 C14.699606,17.8255443 16.0006209,19.1265592 16.0006209,20.7257632 C16.0006209,22.3249672 14.699606,23.6259821 13.100402,23.6259821 M13.100402,16.7942209 C10.9326806,16.7942209 9.16901891,18.5578826 9.16901891,20.7257632 C9.16901891,22.8936438 10.9326806,24.6573055 13.100402,24.6573055 C15.2681234,24.6573055 17.0317851,22.8936438 17.0317851,20.7257632 C17.0317851,18.5578826 15.2681234,16.7942209 13.100402,16.7942209" id="Fill-684" fill="#FFFFFF"></path>
            </g>
        </g>
    </g>
</svg>